{"glyphs":{"0":{"ha":896,"x_min":62,"x_max":833,"o":"m 455 738 q 651 692 565 738 q 785 563 736 646 q 833 371 833 480 q 783 172 833 260 q 645 32 734 83 q 440 -20 555 -20 q 245 26 332 -20 q 111 155 159 72 q 62 349 62 239 q 111 547 62 458 q 250 687 160 635 q 455 738 339 738 m 443 713 q 354 670 393 713 q 294 545 315 627 q 272 353 272 464 q 296 155 272 233 q 361 41 320 77 q 452 5 401 5 q 541 49 503 5 q 602 174 580 92 q 623 367 623 256 q 599 564 623 486 q 534 677 575 641 q 443 713 494 713 z "},"1":{"ha":532,"x_min":56,"x_max":492,"o":"m 392 135 q 402 71 392 94 q 433 39 412 48 q 492 29 455 29 l 492 0 q 465 1 487 0 q 300 5 341 5 q 100 1 254 5 q 62 0 71 0 l 62 29 q 160 54 127 29 q 192 143 192 79 l 192 482 q 180 581 192 549 q 141 623 168 612 q 56 633 113 633 l 56 663 q 255 681 178 665 q 392 734 333 697 l 392 135 z "},"2":{"ha":727,"x_min":57,"x_max":669,"o":"m 381 738 q 552 691 490 738 q 614 562 614 645 q 581 455 614 505 q 503 368 549 406 q 380 275 457 330 q 241 165 279 205 l 543 165 q 599 171 581 165 q 625 190 617 177 q 635 228 632 202 l 664 228 q 669 -7 664 64 q 463 0 638 0 l 58 0 l 58 27 q 127 92 76 45 q 262 223 208 165 q 356 357 316 281 q 396 516 396 433 q 266 658 396 658 q 163 630 208 658 q 80 549 118 603 l 57 564 q 381 738 160 738 z "},"3":{"ha":677,"x_min":41,"x_max":629,"o":"m 342 738 q 464 719 410 738 q 549 663 518 699 q 579 578 579 627 q 545 479 579 526 q 447 399 511 433 q 298 349 383 366 l 323 349 q 481 325 412 349 q 590 252 551 300 q 629 137 629 204 q 542 -44 629 35 q 318 -166 454 -123 q 41 -210 181 -210 l 41 -182 q 220 -141 132 -179 q 366 -32 309 -103 q 422 136 422 39 q 405 233 422 190 q 354 300 387 275 q 277 329 321 326 q 234 312 250 317 q 205 307 219 307 q 180 327 180 307 q 192 349 180 342 q 224 357 205 357 q 251 354 233 357 l 273 352 q 380 538 380 427 q 347 630 380 600 q 256 661 315 661 q 154 633 201 661 q 75 551 107 605 l 50 564 q 162 690 94 643 q 342 738 231 738 z "},"4":{"ha":733,"x_min":11,"x_max":690,"o":"m 690 43 q 551 50 668 48 l 551 -196 l 390 -196 l 390 50 l 11 50 l 11 79 l 529 738 l 551 738 l 551 193 l 563 193 q 619 199 601 193 q 645 217 637 205 q 656 256 652 230 l 685 256 q 690 43 685 108 m 390 516 l 138 193 l 390 193 l 390 516 z "},"5":{"ha":638,"x_min":41,"x_max":591,"o":"m 534 771 q 541 538 534 616 q 347 545 511 545 l 134 545 l 111 307 q 321 363 193 363 q 471 334 410 363 q 562 256 532 306 q 591 144 591 207 q 511 -39 591 41 q 303 -162 431 -119 q 41 -205 176 -205 l 41 -180 q 208 -142 130 -180 q 336 -34 287 -105 q 385 135 385 37 q 344 269 385 222 q 226 316 303 316 q 159 306 188 316 q 100 275 131 296 l 81 288 l 125 723 q 200 718 153 718 l 429 718 q 485 729 469 718 q 505 771 501 741 l 534 771 z "},"6":{"ha":780,"x_min":66,"x_max":738,"o":"m 465 612 q 602 575 540 612 q 701 470 665 538 q 738 311 738 402 q 691 133 738 208 q 565 19 644 58 q 391 -20 486 -20 q 217 27 290 -20 q 105 162 144 73 q 66 376 66 252 q 153 705 66 570 q 367 911 240 840 q 620 1004 493 983 l 625 977 q 469 904 536 948 q 351 767 402 859 q 283 520 300 674 q 360 589 311 567 q 465 612 410 612 m 406 8 q 467 38 439 8 q 511 134 494 68 q 528 299 528 199 q 495 506 528 440 q 410 572 463 572 q 336 546 374 572 q 279 467 298 520 q 275 369 275 415 q 294 158 275 239 q 343 43 313 77 q 406 8 372 8 z "},"7":{"ha":632,"x_min":33,"x_max":631,"o":"m 631 688 q 563 556 611 643 q 472 379 507 454 q 412 209 437 304 q 387 8 387 113 q 389 -38 387 3 q 393 -104 393 -87 q 367 -176 393 -146 q 291 -205 340 -205 q 216 -172 241 -205 q 191 -83 191 -139 q 228 92 191 3 q 316 258 264 181 q 451 444 368 335 q 528 548 511 524 l 160 548 q 103 542 122 548 q 78 524 85 536 q 66 486 71 512 l 38 486 q 33 724 38 654 q 239 718 64 718 l 631 718 l 631 688 z "},"8":{"ha":779,"x_min":60,"x_max":722,"o":"m 481 583 q 497 570 492 574 q 616 462 571 507 q 691 362 661 418 q 722 243 722 306 q 678 107 722 167 q 556 14 634 47 q 381 -20 479 -20 q 220 8 294 -20 q 103 89 147 35 q 60 218 60 142 q 286 488 60 388 q 191 578 229 536 q 130 670 153 620 q 106 777 106 720 q 146 900 106 849 q 253 977 186 951 q 399 1003 319 1003 q 541 979 479 1003 q 637 910 602 955 q 672 808 672 866 q 624 687 672 740 q 481 583 576 633 m 389 978 q 316 946 342 978 q 289 863 289 915 q 311 770 289 814 q 370 687 334 726 q 460 602 406 648 q 499 693 486 639 q 511 797 511 747 q 479 930 511 882 q 389 978 446 978 m 389 5 q 491 46 454 5 q 529 155 529 87 q 501 266 529 214 q 431 358 473 317 q 321 457 390 399 l 307 469 q 232 243 232 391 q 269 71 232 137 q 389 5 307 5 z "},"9":{"ha":768,"x_min":40,"x_max":712,"o":"m 386 738 q 561 693 488 738 q 673 561 634 648 q 712 354 712 475 q 626 59 712 180 q 415 -129 541 -63 q 166 -210 290 -194 l 161 -183 q 307 -122 243 -159 q 420 -8 370 -84 q 490 192 470 67 q 414 128 461 149 q 312 107 366 107 q 175 144 237 107 q 77 249 113 180 q 40 408 40 317 q 87 585 40 511 q 212 699 134 660 q 386 738 291 738 m 368 147 q 439 172 402 147 q 497 247 476 197 q 503 361 503 303 q 484 565 503 487 q 435 676 465 643 q 372 710 406 710 q 311 680 338 710 q 266 584 283 650 q 250 419 250 519 q 282 213 250 279 q 368 147 315 147 z "}," ":{"ha":324,"x_min":0,"x_max":0,"o":""},"A":{"ha":926,"x_min":-22,"x_max":936,"o":"m 848 117 q 889 50 866 71 q 936 28 913 29 l 936 0 q 725 4 853 4 q 513 0 583 4 l 513 28 q 588 41 566 30 q 611 79 611 52 q 595 144 611 103 l 511 372 l 210 372 l 172 276 q 134 122 134 178 q 165 50 134 71 q 258 28 196 29 l 258 0 q 85 4 163 4 q -22 0 20 4 l -22 28 q 99 174 48 41 l 415 986 q 463 984 437 984 q 511 986 489 984 l 848 117 m 363 774 l 220 400 l 501 400 l 363 774 z "},"Á":{"ha":926,"x_min":-22,"x_max":936,"o":"m 0 0 m 848 117 q 889 50 866 71 q 936 28 913 29 l 936 0 q 725 4 853 4 q 513 0 583 4 l 513 28 q 588 41 566 30 q 611 79 611 52 q 595 144 611 103 l 511 372 l 210 372 l 172 276 q 134 122 134 178 q 165 50 134 71 q 258 28 196 29 l 258 0 q 85 4 163 4 q -22 0 20 4 l -22 28 q 99 174 48 41 l 415 986 q 463 984 437 984 q 511 986 489 984 l 848 117 m 363 774 l 220 400 l 501 400 l 363 774 m 585 1297 q 628 1308 604 1308 q 668 1297 650 1308 q 697 1267 687 1286 q 705 1236 705 1253 q 692 1196 705 1215 q 659 1164 680 1177 q 616 1146 638 1153 q 551 1128 595 1139 q 370 1072 447 1101 l 359 1089 q 498 1221 428 1145 q 546 1269 528 1253 q 585 1297 563 1285 z "},"Ă":{"ha":926,"x_min":-22,"x_max":936,"o":"m 0 0 m 848 117 q 889 50 866 71 q 936 28 913 29 l 936 0 q 725 4 853 4 q 513 0 583 4 l 513 28 q 588 41 566 30 q 611 79 611 52 q 595 144 611 103 l 511 372 l 210 372 l 172 276 q 134 122 134 178 q 165 50 134 71 q 258 28 196 29 l 258 0 q 85 4 163 4 q -22 0 20 4 l -22 28 q 99 174 48 41 l 415 986 q 463 984 437 984 q 511 986 489 984 l 848 117 m 363 774 l 220 400 l 501 400 l 363 774 m 762 1257 q 699 1167 741 1210 q 595 1098 658 1125 q 452 1070 532 1070 q 310 1098 373 1070 q 206 1167 248 1125 q 143 1257 165 1210 l 160 1271 q 279 1212 206 1236 q 452 1187 351 1187 q 746 1272 633 1187 l 762 1257 z "},"Â":{"ha":926,"x_min":-22,"x_max":936,"o":"m 0 0 m 848 117 q 889 50 866 71 q 936 28 913 29 l 936 0 q 725 4 853 4 q 513 0 583 4 l 513 28 q 588 41 566 30 q 611 79 611 52 q 595 144 611 103 l 511 372 l 210 372 l 172 276 q 134 122 134 178 q 165 50 134 71 q 258 28 196 29 l 258 0 q 85 4 163 4 q -22 0 20 4 l -22 28 q 99 174 48 41 l 415 986 q 463 984 437 984 q 511 986 489 984 l 848 117 m 363 774 l 220 400 l 501 400 l 363 774 m 474 1305 q 593 1185 517 1244 q 758 1089 669 1127 l 751 1069 q 574 1109 662 1084 q 433 1158 486 1134 q 317 1109 390 1134 q 171 1069 244 1084 l 164 1089 q 329 1185 253 1126 q 449 1305 404 1243 l 474 1305 z "},"Ä":{"ha":926,"x_min":-22,"x_max":936,"o":"m 0 0 m 848 117 q 889 50 866 71 q 936 28 913 29 l 936 0 q 725 4 853 4 q 513 0 583 4 l 513 28 q 588 41 566 30 q 611 79 611 52 q 595 144 611 103 l 511 372 l 210 372 l 172 276 q 134 122 134 178 q 165 50 134 71 q 258 28 196 29 l 258 0 q 85 4 163 4 q -22 0 20 4 l -22 28 q 99 174 48 41 l 415 986 q 463 984 437 984 q 511 986 489 984 l 848 117 m 363 774 l 220 400 l 501 400 l 363 774 m 295 1274 q 346 1259 322 1274 q 385 1220 370 1244 q 399 1168 399 1196 q 385 1116 399 1140 q 346 1078 370 1093 q 295 1064 322 1064 q 242 1078 267 1064 q 204 1116 218 1092 q 190 1168 190 1140 q 204 1220 190 1196 q 242 1259 218 1244 q 295 1274 267 1274 m 627 1274 q 679 1259 654 1274 q 718 1220 703 1244 q 732 1168 732 1196 q 718 1116 732 1140 q 679 1078 703 1093 q 627 1064 654 1064 q 575 1078 599 1064 q 537 1116 551 1092 q 523 1168 523 1140 q 537 1220 523 1196 q 575 1259 551 1244 q 627 1274 599 1274 z "},"À":{"ha":926,"x_min":-22,"x_max":936,"o":"m 0 0 m 848 117 q 889 50 866 71 q 936 28 913 29 l 936 0 q 725 4 853 4 q 513 0 583 4 l 513 28 q 588 41 566 30 q 611 79 611 52 q 595 144 611 103 l 511 372 l 210 372 l 172 276 q 134 122 134 178 q 165 50 134 71 q 258 28 196 29 l 258 0 q 85 4 163 4 q -22 0 20 4 l -22 28 q 99 174 48 41 l 415 986 q 463 984 437 984 q 511 986 489 984 l 848 117 m 363 774 l 220 400 l 501 400 l 363 774 m 329 1297 q 369 1269 351 1285 q 418 1219 387 1253 q 554 1089 489 1142 l 545 1072 q 363 1128 467 1101 q 298 1146 319 1139 q 256 1164 276 1153 q 221 1195 233 1177 q 209 1235 209 1214 q 217 1267 209 1253 q 246 1297 227 1286 q 286 1308 264 1308 q 329 1297 309 1308 z "},"Ā":{"ha":926,"x_min":-22,"x_max":936,"o":"m 0 0 m 848 117 q 889 50 866 71 q 936 28 913 29 l 936 0 q 725 4 853 4 q 513 0 583 4 l 513 28 q 588 41 566 30 q 611 79 611 52 q 595 144 611 103 l 511 372 l 210 372 l 172 276 q 134 122 134 178 q 165 50 134 71 q 258 28 196 29 l 258 0 q 85 4 163 4 q -22 0 20 4 l -22 28 q 99 174 48 41 l 415 986 q 463 984 437 984 q 511 986 489 984 l 848 117 m 363 774 l 220 400 l 501 400 l 363 774 m 183 1137 l 183 1173 l 739 1173 l 739 1137 l 183 1137 z "},"Ą":{"ha":926,"x_min":-22,"x_max":936,"o":"m 909 1 q 802 -58 836 -23 q 768 -128 768 -94 q 825 -184 768 -184 q 873 -174 848 -184 q 913 -147 899 -163 l 933 -167 q 850 -239 896 -216 q 743 -261 805 -261 q 649 -236 682 -261 q 616 -166 616 -211 q 680 -66 616 -110 q 859 3 743 -23 q 725 4 775 4 q 513 0 583 4 l 513 28 q 588 41 566 30 q 611 79 611 52 q 595 144 611 103 l 511 372 l 210 372 l 172 276 q 134 122 134 178 q 165 50 134 71 q 258 28 196 29 l 258 0 q 85 4 163 4 q -22 0 20 4 l -22 28 q 99 174 48 41 l 415 986 q 463 984 437 984 q 511 986 489 984 l 848 117 q 889 50 866 71 q 936 28 913 29 l 936 0 l 909 1 m 363 774 l 220 400 l 501 400 l 363 774 z "},"Å":{"ha":926,"x_min":-22,"x_max":936,"o":"m 0 0 m 848 117 q 889 50 866 71 q 936 28 913 29 l 936 0 q 725 4 853 4 q 513 0 583 4 l 513 28 q 588 41 566 30 q 611 79 611 52 q 595 144 611 103 l 511 372 l 210 372 l 172 276 q 134 122 134 178 q 165 50 134 71 q 258 28 196 29 l 258 0 q 85 4 163 4 q -22 0 20 4 l -22 28 q 99 174 48 41 l 415 986 q 463 984 437 984 q 511 986 489 984 l 848 117 m 363 774 l 220 400 l 501 400 l 363 774 m 461 1301 q 537 1285 502 1301 q 592 1237 572 1268 q 613 1166 613 1206 q 592 1095 613 1126 q 537 1047 572 1064 q 461 1031 502 1031 q 387 1047 421 1031 q 332 1095 353 1064 q 311 1166 311 1126 q 332 1237 311 1206 q 387 1285 353 1268 q 461 1301 421 1301 m 461 1272 q 408 1259 434 1272 q 366 1222 382 1246 q 350 1165 350 1198 q 366 1107 350 1131 q 408 1072 382 1084 q 461 1060 433 1060 q 515 1072 490 1060 q 557 1107 541 1084 q 574 1165 574 1131 q 557 1222 574 1198 q 515 1259 541 1246 q 461 1272 489 1272 z "},"Ã":{"ha":926,"x_min":-22,"x_max":936,"o":"m 0 0 m 848 117 q 889 50 866 71 q 936 28 913 29 l 936 0 q 725 4 853 4 q 513 0 583 4 l 513 28 q 588 41 566 30 q 611 79 611 52 q 595 144 611 103 l 511 372 l 210 372 l 172 276 q 134 122 134 178 q 165 50 134 71 q 258 28 196 29 l 258 0 q 85 4 163 4 q -22 0 20 4 l -22 28 q 99 174 48 41 l 415 986 q 463 984 437 984 q 511 986 489 984 l 848 117 m 363 774 l 220 400 l 501 400 l 363 774 m 339 1283 q 419 1270 385 1283 q 498 1231 454 1257 q 567 1196 538 1207 q 631 1185 595 1185 q 746 1260 705 1185 l 766 1253 q 697 1114 748 1161 q 581 1066 647 1066 q 501 1079 536 1066 q 421 1119 467 1093 q 352 1154 380 1142 q 288 1165 323 1165 q 173 1089 216 1165 l 153 1097 q 222 1236 172 1188 q 339 1283 273 1283 z "},"Æ":{"ha":1234,"x_min":-20,"x_max":1172,"o":"m 1162 195 q 1172 0 1162 83 q 865 4 1081 4 q 465 0 600 4 l 465 28 q 526 39 507 30 q 551 71 545 47 q 558 147 558 95 l 558 481 l 326 481 l 129 144 q 104 77 104 101 q 127 41 104 52 q 200 28 151 30 l 200 0 q 73 4 158 4 q -20 0 15 4 l -20 28 q 26 49 3 29 q 76 117 48 69 l 548 918 q 518 946 538 939 q 454 956 498 954 l 454 983 q 585 981 494 982 l 639 1072 l 672 1072 l 618 981 q 865 979 716 979 q 1144 983 1061 979 q 1135 794 1135 878 q 1139 700 1135 734 l 1107 700 q 1072 849 1095 793 q 1014 928 1049 904 q 929 951 979 951 l 883 951 q 816 943 837 951 q 787 912 795 935 q 779 836 779 888 l 779 509 l 852 509 q 917 531 893 509 q 951 583 941 554 q 970 656 962 612 l 973 672 l 1005 672 q 1000 554 1000 610 l 1001 494 q 1009 317 1001 431 l 977 317 q 959 402 969 368 q 923 458 948 435 q 852 481 897 481 l 779 481 l 779 147 q 787 72 779 95 q 816 40 795 48 q 883 32 837 32 l 951 32 q 1074 96 1027 32 q 1135 311 1120 160 l 1166 311 q 1162 195 1162 267 m 558 836 q 557 876 558 852 l 342 509 l 558 509 l 558 836 z "},"B":{"ha":932,"x_min":47,"x_max":891,"o":"m 542 517 q 743 471 665 507 q 856 382 821 435 q 891 269 891 330 q 845 122 891 183 q 713 31 800 62 q 508 0 627 0 l 441 1 q 260 4 349 4 q 47 0 117 4 l 47 28 q 114 39 94 30 q 143 71 135 47 q 151 147 151 95 l 151 836 q 143 912 151 888 q 114 945 135 936 q 47 956 93 954 l 47 983 q 258 979 117 979 q 414 981 283 979 l 476 982 q 665 955 588 982 q 781 878 742 927 q 819 764 819 829 q 789 663 819 712 q 697 575 760 613 q 542 519 634 536 l 542 517 m 458 956 q 403 946 421 956 q 378 911 385 936 q 372 836 372 886 l 372 522 l 431 522 q 558 584 522 522 q 594 749 594 646 q 562 904 594 853 q 458 956 530 956 m 467 32 q 614 94 567 32 q 661 275 661 155 q 605 441 661 385 q 430 498 550 498 l 372 498 l 372 147 q 379 73 372 97 q 406 41 387 50 q 467 32 426 32 z "},"C":{"ha":980,"x_min":60,"x_max":901,"o":"m 551 1003 q 692 979 634 1003 q 806 913 751 956 q 833 901 821 901 q 869 983 861 901 l 901 983 q 896 647 896 888 l 863 647 q 845 760 855 717 q 814 837 834 804 q 759 899 794 871 q 679 949 725 932 q 583 967 633 967 q 426 901 488 967 q 335 727 364 836 q 307 489 307 619 q 337 251 307 359 q 430 79 367 144 q 589 14 494 14 q 683 32 636 14 q 762 81 729 49 q 817 144 797 109 q 846 228 836 180 q 863 350 857 275 l 896 350 q 901 0 896 98 l 869 0 q 858 63 865 43 q 836 82 850 82 q 806 71 824 82 q 731 23 766 41 q 651 -8 696 4 q 550 -20 606 -20 q 292 40 403 -20 q 120 213 181 100 q 60 484 60 327 q 122 755 60 637 q 296 938 184 873 q 551 1003 408 1003 z "},"Ć":{"ha":980,"x_min":60,"x_max":901,"o":"m 60 0 m 551 1003 q 692 979 634 1003 q 806 913 751 956 q 833 901 821 901 q 869 983 861 901 l 901 983 q 896 647 896 888 l 863 647 q 845 760 855 717 q 814 837 834 804 q 759 899 794 871 q 679 949 725 932 q 583 967 633 967 q 426 901 488 967 q 335 727 364 836 q 307 489 307 619 q 337 251 307 359 q 430 79 367 144 q 589 14 494 14 q 683 32 636 14 q 762 81 729 49 q 817 144 797 109 q 846 228 836 180 q 863 350 857 275 l 896 350 q 901 0 896 98 l 869 0 q 858 63 865 43 q 836 82 850 82 q 806 71 824 82 q 731 23 766 41 q 651 -8 696 4 q 550 -20 606 -20 q 292 40 403 -20 q 120 213 181 100 q 60 484 60 327 q 122 755 60 637 q 296 938 184 873 q 551 1003 408 1003 m 650 1297 q 693 1308 669 1308 q 733 1297 715 1308 q 762 1267 752 1286 q 770 1236 770 1253 q 758 1196 770 1215 q 724 1164 745 1177 q 682 1146 703 1153 q 616 1128 660 1139 q 435 1072 512 1101 l 425 1089 q 563 1221 493 1145 q 611 1269 593 1253 q 650 1297 628 1285 z "},"Č":{"ha":980,"x_min":60,"x_max":901,"o":"m 60 0 m 551 1003 q 692 979 634 1003 q 806 913 751 956 q 833 901 821 901 q 869 983 861 901 l 901 983 q 896 647 896 888 l 863 647 q 845 760 855 717 q 814 837 834 804 q 759 899 794 871 q 679 949 725 932 q 583 967 633 967 q 426 901 488 967 q 335 727 364 836 q 307 489 307 619 q 337 251 307 359 q 430 79 367 144 q 589 14 494 14 q 683 32 636 14 q 762 81 729 49 q 817 144 797 109 q 846 228 836 180 q 863 350 857 275 l 896 350 q 901 0 896 98 l 869 0 q 858 63 865 43 q 836 82 850 82 q 806 71 824 82 q 731 23 766 41 q 651 -8 696 4 q 550 -20 606 -20 q 292 40 403 -20 q 120 213 181 100 q 60 484 60 327 q 122 755 60 637 q 296 938 184 873 q 551 1003 408 1003 m 819 1282 q 655 1187 730 1245 q 535 1066 579 1128 l 510 1066 q 391 1186 467 1128 q 225 1282 315 1244 l 232 1303 q 410 1262 322 1287 q 550 1213 498 1238 q 666 1262 593 1238 q 812 1303 739 1287 l 819 1282 z "},"Ç":{"ha":980,"x_min":60,"x_max":901,"o":"m 896 350 q 901 0 896 98 l 869 0 q 858 63 865 43 q 836 82 850 82 q 806 71 824 82 q 734 24 767 43 q 659 -6 701 6 q 565 -20 617 -18 l 543 -90 q 650 -74 590 -74 q 726 -94 699 -74 q 753 -148 753 -114 q 691 -233 753 -204 q 534 -261 629 -261 q 405 -244 454 -261 l 412 -219 q 481 -225 452 -225 q 570 -211 532 -225 q 608 -168 608 -197 q 545 -132 608 -132 q 490 -142 513 -132 l 528 -19 q 281 46 387 -14 q 117 219 175 107 q 60 484 60 331 q 122 755 60 637 q 296 938 184 873 q 551 1003 408 1003 q 692 979 634 1003 q 806 913 751 956 q 833 901 821 901 q 869 983 861 901 l 901 983 q 896 647 896 888 l 863 647 q 845 760 855 717 q 814 837 834 804 q 759 899 794 871 q 679 949 725 932 q 583 967 633 967 q 426 901 488 967 q 335 727 364 836 q 307 489 307 619 q 337 251 307 359 q 430 79 367 144 q 589 14 494 14 q 683 32 636 14 q 762 81 729 49 q 817 144 797 109 q 846 228 836 180 q 863 350 857 275 l 896 350 z "},"Ĉ":{"ha":980,"x_min":60,"x_max":901,"o":"m 60 0 m 551 1003 q 692 979 634 1003 q 806 913 751 956 q 833 901 821 901 q 869 983 861 901 l 901 983 q 896 647 896 888 l 863 647 q 845 760 855 717 q 814 837 834 804 q 759 899 794 871 q 679 949 725 932 q 583 967 633 967 q 426 901 488 967 q 335 727 364 836 q 307 489 307 619 q 337 251 307 359 q 430 79 367 144 q 589 14 494 14 q 683 32 636 14 q 762 81 729 49 q 817 144 797 109 q 846 228 836 180 q 863 350 857 275 l 896 350 q 901 0 896 98 l 869 0 q 858 63 865 43 q 836 82 850 82 q 806 71 824 82 q 731 23 766 41 q 651 -8 696 4 q 550 -20 606 -20 q 292 40 403 -20 q 120 213 181 100 q 60 484 60 327 q 122 755 60 637 q 296 938 184 873 q 551 1003 408 1003 m 539 1305 q 658 1185 582 1244 q 823 1089 734 1127 l 817 1069 q 639 1109 727 1084 q 498 1158 551 1134 q 382 1109 455 1134 q 236 1069 309 1084 l 229 1089 q 394 1185 318 1126 q 514 1305 469 1243 l 539 1305 z "},"Ċ":{"ha":980,"x_min":60,"x_max":901,"o":"m 60 0 m 551 1003 q 692 979 634 1003 q 806 913 751 956 q 833 901 821 901 q 869 983 861 901 l 901 983 q 896 647 896 888 l 863 647 q 845 760 855 717 q 814 837 834 804 q 759 899 794 871 q 679 949 725 932 q 583 967 633 967 q 426 901 488 967 q 335 727 364 836 q 307 489 307 619 q 337 251 307 359 q 430 79 367 144 q 589 14 494 14 q 683 32 636 14 q 762 81 729 49 q 817 144 797 109 q 846 228 836 180 q 863 350 857 275 l 896 350 q 901 0 896 98 l 869 0 q 858 63 865 43 q 836 82 850 82 q 806 71 824 82 q 731 23 766 41 q 651 -8 696 4 q 550 -20 606 -20 q 292 40 403 -20 q 120 213 181 100 q 60 484 60 327 q 122 755 60 637 q 296 938 184 873 q 551 1003 408 1003 m 534 1277 q 621 1248 589 1277 q 652 1169 652 1219 q 621 1091 652 1120 q 534 1062 589 1062 q 448 1091 480 1062 q 416 1169 416 1120 q 448 1248 416 1219 q 534 1277 480 1277 z "},"D":{"ha":1078,"x_min":47,"x_max":1016,"o":"m 476 983 q 881 861 747 983 q 1016 503 1016 738 q 950 238 1016 351 q 760 62 884 124 q 463 0 635 0 q 379 2 429 0 q 260 4 257 4 q 47 0 117 4 l 47 28 q 114 39 94 30 q 143 71 135 47 q 151 147 151 95 l 151 836 q 143 912 151 888 q 114 945 135 936 q 47 956 93 954 l 47 983 q 214 979 136 979 l 258 979 l 317 981 q 476 983 430 983 m 475 958 q 410 948 431 958 q 380 913 388 939 q 372 839 372 888 l 372 144 q 380 70 372 94 q 410 35 388 45 q 476 25 432 25 q 659 79 591 25 q 756 236 727 133 q 785 497 785 340 q 754 757 785 656 q 654 908 723 858 q 475 958 586 958 z "},"Ð":{"ha":1078,"x_min":47,"x_max":1017,"o":"m 477 983 q 882 861 747 983 q 1017 503 1017 738 q 951 238 1017 351 q 761 62 885 124 q 464 0 636 0 q 380 2 430 0 q 261 4 258 4 q 47 0 118 4 l 47 28 q 115 39 94 30 q 143 71 136 47 q 151 147 151 95 l 151 481 l 47 481 l 47 509 l 151 509 l 151 836 q 143 912 151 888 q 115 945 136 936 q 47 956 94 954 l 47 983 q 215 979 136 979 l 258 979 l 318 981 q 477 983 431 983 m 477 25 q 660 79 591 25 q 757 236 728 133 q 786 497 786 340 q 755 757 786 656 q 655 908 724 858 q 475 958 587 958 q 410 948 432 958 q 380 913 389 939 q 372 839 372 888 l 372 509 l 545 509 l 545 481 l 372 481 l 372 144 q 380 70 372 94 q 411 35 389 45 q 477 25 433 25 z "},"Ď":{"ha":1078,"x_min":47,"x_max":1016,"o":"m 47 0 m 476 983 q 881 861 747 983 q 1016 503 1016 738 q 950 238 1016 351 q 760 62 884 124 q 463 0 635 0 q 379 2 429 0 q 260 4 257 4 q 47 0 117 4 l 47 28 q 114 39 94 30 q 143 71 135 47 q 151 147 151 95 l 151 836 q 143 912 151 888 q 114 945 135 936 q 47 956 93 954 l 47 983 q 214 979 136 979 l 258 979 l 317 981 q 476 983 430 983 m 475 958 q 410 948 431 958 q 380 913 388 939 q 372 839 372 888 l 372 144 q 380 70 372 94 q 410 35 388 45 q 476 25 432 25 q 659 79 591 25 q 756 236 727 133 q 785 497 785 340 q 754 757 785 656 q 654 908 723 858 q 475 958 586 958 m 769 1282 q 605 1187 680 1245 q 485 1066 529 1128 l 460 1066 q 341 1186 417 1128 q 175 1282 264 1244 l 182 1303 q 360 1262 272 1287 q 500 1213 448 1238 q 616 1262 543 1238 q 762 1303 689 1287 l 769 1282 z "},"Đ":{"ha":1078,"x_min":47,"x_max":1017,"o":"m 477 983 q 882 861 747 983 q 1017 503 1017 738 q 951 238 1017 351 q 761 62 885 124 q 464 0 636 0 q 380 2 430 0 q 261 4 258 4 q 47 0 118 4 l 47 28 q 115 39 94 30 q 143 71 136 47 q 151 147 151 95 l 151 481 l 47 481 l 47 509 l 151 509 l 151 836 q 143 912 151 888 q 115 945 136 936 q 47 956 94 954 l 47 983 q 215 979 136 979 l 258 979 l 318 981 q 477 983 431 983 m 477 25 q 660 79 591 25 q 757 236 728 133 q 786 497 786 340 q 755 757 786 656 q 655 908 724 858 q 475 958 587 958 q 410 948 432 958 q 380 913 389 939 q 372 839 372 888 l 372 509 l 545 509 l 545 481 l 372 481 l 372 144 q 380 70 372 94 q 411 35 389 45 q 477 25 433 25 z "},"E":{"ha":880,"x_min":47,"x_max":817,"o":"m 808 211 q 817 0 808 98 q 499 4 723 4 q 47 0 198 4 l 47 28 q 114 39 94 30 q 143 71 135 47 q 151 147 151 95 l 151 836 q 143 912 151 888 q 114 945 135 936 q 47 956 93 954 l 47 983 q 499 979 198 979 q 789 983 704 979 q 780 778 780 869 q 784 684 780 718 l 752 684 q 709 843 739 784 q 635 926 680 901 q 524 951 590 951 l 467 951 q 405 945 425 951 q 379 918 386 938 q 372 852 372 897 l 372 509 l 416 509 q 529 563 491 509 q 582 692 567 617 l 614 692 q 609 561 609 623 l 610 494 q 618 297 610 424 l 586 297 q 416 481 559 481 l 372 481 l 372 131 q 379 66 372 86 q 405 39 386 45 q 467 32 425 32 l 536 32 q 649 60 601 32 q 730 153 696 88 q 780 328 763 218 l 812 328 q 808 211 808 283 z "},"É":{"ha":880,"x_min":47,"x_max":817,"o":"m 47 0 m 808 211 q 817 0 808 98 q 499 4 723 4 q 47 0 198 4 l 47 28 q 114 39 94 30 q 143 71 135 47 q 151 147 151 95 l 151 836 q 143 912 151 888 q 114 945 135 936 q 47 956 93 954 l 47 983 q 499 979 198 979 q 789 983 704 979 q 780 778 780 869 q 784 684 780 718 l 752 684 q 709 843 739 784 q 635 926 680 901 q 524 951 590 951 l 467 951 q 405 945 425 951 q 379 918 386 938 q 372 852 372 897 l 372 509 l 416 509 q 529 563 491 509 q 582 692 567 617 l 614 692 q 609 561 609 623 l 610 494 q 618 297 610 424 l 586 297 q 416 481 559 481 l 372 481 l 372 131 q 379 66 372 86 q 405 39 386 45 q 467 32 425 32 l 536 32 q 649 60 601 32 q 730 153 696 88 q 780 328 763 218 l 812 328 q 808 211 808 283 m 560 1297 q 604 1308 580 1308 q 644 1297 625 1308 q 673 1267 663 1286 q 680 1236 680 1253 q 668 1196 680 1215 q 634 1164 656 1177 q 592 1146 614 1153 q 526 1128 570 1139 q 345 1072 422 1101 l 335 1089 q 473 1221 404 1145 q 521 1269 504 1253 q 560 1297 538 1285 z "},"Ĕ":{"ha":880,"x_min":47,"x_max":817,"o":"m 47 0 m 808 211 q 817 0 808 98 q 499 4 723 4 q 47 0 198 4 l 47 28 q 114 39 94 30 q 143 71 135 47 q 151 147 151 95 l 151 836 q 143 912 151 888 q 114 945 135 936 q 47 956 93 954 l 47 983 q 499 979 198 979 q 789 983 704 979 q 780 778 780 869 q 784 684 780 718 l 752 684 q 709 843 739 784 q 635 926 680 901 q 524 951 590 951 l 467 951 q 405 945 425 951 q 379 918 386 938 q 372 852 372 897 l 372 509 l 416 509 q 529 563 491 509 q 582 692 567 617 l 614 692 q 609 561 609 623 l 610 494 q 618 297 610 424 l 586 297 q 416 481 559 481 l 372 481 l 372 131 q 379 66 372 86 q 405 39 386 45 q 467 32 425 32 l 536 32 q 649 60 601 32 q 730 153 696 88 q 780 328 763 218 l 812 328 q 808 211 808 283 m 738 1257 q 675 1167 716 1210 q 571 1098 633 1125 q 428 1070 508 1070 q 286 1098 349 1070 q 182 1167 223 1125 q 119 1257 140 1210 l 136 1271 q 254 1212 182 1236 q 428 1187 327 1187 q 722 1272 608 1187 l 738 1257 z "},"Ě":{"ha":880,"x_min":47,"x_max":817,"o":"m 47 0 m 808 211 q 817 0 808 98 q 499 4 723 4 q 47 0 198 4 l 47 28 q 114 39 94 30 q 143 71 135 47 q 151 147 151 95 l 151 836 q 143 912 151 888 q 114 945 135 936 q 47 956 93 954 l 47 983 q 499 979 198 979 q 789 983 704 979 q 780 778 780 869 q 784 684 780 718 l 752 684 q 709 843 739 784 q 635 926 680 901 q 524 951 590 951 l 467 951 q 405 945 425 951 q 379 918 386 938 q 372 852 372 897 l 372 509 l 416 509 q 529 563 491 509 q 582 692 567 617 l 614 692 q 609 561 609 623 l 610 494 q 618 297 610 424 l 586 297 q 416 481 559 481 l 372 481 l 372 131 q 379 66 372 86 q 405 39 386 45 q 467 32 425 32 l 536 32 q 649 60 601 32 q 730 153 696 88 q 780 328 763 218 l 812 328 q 808 211 808 283 m 730 1282 q 565 1187 641 1245 q 446 1066 490 1128 l 420 1066 q 301 1186 378 1128 q 136 1282 225 1244 l 142 1303 q 320 1262 233 1287 q 460 1213 408 1238 q 577 1262 504 1238 q 723 1303 650 1287 l 730 1282 z "},"Ê":{"ha":880,"x_min":47,"x_max":817,"o":"m 47 0 m 808 211 q 817 0 808 98 q 499 4 723 4 q 47 0 198 4 l 47 28 q 114 39 94 30 q 143 71 135 47 q 151 147 151 95 l 151 836 q 143 912 151 888 q 114 945 135 936 q 47 956 93 954 l 47 983 q 499 979 198 979 q 789 983 704 979 q 780 778 780 869 q 784 684 780 718 l 752 684 q 709 843 739 784 q 635 926 680 901 q 524 951 590 951 l 467 951 q 405 945 425 951 q 379 918 386 938 q 372 852 372 897 l 372 509 l 416 509 q 529 563 491 509 q 582 692 567 617 l 614 692 q 609 561 609 623 l 610 494 q 618 297 610 424 l 586 297 q 416 481 559 481 l 372 481 l 372 131 q 379 66 372 86 q 405 39 386 45 q 467 32 425 32 l 536 32 q 649 60 601 32 q 730 153 696 88 q 780 328 763 218 l 812 328 q 808 211 808 283 m 450 1305 q 568 1185 492 1244 q 734 1089 644 1127 l 727 1069 q 549 1109 637 1084 q 409 1158 461 1134 q 293 1109 366 1134 q 146 1069 220 1084 l 140 1089 q 304 1185 229 1126 q 425 1305 380 1243 l 450 1305 z "},"Ë":{"ha":880,"x_min":47,"x_max":817,"o":"m 47 0 m 808 211 q 817 0 808 98 q 499 4 723 4 q 47 0 198 4 l 47 28 q 114 39 94 30 q 143 71 135 47 q 151 147 151 95 l 151 836 q 143 912 151 888 q 114 945 135 936 q 47 956 93 954 l 47 983 q 499 979 198 979 q 789 983 704 979 q 780 778 780 869 q 784 684 780 718 l 752 684 q 709 843 739 784 q 635 926 680 901 q 524 951 590 951 l 467 951 q 405 945 425 951 q 379 918 386 938 q 372 852 372 897 l 372 509 l 416 509 q 529 563 491 509 q 582 692 567 617 l 614 692 q 609 561 609 623 l 610 494 q 618 297 610 424 l 586 297 q 416 481 559 481 l 372 481 l 372 131 q 379 66 372 86 q 405 39 386 45 q 467 32 425 32 l 536 32 q 649 60 601 32 q 730 153 696 88 q 780 328 763 218 l 812 328 q 808 211 808 283 m 271 1274 q 322 1259 298 1274 q 360 1220 346 1244 q 375 1168 375 1196 q 360 1116 375 1140 q 322 1078 346 1093 q 271 1064 298 1064 q 218 1078 242 1064 q 180 1116 194 1092 q 165 1168 165 1140 q 180 1220 165 1196 q 218 1259 194 1244 q 271 1274 242 1274 m 603 1274 q 654 1259 630 1274 q 693 1220 679 1244 q 708 1168 708 1196 q 693 1116 708 1140 q 654 1078 679 1093 q 603 1064 630 1064 q 550 1078 574 1064 q 512 1116 526 1092 q 498 1168 498 1140 q 513 1220 498 1196 q 551 1259 527 1244 q 603 1274 574 1274 z "},"Ė":{"ha":880,"x_min":47,"x_max":817,"o":"m 47 0 m 808 211 q 817 0 808 98 q 499 4 723 4 q 47 0 198 4 l 47 28 q 114 39 94 30 q 143 71 135 47 q 151 147 151 95 l 151 836 q 143 912 151 888 q 114 945 135 936 q 47 956 93 954 l 47 983 q 499 979 198 979 q 789 983 704 979 q 780 778 780 869 q 784 684 780 718 l 752 684 q 709 843 739 784 q 635 926 680 901 q 524 951 590 951 l 467 951 q 405 945 425 951 q 379 918 386 938 q 372 852 372 897 l 372 509 l 416 509 q 529 563 491 509 q 582 692 567 617 l 614 692 q 609 561 609 623 l 610 494 q 618 297 610 424 l 586 297 q 416 481 559 481 l 372 481 l 372 131 q 379 66 372 86 q 405 39 386 45 q 467 32 425 32 l 536 32 q 649 60 601 32 q 730 153 696 88 q 780 328 763 218 l 812 328 q 808 211 808 283 m 445 1277 q 531 1248 499 1277 q 563 1169 563 1219 q 531 1091 563 1120 q 445 1062 499 1062 q 359 1091 391 1062 q 327 1169 327 1120 q 359 1248 327 1219 q 445 1277 391 1277 z "},"È":{"ha":880,"x_min":47,"x_max":817,"o":"m 47 0 m 808 211 q 817 0 808 98 q 499 4 723 4 q 47 0 198 4 l 47 28 q 114 39 94 30 q 143 71 135 47 q 151 147 151 95 l 151 836 q 143 912 151 888 q 114 945 135 936 q 47 956 93 954 l 47 983 q 499 979 198 979 q 789 983 704 979 q 780 778 780 869 q 784 684 780 718 l 752 684 q 709 843 739 784 q 635 926 680 901 q 524 951 590 951 l 467 951 q 405 945 425 951 q 379 918 386 938 q 372 852 372 897 l 372 509 l 416 509 q 529 563 491 509 q 582 692 567 617 l 614 692 q 609 561 609 623 l 610 494 q 618 297 610 424 l 586 297 q 416 481 559 481 l 372 481 l 372 131 q 379 66 372 86 q 405 39 386 45 q 467 32 425 32 l 536 32 q 649 60 601 32 q 730 153 696 88 q 780 328 763 218 l 812 328 q 808 211 808 283 m 304 1297 q 344 1269 326 1285 q 393 1219 362 1253 q 530 1089 465 1142 l 520 1072 q 339 1128 443 1101 q 273 1146 295 1139 q 231 1164 252 1153 q 197 1195 209 1177 q 184 1235 184 1214 q 193 1267 184 1253 q 221 1297 203 1286 q 262 1308 240 1308 q 304 1297 285 1308 z "},"Ē":{"ha":880,"x_min":47,"x_max":817,"o":"m 47 0 m 808 211 q 817 0 808 98 q 499 4 723 4 q 47 0 198 4 l 47 28 q 114 39 94 30 q 143 71 135 47 q 151 147 151 95 l 151 836 q 143 912 151 888 q 114 945 135 936 q 47 956 93 954 l 47 983 q 499 979 198 979 q 789 983 704 979 q 780 778 780 869 q 784 684 780 718 l 752 684 q 709 843 739 784 q 635 926 680 901 q 524 951 590 951 l 467 951 q 405 945 425 951 q 379 918 386 938 q 372 852 372 897 l 372 509 l 416 509 q 529 563 491 509 q 582 692 567 617 l 614 692 q 609 561 609 623 l 610 494 q 618 297 610 424 l 586 297 q 416 481 559 481 l 372 481 l 372 131 q 379 66 372 86 q 405 39 386 45 q 467 32 425 32 l 536 32 q 649 60 601 32 q 730 153 696 88 q 780 328 763 218 l 812 328 q 808 211 808 283 m 159 1137 l 159 1173 l 714 1173 l 714 1137 l 159 1137 z "},"Ę":{"ha":880,"x_min":47,"x_max":828,"o":"m 828 -167 q 745 -239 791 -216 q 637 -261 700 -261 q 544 -236 577 -261 q 511 -166 511 -211 q 574 -66 511 -110 q 752 2 637 -23 q 499 4 669 4 q 47 0 198 4 l 47 28 q 114 39 94 30 q 143 71 135 47 q 151 147 151 95 l 151 836 q 143 912 151 888 q 114 945 135 936 q 47 956 93 954 l 47 983 q 499 979 198 979 q 789 983 704 979 q 780 778 780 869 q 784 684 780 717 l 752 684 q 709 843 739 784 q 635 926 680 901 q 524 951 590 951 l 467 951 q 405 945 425 951 q 379 918 386 938 q 372 852 372 897 l 372 509 l 416 509 q 529 563 491 509 q 582 692 567 617 l 614 692 q 609 561 609 623 l 610 494 q 618 297 610 424 l 586 297 q 416 481 559 481 l 372 481 l 372 131 q 379 66 372 86 q 405 39 386 45 q 467 32 425 32 l 536 32 q 649 60 601 32 q 730 153 696 88 q 780 328 763 218 l 812 328 q 808 211 808 283 q 817 0 808 97 l 803 1 q 696 -58 730 -23 q 663 -128 663 -94 q 720 -184 663 -184 q 768 -174 743 -184 q 808 -147 793 -163 l 828 -167 z "},"F":{"ha":823,"x_min":47,"x_max":789,"o":"m 789 983 q 780 772 780 865 q 784 667 780 705 l 752 667 q 703 836 734 774 q 626 925 672 898 q 513 951 581 951 l 467 951 q 405 945 425 951 q 379 918 386 938 q 372 852 372 897 l 372 503 l 420 503 q 533 557 495 503 q 585 686 571 612 l 618 686 q 612 551 612 605 l 613 489 q 622 292 613 416 l 590 292 q 420 475 562 475 l 372 475 l 372 155 q 383 74 372 100 q 425 40 395 49 q 520 31 454 31 l 520 0 q 267 4 406 4 q 47 0 168 4 l 47 28 q 114 39 94 30 q 143 71 135 47 q 151 147 151 95 l 151 836 q 143 912 151 888 q 114 945 135 936 q 47 956 93 954 l 47 983 q 499 979 198 979 q 789 983 704 979 z "},"G":{"ha":1021,"x_min":60,"x_max":989,"o":"m 562 1003 q 708 980 648 1003 q 824 913 768 956 q 852 899 840 899 q 874 920 866 899 q 886 983 882 940 l 918 983 q 913 647 913 888 l 881 647 q 848 800 870 741 q 777 899 827 858 q 694 949 743 930 q 595 967 645 967 q 433 901 498 967 q 338 726 369 835 q 307 490 307 618 q 574 8 307 8 q 672 35 632 8 q 699 65 691 49 q 706 108 706 82 l 706 244 q 695 339 706 309 q 656 381 684 370 q 566 395 627 392 l 566 422 q 803 418 646 418 q 989 422 930 418 l 989 395 q 948 384 961 392 q 931 352 936 375 q 926 275 926 328 l 926 0 l 899 0 q 887 54 897 29 q 858 79 876 79 q 783 51 836 79 q 555 -20 662 -20 q 284 40 395 -20 q 116 211 173 99 q 60 480 60 323 q 124 754 60 635 q 302 938 188 873 q 562 1003 416 1003 z "},"Ǵ":{"ha":1021,"x_min":60,"x_max":989,"o":"m 60 0 m 562 1003 q 708 980 648 1003 q 824 913 768 956 q 852 899 840 899 q 874 920 866 899 q 886 983 882 940 l 918 983 q 913 647 913 888 l 881 647 q 848 800 870 741 q 777 899 827 858 q 694 949 743 930 q 595 967 645 967 q 433 901 498 967 q 338 726 369 835 q 307 490 307 618 q 574 8 307 8 q 672 35 632 8 q 699 65 691 49 q 706 108 706 82 l 706 244 q 695 339 706 309 q 656 381 684 370 q 566 395 627 392 l 566 422 q 803 418 646 418 q 989 422 930 418 l 989 395 q 948 384 961 392 q 931 352 936 375 q 926 275 926 328 l 926 0 l 899 0 q 887 54 897 29 q 858 79 876 79 q 783 51 836 79 q 555 -20 662 -20 q 284 40 395 -20 q 116 211 173 99 q 60 480 60 323 q 124 754 60 635 q 302 938 188 873 q 562 1003 416 1003 m 660 1297 q 703 1308 680 1308 q 744 1297 725 1308 q 772 1267 762 1286 q 780 1236 780 1253 q 768 1196 780 1215 q 734 1164 755 1177 q 692 1146 713 1153 q 626 1128 670 1139 q 445 1072 522 1101 l 435 1089 q 573 1221 503 1145 q 621 1269 604 1253 q 660 1297 638 1285 z "},"Ğ":{"ha":1021,"x_min":60,"x_max":989,"o":"m 60 0 m 562 1003 q 708 980 648 1003 q 824 913 768 956 q 852 899 840 899 q 874 920 866 899 q 886 983 882 940 l 918 983 q 913 647 913 888 l 881 647 q 848 800 870 741 q 777 899 827 858 q 694 949 743 930 q 595 967 645 967 q 433 901 498 967 q 338 726 369 835 q 307 490 307 618 q 574 8 307 8 q 672 35 632 8 q 699 65 691 49 q 706 108 706 82 l 706 244 q 695 339 706 309 q 656 381 684 370 q 566 395 627 392 l 566 422 q 803 418 646 418 q 989 422 930 418 l 989 395 q 948 384 961 392 q 931 352 936 375 q 926 275 926 328 l 926 0 l 899 0 q 887 54 897 29 q 858 79 876 79 q 783 51 836 79 q 555 -20 662 -20 q 284 40 395 -20 q 116 211 173 99 q 60 480 60 323 q 124 754 60 635 q 302 938 188 873 q 562 1003 416 1003 m 838 1257 q 774 1167 816 1210 q 670 1098 733 1125 q 528 1070 608 1070 q 386 1098 448 1070 q 281 1167 323 1125 q 218 1257 240 1210 l 235 1271 q 354 1212 281 1236 q 528 1187 427 1187 q 821 1272 708 1187 l 838 1257 z "},"Ĝ":{"ha":1021,"x_min":60,"x_max":989,"o":"m 60 0 m 562 1003 q 708 980 648 1003 q 824 913 768 956 q 852 899 840 899 q 874 920 866 899 q 886 983 882 940 l 918 983 q 913 647 913 888 l 881 647 q 848 800 870 741 q 777 899 827 858 q 694 949 743 930 q 595 967 645 967 q 433 901 498 967 q 338 726 369 835 q 307 490 307 618 q 574 8 307 8 q 672 35 632 8 q 699 65 691 49 q 706 108 706 82 l 706 244 q 695 339 706 309 q 656 381 684 370 q 566 395 627 392 l 566 422 q 803 418 646 418 q 989 422 930 418 l 989 395 q 948 384 961 392 q 931 352 936 375 q 926 275 926 328 l 926 0 l 899 0 q 887 54 897 29 q 858 79 876 79 q 783 51 836 79 q 555 -20 662 -20 q 284 40 395 -20 q 116 211 173 99 q 60 480 60 323 q 124 754 60 635 q 302 938 188 873 q 562 1003 416 1003 m 549 1305 q 668 1185 592 1244 q 833 1089 744 1127 l 827 1069 q 649 1109 737 1084 q 509 1158 561 1134 q 392 1109 465 1134 q 246 1069 319 1084 l 239 1089 q 404 1185 328 1126 q 524 1305 479 1243 l 549 1305 z "},"Ģ":{"ha":1021,"x_min":60,"x_max":989,"o":"m 60 0 m 562 1003 q 708 980 648 1003 q 824 913 768 956 q 852 899 840 899 q 874 920 866 899 q 886 983 882 940 l 918 983 q 913 647 913 888 l 881 647 q 848 800 870 741 q 777 899 827 858 q 694 949 743 930 q 595 967 645 967 q 433 901 498 967 q 338 726 369 835 q 307 490 307 618 q 574 8 307 8 q 672 35 632 8 q 699 65 691 49 q 706 108 706 82 l 706 244 q 695 339 706 309 q 656 381 684 370 q 566 395 627 392 l 566 422 q 803 418 646 418 q 989 422 930 418 l 989 395 q 948 384 961 392 q 931 352 936 375 q 926 275 926 328 l 926 0 l 899 0 q 887 54 897 29 q 858 79 876 79 q 783 51 836 79 q 555 -20 662 -20 q 284 40 395 -20 q 116 211 173 99 q 60 480 60 323 q 124 754 60 635 q 302 938 188 873 q 562 1003 416 1003 m 555 -77 q 637 -105 606 -77 q 668 -184 668 -134 q 629 -288 668 -248 q 510 -338 590 -328 l 505 -310 q 616 -233 606 -293 q 548 -254 593 -254 q 476 -232 503 -254 q 450 -167 450 -210 q 478 -101 450 -125 q 555 -77 506 -77 z "},"Ġ":{"ha":1021,"x_min":60,"x_max":989,"o":"m 60 0 m 562 1003 q 708 980 648 1003 q 824 913 768 956 q 852 899 840 899 q 874 920 866 899 q 886 983 882 940 l 918 983 q 913 647 913 888 l 881 647 q 848 800 870 741 q 777 899 827 858 q 694 949 743 930 q 595 967 645 967 q 433 901 498 967 q 338 726 369 835 q 307 490 307 618 q 574 8 307 8 q 672 35 632 8 q 699 65 691 49 q 706 108 706 82 l 706 244 q 695 339 706 309 q 656 381 684 370 q 566 395 627 392 l 566 422 q 803 418 646 418 q 989 422 930 418 l 989 395 q 948 384 961 392 q 931 352 936 375 q 926 275 926 328 l 926 0 l 899 0 q 887 54 897 29 q 858 79 876 79 q 783 51 836 79 q 555 -20 662 -20 q 284 40 395 -20 q 116 211 173 99 q 60 480 60 323 q 124 754 60 635 q 302 938 188 873 q 562 1003 416 1003 m 545 1277 q 631 1248 599 1277 q 663 1169 663 1219 q 631 1091 663 1120 q 545 1062 599 1062 q 458 1091 490 1062 q 427 1169 427 1120 q 458 1248 427 1219 q 545 1277 490 1277 z "},"H":{"ha":1112,"x_min":47,"x_max":1065,"o":"m 1065 956 q 997 945 1018 954 q 968 912 976 936 q 960 836 960 888 l 960 147 q 968 71 960 95 q 997 39 976 47 q 1065 28 1019 30 l 1065 0 q 854 4 997 4 q 635 0 713 4 l 635 28 q 703 39 682 30 q 732 71 724 47 q 740 147 740 95 l 740 481 l 372 481 l 372 147 q 379 71 372 95 q 408 39 387 47 q 476 28 429 30 l 476 0 q 266 4 401 4 q 47 0 117 4 l 47 28 q 114 39 94 30 q 143 71 135 47 q 151 147 151 95 l 151 836 q 143 912 151 888 q 114 945 135 936 q 47 956 93 954 l 47 983 q 266 979 117 979 q 476 983 401 979 l 476 956 q 408 945 429 954 q 379 912 387 936 q 372 836 372 888 l 372 509 l 740 509 l 740 836 q 732 912 740 888 q 703 945 724 936 q 635 956 682 954 l 635 983 q 854 979 713 979 q 1065 983 997 979 l 1065 956 z "},"Ħ":{"ha":1112,"x_min":47,"x_max":1065,"o":"m 1065 956 q 997 945 1018 954 q 968 912 976 936 q 960 836 960 888 l 960 741 l 1065 741 l 1065 713 l 960 713 l 960 147 q 968 71 960 95 q 997 39 976 47 q 1065 28 1019 30 l 1065 0 q 854 4 997 4 q 635 0 713 4 l 635 28 q 703 39 682 30 q 732 71 724 47 q 740 147 740 95 l 740 481 l 372 481 l 372 147 q 379 71 372 95 q 408 39 387 47 q 476 28 429 30 l 476 0 q 266 4 401 4 q 47 0 117 4 l 47 28 q 114 39 94 30 q 143 71 135 47 q 151 147 151 95 l 151 713 l 47 713 l 47 741 l 151 741 l 151 836 q 143 912 151 888 q 114 945 135 936 q 47 956 93 954 l 47 983 q 266 979 117 979 q 476 983 401 979 l 476 956 q 408 945 429 954 q 379 912 387 936 q 372 836 372 888 l 372 741 l 740 741 l 740 836 q 732 912 740 888 q 703 945 724 936 q 635 956 682 954 l 635 983 q 854 979 713 979 q 1065 983 997 979 l 1065 956 m 372 713 l 372 509 l 740 509 l 740 713 l 372 713 z "},"Ĥ":{"ha":1112,"x_min":47,"x_max":1065,"o":"m 47 0 m 1065 956 q 997 945 1018 954 q 968 912 976 936 q 960 836 960 888 l 960 147 q 968 71 960 95 q 997 39 976 47 q 1065 28 1019 30 l 1065 0 q 854 4 997 4 q 635 0 713 4 l 635 28 q 703 39 682 30 q 732 71 724 47 q 740 147 740 95 l 740 481 l 372 481 l 372 147 q 379 71 372 95 q 408 39 387 47 q 476 28 429 30 l 476 0 q 266 4 401 4 q 47 0 117 4 l 47 28 q 114 39 94 30 q 143 71 135 47 q 151 147 151 95 l 151 836 q 143 912 151 888 q 114 945 135 936 q 47 956 93 954 l 47 983 q 266 979 117 979 q 476 983 401 979 l 476 956 q 408 945 429 954 q 379 912 387 936 q 372 836 372 888 l 372 509 l 740 509 l 740 836 q 732 912 740 888 q 703 945 724 936 q 635 956 682 954 l 635 983 q 854 979 713 979 q 1065 983 997 979 l 1065 956 m 572 1305 q 691 1185 615 1244 q 857 1089 767 1127 l 850 1069 q 672 1109 760 1084 q 532 1158 584 1134 q 415 1109 488 1134 q 269 1069 342 1084 l 262 1089 q 427 1185 351 1126 q 547 1305 503 1243 l 572 1305 z "},"I":{"ha":522,"x_min":47,"x_max":476,"o":"m 476 956 q 408 945 429 954 q 379 912 387 936 q 372 836 372 888 l 372 147 q 379 71 372 95 q 408 39 387 47 q 476 28 429 30 l 476 0 q 266 4 401 4 q 47 0 117 4 l 47 28 q 114 39 94 30 q 143 71 135 47 q 151 147 151 95 l 151 836 q 143 912 151 888 q 114 945 135 936 q 47 956 93 954 l 47 983 q 266 979 117 979 q 476 983 401 979 l 476 956 z "},"Ĳ":{"ha":1025,"x_min":47,"x_max":987,"o":"m 47 0 m 476 956 q 408 945 429 954 q 379 912 387 936 q 372 836 372 888 l 372 147 q 379 71 372 95 q 408 39 387 47 q 476 28 429 30 l 476 0 q 266 4 401 4 q 47 0 117 4 l 47 28 q 114 39 94 30 q 143 71 135 47 q 151 147 151 95 l 151 836 q 143 912 151 888 q 114 945 135 936 q 47 956 93 954 l 47 983 q 266 979 117 979 q 476 983 401 979 l 476 956 m 987 956 q 919 945 940 954 q 890 912 898 936 q 882 836 882 888 l 882 328 l 882 255 q 878 87 882 159 q 859 -35 873 16 q 792 -151 840 -100 q 672 -232 745 -202 q 507 -261 599 -261 q 368 -235 419 -261 q 299 -134 299 -201 q 330 -66 299 -92 q 410 -41 360 -41 q 487 -64 458 -41 q 515 -132 515 -88 q 497 -188 515 -163 q 444 -223 479 -212 q 494 -233 459 -233 q 582 -206 545 -233 q 635 -134 618 -178 q 653 -58 647 -98 q 660 37 659 -18 q 661 201 661 92 l 661 836 q 653 912 661 888 q 625 945 646 936 q 557 956 604 954 l 557 983 q 768 979 625 979 q 987 983 909 979 l 987 956 z "},"Í":{"ha":522,"x_min":47,"x_max":509,"o":"m 47 0 m 476 956 q 408 945 429 954 q 379 912 387 936 q 372 836 372 888 l 372 147 q 379 71 372 95 q 408 39 387 47 q 476 28 429 30 l 476 0 q 266 4 401 4 q 47 0 117 4 l 47 28 q 114 39 94 30 q 143 71 135 47 q 151 147 151 95 l 151 836 q 143 912 151 888 q 114 945 135 936 q 47 956 93 954 l 47 983 q 266 979 117 979 q 476 983 401 979 l 476 956 m 389 1297 q 433 1308 409 1308 q 473 1297 454 1308 q 502 1267 492 1286 q 509 1236 509 1253 q 497 1196 509 1215 q 463 1164 485 1177 q 421 1146 443 1153 q 355 1128 399 1139 q 174 1072 252 1101 l 164 1089 q 302 1221 233 1145 q 350 1269 333 1253 q 389 1297 368 1285 z "},"Ĭ":{"ha":522,"x_min":-52,"x_max":567,"o":"m 0 0 m 476 956 q 408 945 429 954 q 379 912 387 936 q 372 836 372 888 l 372 147 q 379 71 372 95 q 408 39 387 47 q 476 28 429 30 l 476 0 q 266 4 401 4 q 47 0 117 4 l 47 28 q 114 39 94 30 q 143 71 135 47 q 151 147 151 95 l 151 836 q 143 912 151 888 q 114 945 135 936 q 47 956 93 954 l 47 983 q 266 979 117 979 q 476 983 401 979 l 476 956 m 567 1257 q 504 1167 545 1210 q 400 1098 463 1125 q 257 1070 337 1070 q 115 1098 178 1070 q 11 1167 52 1125 q -52 1257 -31 1210 l -35 1271 q 83 1212 11 1236 q 257 1187 156 1187 q 551 1272 437 1187 l 567 1257 z "},"Î":{"ha":522,"x_min":-31,"x_max":563,"o":"m 0 0 m 476 956 q 408 945 429 954 q 379 912 387 936 q 372 836 372 888 l 372 147 q 379 71 372 95 q 408 39 387 47 q 476 28 429 30 l 476 0 q 266 4 401 4 q 47 0 117 4 l 47 28 q 114 39 94 30 q 143 71 135 47 q 151 147 151 95 l 151 836 q 143 912 151 888 q 114 945 135 936 q 47 956 93 954 l 47 983 q 266 979 117 979 q 476 983 401 979 l 476 956 m 279 1305 q 397 1185 321 1244 q 563 1089 473 1127 l 556 1069 q 378 1109 467 1084 q 238 1158 290 1134 q 122 1109 195 1134 q -24 1069 49 1084 l -31 1089 q 133 1185 58 1126 q 254 1305 209 1243 l 279 1305 z "},"Ï":{"ha":522,"x_min":-5,"x_max":537,"o":"m 0 0 m 476 956 q 408 945 429 954 q 379 912 387 936 q 372 836 372 888 l 372 147 q 379 71 372 95 q 408 39 387 47 q 476 28 429 30 l 476 0 q 266 4 401 4 q 47 0 117 4 l 47 28 q 114 39 94 30 q 143 71 135 47 q 151 147 151 95 l 151 836 q 143 912 151 888 q 114 945 135 936 q 47 956 93 954 l 47 983 q 266 979 117 979 q 476 983 401 979 l 476 956 m 100 1274 q 151 1259 127 1274 q 190 1220 175 1244 q 204 1168 204 1196 q 190 1116 204 1140 q 151 1078 175 1093 q 100 1064 127 1064 q 47 1078 71 1064 q 9 1116 23 1092 q -5 1168 -5 1140 q 9 1220 -5 1196 q 47 1259 23 1244 q 100 1274 71 1274 m 432 1274 q 484 1259 459 1274 q 523 1220 508 1244 q 537 1168 537 1196 q 523 1116 537 1140 q 484 1078 508 1093 q 432 1064 459 1064 q 379 1078 404 1064 q 341 1116 355 1092 q 328 1168 328 1140 q 342 1220 328 1196 q 380 1259 356 1244 q 432 1274 404 1274 z "},"İ":{"ha":522,"x_min":47,"x_max":476,"o":"m 47 0 m 476 956 q 408 945 429 954 q 379 912 387 936 q 372 836 372 888 l 372 147 q 379 71 372 95 q 408 39 387 47 q 476 28 429 30 l 476 0 q 266 4 401 4 q 47 0 117 4 l 47 28 q 114 39 94 30 q 143 71 135 47 q 151 147 151 95 l 151 836 q 143 912 151 888 q 114 945 135 936 q 47 956 93 954 l 47 983 q 266 979 117 979 q 476 983 401 979 l 476 956 m 266 1346 q 358 1317 323 1346 q 392 1239 392 1289 q 358 1160 392 1189 q 266 1131 323 1131 q 173 1160 207 1131 q 139 1239 139 1189 q 173 1317 139 1289 q 266 1346 208 1346 z "},"Ì":{"ha":522,"x_min":14,"x_max":476,"o":"m 14 0 m 476 956 q 408 945 429 954 q 379 912 387 936 q 372 836 372 888 l 372 147 q 379 71 372 95 q 408 39 387 47 q 476 28 429 30 l 476 0 q 266 4 401 4 q 47 0 117 4 l 47 28 q 114 39 94 30 q 143 71 135 47 q 151 147 151 95 l 151 836 q 143 912 151 888 q 114 945 135 936 q 47 956 93 954 l 47 983 q 266 979 117 979 q 476 983 401 979 l 476 956 m 134 1297 q 173 1269 155 1285 q 222 1219 191 1253 q 359 1089 294 1142 l 349 1072 q 168 1128 272 1101 q 102 1146 124 1139 q 60 1164 81 1153 q 26 1195 38 1177 q 14 1235 14 1214 q 22 1267 14 1253 q 51 1297 32 1286 q 91 1308 69 1308 q 134 1297 114 1308 z "},"Ī":{"ha":522,"x_min":-12,"x_max":543,"o":"m 0 0 m 476 956 q 408 945 429 954 q 379 912 387 936 q 372 836 372 888 l 372 147 q 379 71 372 95 q 408 39 387 47 q 476 28 429 30 l 476 0 q 266 4 401 4 q 47 0 117 4 l 47 28 q 114 39 94 30 q 143 71 135 47 q 151 147 151 95 l 151 836 q 143 912 151 888 q 114 945 135 936 q 47 956 93 954 l 47 983 q 266 979 117 979 q 476 983 401 979 l 476 956 m -12 1137 l -12 1173 l 543 1173 l 543 1137 l -12 1137 z "},"Į":{"ha":522,"x_min":47,"x_max":476,"o":"m 476 956 q 408 945 429 954 q 379 912 387 936 q 372 836 372 888 l 372 147 q 379 71 372 95 q 408 39 387 47 q 476 28 429 30 l 476 0 l 451 1 q 343 -58 378 -23 q 309 -128 309 -94 q 366 -184 309 -184 q 414 -174 389 -184 q 454 -147 439 -163 l 474 -167 q 391 -239 437 -216 q 283 -261 346 -261 q 190 -236 223 -261 q 157 -166 157 -211 q 221 -66 157 -110 q 400 3 284 -22 q 266 4 317 4 q 47 0 117 4 l 47 28 q 114 39 94 30 q 143 71 135 47 q 151 147 151 95 l 151 836 q 143 912 151 888 q 114 945 135 936 q 47 956 93 954 l 47 983 q 266 979 117 979 q 476 983 401 979 l 476 956 z "},"Ĩ":{"ha":522,"x_min":-42,"x_max":571,"o":"m 0 0 m 476 956 q 408 945 429 954 q 379 912 387 936 q 372 836 372 888 l 372 147 q 379 71 372 95 q 408 39 387 47 q 476 28 429 30 l 476 0 q 266 4 401 4 q 47 0 117 4 l 47 28 q 114 39 94 30 q 143 71 135 47 q 151 147 151 95 l 151 836 q 143 912 151 888 q 114 945 135 936 q 47 956 93 954 l 47 983 q 266 979 117 979 q 476 983 401 979 l 476 956 m 144 1283 q 224 1270 189 1283 q 302 1231 259 1257 q 372 1196 343 1207 q 435 1185 400 1185 q 551 1260 509 1185 l 571 1253 q 502 1114 553 1161 q 386 1066 452 1066 q 306 1079 340 1066 q 226 1119 271 1093 q 157 1154 185 1142 q 93 1165 128 1165 q -22 1089 20 1165 l -42 1097 q 27 1236 -24 1188 q 144 1283 77 1283 z "},"J":{"ha":506,"x_min":-219,"x_max":469,"o":"m 469 956 q 401 945 422 954 q 372 912 380 936 q 364 836 364 888 l 364 328 l 364 255 q 360 87 364 159 q 340 -35 355 16 q 274 -151 321 -100 q 154 -232 227 -202 q -11 -261 81 -261 q -151 -235 -99 -261 q -219 -134 -219 -201 q -189 -66 -219 -92 q -108 -41 -158 -41 q -31 -64 -60 -41 q -3 -132 -3 -88 q -21 -188 -3 -163 q -74 -223 -39 -212 q -24 -233 -59 -233 q 64 -206 27 -233 q 117 -134 100 -178 q 135 -58 129 -98 q 142 37 140 -18 q 143 201 143 92 l 143 836 q 135 912 143 888 q 106 945 127 936 q 39 956 85 954 l 39 983 q 250 979 107 979 q 469 983 391 979 l 469 956 z "},"Ĵ":{"ha":506,"x_min":-219,"x_max":547,"o":"m 0 0 m 469 956 q 401 945 422 954 q 372 912 380 936 q 364 836 364 888 l 364 328 l 364 255 q 360 87 364 159 q 340 -35 355 16 q 274 -151 321 -100 q 154 -232 227 -202 q -11 -261 81 -261 q -151 -235 -99 -261 q -219 -134 -219 -201 q -189 -66 -219 -92 q -108 -41 -158 -41 q -31 -64 -60 -41 q -3 -132 -3 -88 q -21 -188 -3 -163 q -74 -223 -39 -212 q -24 -233 -59 -233 q 64 -206 27 -233 q 117 -134 100 -178 q 135 -58 129 -98 q 142 37 140 -18 q 143 201 143 92 l 143 836 q 135 912 143 888 q 106 945 127 936 q 39 956 85 954 l 39 983 q 250 979 107 979 q 469 983 391 979 l 469 956 m 263 1305 q 382 1185 306 1244 q 547 1089 458 1127 l 541 1069 q 363 1109 451 1084 q 222 1158 275 1134 q 106 1109 179 1134 q -40 1069 33 1084 l -47 1089 q 118 1185 42 1126 q 238 1305 193 1243 l 263 1305 z "},"K":{"ha":992,"x_min":47,"x_max":1005,"o":"m 905 113 q 948 61 926 80 q 1005 28 970 41 l 1005 0 q 788 4 909 4 q 612 0 696 4 l 612 28 q 668 36 651 29 q 686 56 686 42 q 671 90 686 66 l 469 416 q 436 463 450 448 q 408 485 422 479 q 372 494 393 492 l 372 147 q 379 71 372 95 q 408 39 387 47 q 476 28 429 30 l 476 0 q 266 4 401 4 q 47 0 117 4 l 47 28 q 114 39 94 30 q 143 71 135 47 q 151 147 151 95 l 151 836 q 143 912 151 888 q 114 945 135 936 q 47 956 93 954 l 47 983 q 266 979 117 979 q 476 983 401 979 l 476 956 q 408 945 429 954 q 379 912 387 936 q 372 836 372 888 l 372 524 q 474 557 427 527 q 578 654 521 588 l 659 753 q 723 882 723 828 q 696 936 723 916 q 621 956 669 955 l 621 983 q 826 979 723 979 q 958 983 907 979 l 958 956 q 755 824 847 932 l 582 617 l 905 113 z "},"Ķ":{"ha":992,"x_min":47,"x_max":1005,"o":"m 47 0 m 905 113 q 948 61 926 80 q 1005 28 970 41 l 1005 0 q 788 4 909 4 q 612 0 696 4 l 612 28 q 668 36 651 29 q 686 56 686 42 q 671 90 686 66 l 469 416 q 436 463 450 448 q 408 485 422 479 q 372 494 393 492 l 372 147 q 379 71 372 95 q 408 39 387 47 q 476 28 429 30 l 476 0 q 266 4 401 4 q 47 0 117 4 l 47 28 q 114 39 94 30 q 143 71 135 47 q 151 147 151 95 l 151 836 q 143 912 151 888 q 114 945 135 936 q 47 956 93 954 l 47 983 q 266 979 117 979 q 476 983 401 979 l 476 956 q 408 945 429 954 q 379 912 387 936 q 372 836 372 888 l 372 524 q 474 557 427 527 q 578 654 521 588 l 659 753 q 723 882 723 828 q 696 936 723 916 q 621 956 669 955 l 621 983 q 826 979 723 979 q 958 983 907 979 l 958 956 q 755 824 847 932 l 582 617 l 905 113 m 548 -77 q 630 -105 599 -77 q 661 -184 661 -134 q 622 -288 661 -248 q 503 -338 583 -328 l 498 -310 q 609 -233 600 -293 q 541 -254 586 -254 q 469 -232 496 -254 q 443 -167 443 -210 q 471 -101 443 -125 q 548 -77 499 -77 z "},"L":{"ha":848,"x_min":47,"x_max":817,"o":"m 484 956 q 411 945 434 954 q 380 912 389 936 q 372 836 372 888 l 372 131 q 378 66 372 86 q 403 39 385 45 q 459 32 420 32 l 527 32 q 643 71 590 32 q 731 179 695 109 q 780 342 766 250 l 812 342 q 808 220 808 294 q 817 0 808 101 q 499 4 723 4 q 47 0 198 4 l 47 28 q 114 39 94 30 q 143 71 135 47 q 151 147 151 95 l 151 836 q 143 912 151 888 q 114 945 135 936 q 47 956 93 954 l 47 983 q 266 979 117 979 q 484 983 407 979 l 484 956 z "},"Ĺ":{"ha":848,"x_min":47,"x_max":817,"o":"m 47 0 m 484 956 q 411 945 434 954 q 380 912 389 936 q 372 836 372 888 l 372 131 q 378 66 372 86 q 403 39 385 45 q 459 32 420 32 l 527 32 q 643 71 590 32 q 731 179 695 109 q 780 342 766 250 l 812 342 q 808 220 808 294 q 817 0 808 101 q 499 4 723 4 q 47 0 198 4 l 47 28 q 114 39 94 30 q 143 71 135 47 q 151 147 151 95 l 151 836 q 143 912 151 888 q 114 945 135 936 q 47 956 93 954 l 47 983 q 266 979 117 979 q 484 983 407 979 l 484 956 m 389 1297 q 433 1308 409 1308 q 473 1297 454 1308 q 502 1267 492 1286 q 509 1236 509 1253 q 497 1196 509 1215 q 463 1164 485 1177 q 421 1146 443 1153 q 355 1128 399 1139 q 174 1072 252 1101 l 164 1089 q 302 1221 233 1145 q 350 1269 333 1253 q 389 1297 368 1285 z "},"Ľ":{"ha":848,"x_min":47,"x_max":817,"o":"m 47 0 m 484 956 q 411 945 434 954 q 380 912 389 936 q 372 836 372 888 l 372 131 q 378 66 372 86 q 403 39 385 45 q 459 32 420 32 l 527 32 q 643 71 590 32 q 731 179 695 109 q 780 342 766 250 l 812 342 q 808 220 808 294 q 817 0 808 101 q 499 4 723 4 q 47 0 198 4 l 47 28 q 114 39 94 30 q 143 71 135 47 q 151 147 151 95 l 151 836 q 143 912 151 888 q 114 945 135 936 q 47 956 93 954 l 47 983 q 266 979 117 979 q 484 983 407 979 l 484 956 m 680 991 q 686 942 686 976 q 669 878 686 914 q 623 801 651 842 q 536 680 595 760 l 524 664 l 505 669 q 532 899 532 846 q 524 941 532 928 q 491 954 515 954 l 491 983 q 564 981 529 981 q 680 991 623 981 z "},"Ļ":{"ha":848,"x_min":47,"x_max":817,"o":"m 47 0 m 484 956 q 411 945 434 954 q 380 912 389 936 q 372 836 372 888 l 372 131 q 378 66 372 86 q 403 39 385 45 q 459 32 420 32 l 527 32 q 643 71 590 32 q 731 179 695 109 q 780 342 766 250 l 812 342 q 808 220 808 294 q 817 0 808 101 q 499 4 723 4 q 47 0 198 4 l 47 28 q 114 39 94 30 q 143 71 135 47 q 151 147 151 95 l 151 836 q 143 912 151 888 q 114 945 135 936 q 47 956 93 954 l 47 983 q 266 979 117 979 q 484 983 407 979 l 484 956 m 487 -77 q 569 -105 538 -77 q 600 -184 600 -134 q 561 -288 600 -248 q 442 -338 522 -328 l 437 -310 q 548 -233 538 -293 q 480 -254 525 -254 q 408 -232 435 -254 q 382 -167 382 -210 q 410 -101 382 -125 q 487 -77 438 -77 z "},"Ŀ":{"ha":913,"x_min":47,"x_max":882,"o":"m 47 0 m 484 956 q 411 945 434 954 q 380 912 389 936 q 372 836 372 888 l 372 131 q 378 66 372 86 q 403 39 385 45 q 459 32 420 32 l 527 32 q 643 71 590 32 q 731 179 695 109 q 780 342 766 250 l 812 342 q 808 220 808 294 q 817 0 808 101 q 499 4 723 4 q 47 0 198 4 l 47 28 q 114 39 94 30 q 143 71 135 47 q 151 147 151 95 l 151 836 q 143 912 151 888 q 114 945 135 936 q 47 956 93 954 l 47 983 q 266 979 117 979 q 484 983 407 979 l 484 956 m 764 621 q 850 592 819 621 q 882 513 882 563 q 850 434 882 463 q 764 406 819 406 q 677 434 709 406 q 646 513 646 463 q 677 592 646 563 q 764 621 709 621 z "},"Ł":{"ha":848,"x_min":47,"x_max":817,"o":"m 808 220 q 817 0 808 101 q 499 4 723 4 q 47 0 198 4 l 47 28 q 114 39 94 30 q 143 71 135 47 q 151 147 151 95 l 151 345 l 47 285 l 47 317 l 151 377 l 151 836 q 143 912 151 888 q 114 945 135 936 q 47 956 93 954 l 47 983 q 266 979 117 979 q 484 983 407 979 l 484 956 q 411 945 434 954 q 380 912 389 936 q 372 836 372 888 l 372 492 l 657 657 l 657 625 l 372 460 l 372 131 q 378 66 372 86 q 403 39 385 45 q 459 32 420 32 l 527 32 q 643 71 590 32 q 731 179 695 109 q 780 342 766 250 l 812 342 q 808 220 808 294 z "},"M":{"ha":1288,"x_min":48,"x_max":1242,"o":"m 1242 956 q 1174 945 1195 954 q 1145 912 1153 936 q 1137 836 1137 888 l 1137 147 q 1145 71 1137 95 q 1174 39 1153 47 q 1242 28 1195 30 l 1242 0 q 1023 4 1164 4 q 804 0 875 4 l 804 28 q 877 39 854 30 q 908 71 899 47 q 916 147 916 95 l 916 870 l 582 -2 l 559 -2 l 184 894 l 184 228 q 193 107 184 145 q 229 52 201 69 q 319 28 257 34 l 319 0 q 169 4 266 4 q 48 0 92 4 l 48 28 q 115 51 94 34 q 145 104 137 68 q 153 211 153 140 l 153 836 q 145 912 153 888 q 116 945 137 936 q 48 956 95 954 l 48 983 q 169 979 92 979 q 389 983 298 979 l 669 308 l 925 979 l 1023 979 q 1242 983 1164 979 l 1242 956 z "},"N":{"ha":1002,"x_min":48,"x_max":962,"o":"m 962 956 q 895 932 917 949 q 866 879 873 915 q 858 772 858 843 l 858 -3 q 825 -2 848 -2 q 787 -3 800 -2 l 184 761 l 184 228 q 193 107 184 145 q 229 52 201 69 q 319 28 257 34 l 319 0 q 169 4 266 4 q 48 0 92 4 l 48 28 q 115 51 94 34 q 145 104 137 68 q 153 211 153 140 l 153 836 q 145 912 153 888 q 116 945 137 936 q 48 956 95 954 l 48 983 q 169 979 92 979 q 289 983 240 979 l 826 321 l 826 755 q 818 876 826 838 q 781 932 809 914 q 691 956 753 949 l 691 983 q 842 979 745 979 q 962 983 919 979 l 962 956 z "},"Ń":{"ha":1002,"x_min":48,"x_max":962,"o":"m 48 0 m 962 956 q 895 932 917 949 q 866 879 873 915 q 858 772 858 843 l 858 -3 q 825 -2 848 -2 q 787 -3 800 -2 l 184 761 l 184 228 q 193 107 184 145 q 229 52 201 69 q 319 28 257 34 l 319 0 q 169 4 266 4 q 48 0 92 4 l 48 28 q 115 51 94 34 q 145 104 137 68 q 153 211 153 140 l 153 836 q 145 912 153 888 q 116 945 137 936 q 48 956 95 954 l 48 983 q 169 979 92 979 q 289 983 240 979 l 826 321 l 826 755 q 818 876 826 838 q 781 932 809 914 q 691 956 753 949 l 691 983 q 842 979 745 979 q 962 983 919 979 l 962 956 m 650 1297 q 693 1308 669 1308 q 733 1297 715 1308 q 762 1267 752 1286 q 770 1236 770 1253 q 758 1196 770 1215 q 724 1164 745 1177 q 682 1146 703 1153 q 616 1128 660 1139 q 435 1072 512 1101 l 425 1089 q 563 1221 493 1145 q 611 1269 593 1253 q 650 1297 628 1285 z "},"Ň":{"ha":1002,"x_min":48,"x_max":962,"o":"m 48 0 m 962 956 q 895 932 917 949 q 866 879 873 915 q 858 772 858 843 l 858 -3 q 825 -2 848 -2 q 787 -3 800 -2 l 184 761 l 184 228 q 193 107 184 145 q 229 52 201 69 q 319 28 257 34 l 319 0 q 169 4 266 4 q 48 0 92 4 l 48 28 q 115 51 94 34 q 145 104 137 68 q 153 211 153 140 l 153 836 q 145 912 153 888 q 116 945 137 936 q 48 956 95 954 l 48 983 q 169 979 92 979 q 289 983 240 979 l 826 321 l 826 755 q 818 876 826 838 q 781 932 809 914 q 691 956 753 949 l 691 983 q 842 979 745 979 q 962 983 919 979 l 962 956 m 819 1282 q 655 1187 730 1245 q 535 1066 579 1128 l 510 1066 q 391 1186 467 1128 q 225 1282 315 1244 l 232 1303 q 410 1262 322 1287 q 550 1213 498 1238 q 666 1262 593 1238 q 812 1303 739 1287 l 819 1282 z "},"Ņ":{"ha":1002,"x_min":48,"x_max":962,"o":"m 48 0 m 962 956 q 895 932 917 949 q 866 879 873 915 q 858 772 858 843 l 858 -3 q 825 -2 848 -2 q 787 -3 800 -2 l 184 761 l 184 228 q 193 107 184 145 q 229 52 201 69 q 319 28 257 34 l 319 0 q 169 4 266 4 q 48 0 92 4 l 48 28 q 115 51 94 34 q 145 104 137 68 q 153 211 153 140 l 153 836 q 145 912 153 888 q 116 945 137 936 q 48 956 95 954 l 48 983 q 169 979 92 979 q 289 983 240 979 l 826 321 l 826 755 q 818 876 826 838 q 781 932 809 914 q 691 956 753 949 l 691 983 q 842 979 745 979 q 962 983 919 979 l 962 956 m 512 -77 q 594 -105 563 -77 q 625 -184 625 -134 q 586 -288 625 -248 q 467 -338 547 -328 l 462 -310 q 573 -233 564 -293 q 505 -254 550 -254 q 433 -232 460 -254 q 407 -167 407 -210 q 435 -101 407 -125 q 512 -77 463 -77 z "},"Ŋ":{"ha":999,"x_min":47,"x_max":960,"o":"m 840 979 q 960 983 918 979 l 960 956 q 893 945 914 954 q 864 912 872 936 q 857 836 857 888 l 857 89 q 832 -126 857 -50 q 765 -232 808 -203 q 655 -261 722 -261 q 539 -234 583 -261 q 494 -150 494 -206 q 524 -81 494 -106 q 602 -56 553 -56 q 676 -80 648 -56 q 705 -142 705 -103 q 689 -196 705 -171 q 642 -233 673 -220 q 670 -235 654 -235 q 780 -177 743 -235 q 823 -1 817 -119 q 785 -3 812 -1 l 183 761 l 183 147 q 192 71 183 95 q 222 39 200 47 q 295 28 245 30 l 295 0 q 168 4 245 4 q 47 0 90 4 l 47 28 q 114 39 93 30 q 143 71 135 47 q 151 147 151 95 l 151 836 q 143 912 151 888 q 114 945 135 936 q 47 956 93 954 l 47 983 q 168 979 90 979 q 295 983 243 979 l 825 332 l 825 836 q 816 912 825 888 q 785 945 808 936 q 712 956 762 954 l 712 983 q 840 979 762 979 z "},"Ñ":{"ha":1002,"x_min":48,"x_max":962,"o":"m 48 0 m 962 956 q 895 932 917 949 q 866 879 873 915 q 858 772 858 843 l 858 -3 q 825 -2 848 -2 q 787 -3 800 -2 l 184 761 l 184 228 q 193 107 184 145 q 229 52 201 69 q 319 28 257 34 l 319 0 q 169 4 266 4 q 48 0 92 4 l 48 28 q 115 51 94 34 q 145 104 137 68 q 153 211 153 140 l 153 836 q 145 912 153 888 q 116 945 137 936 q 48 956 95 954 l 48 983 q 169 979 92 979 q 289 983 240 979 l 826 321 l 826 755 q 818 876 826 838 q 781 932 809 914 q 691 956 753 949 l 691 983 q 842 979 745 979 q 962 983 919 979 l 962 956 m 404 1283 q 485 1270 450 1283 q 563 1231 519 1257 q 632 1196 604 1207 q 696 1185 661 1185 q 811 1260 770 1185 l 831 1253 q 763 1114 813 1161 q 646 1066 712 1066 q 566 1079 601 1066 q 486 1119 532 1093 q 417 1154 446 1142 q 353 1165 389 1165 q 238 1089 281 1165 l 218 1097 q 287 1236 237 1188 q 404 1283 338 1283 z "},"O":{"ha":1101,"x_min":60,"x_max":1042,"o":"m 551 1003 q 809 943 699 1003 q 981 770 920 884 q 1042 500 1042 656 q 979 229 1042 347 q 805 45 916 111 q 550 -20 693 -20 q 292 40 403 -20 q 120 213 181 100 q 60 484 60 327 q 122 755 60 637 q 296 938 184 873 q 551 1003 408 1003 m 545 978 q 411 916 469 978 q 322 743 353 854 q 290 489 290 632 q 326 235 290 345 q 421 65 361 125 q 555 5 482 5 q 690 67 632 5 q 780 240 748 130 q 811 494 811 351 q 776 749 811 639 q 680 918 741 859 q 545 978 619 978 z "},"Ó":{"ha":1101,"x_min":60,"x_max":1042,"o":"m 60 0 m 551 1003 q 809 943 699 1003 q 981 770 920 884 q 1042 500 1042 656 q 979 229 1042 347 q 805 45 916 111 q 550 -20 693 -20 q 292 40 403 -20 q 120 213 181 100 q 60 484 60 327 q 122 755 60 637 q 296 938 184 873 q 551 1003 408 1003 m 545 978 q 411 916 469 978 q 322 743 353 854 q 290 489 290 632 q 326 235 290 345 q 421 65 361 125 q 555 5 482 5 q 690 67 632 5 q 780 240 748 130 q 811 494 811 351 q 776 749 811 639 q 680 918 741 859 q 545 978 619 978 m 672 1297 q 715 1308 692 1308 q 756 1297 737 1308 q 785 1267 774 1286 q 792 1236 792 1253 q 780 1196 792 1215 q 746 1164 768 1177 q 704 1146 726 1153 q 638 1128 682 1139 q 457 1072 534 1101 l 447 1089 q 585 1221 515 1145 q 633 1269 616 1253 q 672 1297 650 1285 z "},"Ŏ":{"ha":1101,"x_min":60,"x_max":1042,"o":"m 60 0 m 551 1003 q 809 943 699 1003 q 981 770 920 884 q 1042 500 1042 656 q 979 229 1042 347 q 805 45 916 111 q 550 -20 693 -20 q 292 40 403 -20 q 120 213 181 100 q 60 484 60 327 q 122 755 60 637 q 296 938 184 873 q 551 1003 408 1003 m 545 978 q 411 916 469 978 q 322 743 353 854 q 290 489 290 632 q 326 235 290 345 q 421 65 361 125 q 555 5 482 5 q 690 67 632 5 q 780 240 748 130 q 811 494 811 351 q 776 749 811 639 q 680 918 741 859 q 545 978 619 978 m 850 1257 q 787 1167 828 1210 q 683 1098 745 1125 q 540 1070 620 1070 q 398 1098 460 1070 q 294 1167 335 1125 q 231 1257 252 1210 l 248 1271 q 366 1212 294 1236 q 540 1187 439 1187 q 833 1272 720 1187 l 850 1257 z "},"Ô":{"ha":1101,"x_min":60,"x_max":1042,"o":"m 60 0 m 551 1003 q 809 943 699 1003 q 981 770 920 884 q 1042 500 1042 656 q 979 229 1042 347 q 805 45 916 111 q 550 -20 693 -20 q 292 40 403 -20 q 120 213 181 100 q 60 484 60 327 q 122 755 60 637 q 296 938 184 873 q 551 1003 408 1003 m 545 978 q 411 916 469 978 q 322 743 353 854 q 290 489 290 632 q 326 235 290 345 q 421 65 361 125 q 555 5 482 5 q 690 67 632 5 q 780 240 748 130 q 811 494 811 351 q 776 749 811 639 q 680 918 741 859 q 545 978 619 978 m 562 1305 q 680 1185 604 1244 q 846 1089 756 1127 l 839 1069 q 661 1109 749 1084 q 521 1158 573 1134 q 405 1109 477 1134 q 258 1069 332 1084 l 252 1089 q 416 1185 340 1126 q 536 1305 492 1243 l 562 1305 z "},"Ö":{"ha":1101,"x_min":60,"x_max":1042,"o":"m 60 0 m 551 1003 q 809 943 699 1003 q 981 770 920 884 q 1042 500 1042 656 q 979 229 1042 347 q 805 45 916 111 q 550 -20 693 -20 q 292 40 403 -20 q 120 213 181 100 q 60 484 60 327 q 122 755 60 637 q 296 938 184 873 q 551 1003 408 1003 m 545 978 q 411 916 469 978 q 322 743 353 854 q 290 489 290 632 q 326 235 290 345 q 421 65 361 125 q 555 5 482 5 q 690 67 632 5 q 780 240 748 130 q 811 494 811 351 q 776 749 811 639 q 680 918 741 859 q 545 978 619 978 m 382 1274 q 434 1259 410 1274 q 472 1220 458 1244 q 487 1168 487 1196 q 472 1116 487 1140 q 434 1078 458 1093 q 382 1064 410 1064 q 330 1078 354 1064 q 292 1116 306 1092 q 277 1168 277 1140 q 292 1220 277 1196 q 330 1259 306 1244 q 382 1274 354 1274 m 715 1274 q 766 1259 742 1274 q 805 1220 791 1244 q 820 1168 820 1196 q 805 1116 820 1140 q 766 1078 791 1093 q 715 1064 742 1064 q 662 1078 686 1064 q 624 1116 638 1092 q 610 1168 610 1140 q 625 1220 610 1196 q 663 1259 639 1244 q 715 1274 686 1274 z "},"Ò":{"ha":1101,"x_min":60,"x_max":1042,"o":"m 60 0 m 551 1003 q 809 943 699 1003 q 981 770 920 884 q 1042 500 1042 656 q 979 229 1042 347 q 805 45 916 111 q 550 -20 693 -20 q 292 40 403 -20 q 120 213 181 100 q 60 484 60 327 q 122 755 60 637 q 296 938 184 873 q 551 1003 408 1003 m 545 978 q 411 916 469 978 q 322 743 353 854 q 290 489 290 632 q 326 235 290 345 q 421 65 361 125 q 555 5 482 5 q 690 67 632 5 q 780 240 748 130 q 811 494 811 351 q 776 749 811 639 q 680 918 741 859 q 545 978 619 978 m 416 1297 q 456 1269 438 1285 q 505 1219 474 1253 q 642 1089 576 1142 l 632 1072 q 451 1128 555 1101 q 385 1146 407 1139 q 343 1164 363 1153 q 309 1195 321 1177 q 296 1235 296 1214 q 304 1267 296 1253 q 333 1297 315 1286 q 374 1308 352 1308 q 416 1297 397 1308 z "},"Ő":{"ha":1101,"x_min":60,"x_max":1042,"o":"m 60 0 m 551 1003 q 809 943 699 1003 q 981 770 920 884 q 1042 500 1042 656 q 979 229 1042 347 q 805 45 916 111 q 550 -20 693 -20 q 292 40 403 -20 q 120 213 181 100 q 60 484 60 327 q 122 755 60 637 q 296 938 184 873 q 551 1003 408 1003 m 545 978 q 411 916 469 978 q 322 743 353 854 q 290 489 290 632 q 326 235 290 345 q 421 65 361 125 q 555 5 482 5 q 690 67 632 5 q 780 240 748 130 q 811 494 811 351 q 776 749 811 639 q 680 918 741 859 q 545 978 619 978 m 488 1298 q 538 1316 511 1316 q 602 1283 578 1316 q 616 1241 616 1263 q 578 1175 616 1203 q 534 1151 559 1162 q 467 1124 509 1140 q 338 1072 399 1100 l 326 1088 q 414 1207 366 1135 q 454 1263 439 1243 q 488 1298 470 1284 m 781 1298 q 832 1316 804 1316 q 895 1283 872 1316 q 909 1242 909 1263 q 871 1175 909 1204 q 827 1151 852 1162 q 761 1125 803 1140 q 632 1072 686 1097 l 618 1088 q 707 1207 659 1135 q 749 1265 734 1246 q 781 1298 763 1284 z "},"Ō":{"ha":1101,"x_min":60,"x_max":1042,"o":"m 60 0 m 551 1003 q 809 943 699 1003 q 981 770 920 884 q 1042 500 1042 656 q 979 229 1042 347 q 805 45 916 111 q 550 -20 693 -20 q 292 40 403 -20 q 120 213 181 100 q 60 484 60 327 q 122 755 60 637 q 296 938 184 873 q 551 1003 408 1003 m 545 978 q 411 916 469 978 q 322 743 353 854 q 290 489 290 632 q 326 235 290 345 q 421 65 361 125 q 555 5 482 5 q 690 67 632 5 q 780 240 748 130 q 811 494 811 351 q 776 749 811 639 q 680 918 741 859 q 545 978 619 978 m 271 1137 l 271 1173 l 826 1173 l 826 1137 l 271 1137 z "},"Ø":{"ha":1101,"x_min":60,"x_max":1042,"o":"m 848 919 q 991 748 941 855 q 1042 500 1042 642 q 979 229 1042 347 q 805 45 916 111 q 550 -20 693 -20 q 268 54 387 -20 l 152 -110 l 123 -90 l 239 74 q 106 243 153 138 q 60 484 60 347 q 122 755 60 637 q 296 938 184 873 q 551 1003 408 1003 q 821 937 706 1003 l 920 1082 l 947 1064 l 848 919 m 545 978 q 411 916 469 978 q 322 743 353 854 q 290 489 290 632 q 338 198 290 320 l 742 831 q 654 940 705 902 q 545 978 604 978 m 555 5 q 690 67 632 5 q 780 240 748 130 q 811 494 811 351 q 758 796 811 670 l 355 160 q 444 45 392 85 q 555 5 496 5 z "},"Õ":{"ha":1101,"x_min":60,"x_max":1042,"o":"m 60 0 m 551 1003 q 809 943 699 1003 q 981 770 920 884 q 1042 500 1042 656 q 979 229 1042 347 q 805 45 916 111 q 550 -20 693 -20 q 292 40 403 -20 q 120 213 181 100 q 60 484 60 327 q 122 755 60 637 q 296 938 184 873 q 551 1003 408 1003 m 545 978 q 411 916 469 978 q 322 743 353 854 q 290 489 290 632 q 326 235 290 345 q 421 65 361 125 q 555 5 482 5 q 690 67 632 5 q 780 240 748 130 q 811 494 811 351 q 776 749 811 639 q 680 918 741 859 q 545 978 619 978 m 427 1283 q 507 1270 472 1283 q 585 1231 542 1257 q 654 1196 626 1207 q 718 1185 683 1185 q 833 1260 792 1185 l 854 1253 q 785 1114 836 1161 q 669 1066 734 1066 q 589 1079 623 1066 q 509 1119 554 1093 q 439 1154 468 1142 q 376 1165 411 1165 q 260 1089 303 1165 l 241 1097 q 310 1236 259 1188 q 427 1283 360 1283 z "},"Œ":{"ha":1382,"x_min":60,"x_max":1320,"o":"m 1310 195 q 1320 0 1310 83 q 1013 4 1229 4 q 661 2 793 4 q 541 -20 601 -20 q 288 40 397 -20 q 119 213 179 100 q 60 484 60 327 q 121 755 60 637 q 292 938 182 873 q 543 1003 402 1003 q 664 981 604 1003 q 1013 979 798 979 q 1292 983 1209 979 q 1282 794 1282 878 q 1286 700 1282 734 l 1255 700 q 1218 849 1242 794 q 1155 928 1194 904 q 1060 951 1117 951 l 1031 951 q 964 943 985 951 q 935 912 943 935 q 926 836 926 888 l 926 509 l 984 509 q 1054 531 1028 509 q 1092 583 1080 553 q 1112 656 1103 613 l 1116 672 l 1147 672 q 1143 554 1143 610 l 1143 494 q 1152 317 1143 431 l 1120 317 q 1099 402 1111 369 q 1061 458 1088 435 q 984 481 1034 481 l 926 481 l 926 147 q 935 72 926 95 q 964 40 943 48 q 1031 32 985 32 l 1071 32 q 1213 96 1160 32 q 1282 311 1266 160 l 1314 311 q 1310 195 1310 267 m 706 844 q 681 923 706 893 q 617 965 655 953 q 537 978 578 978 q 407 916 463 978 q 321 743 351 854 q 290 489 290 632 q 324 235 290 345 q 417 65 358 125 q 547 5 475 5 q 620 19 583 5 q 681 61 656 33 q 706 131 706 89 l 706 844 z "},"P":{"ha":890,"x_min":47,"x_max":861,"o":"m 372 155 q 383 74 372 100 q 425 40 395 49 q 520 31 454 31 l 520 0 q 267 4 406 4 q 47 0 168 4 l 47 28 q 114 39 94 30 q 143 71 135 47 q 151 147 151 95 l 151 836 q 143 912 151 888 q 114 945 135 936 q 47 956 93 954 l 47 983 q 258 979 117 979 q 414 981 283 979 l 476 982 q 688 948 602 982 q 818 852 774 913 q 861 708 861 790 q 822 561 861 631 q 691 444 784 491 q 446 397 599 397 l 372 397 l 372 155 m 458 956 q 403 946 421 956 q 378 911 385 936 q 372 836 372 886 l 372 425 l 431 425 q 587 497 545 425 q 630 693 630 570 q 590 892 630 828 q 458 956 550 956 z "},"Þ":{"ha":862,"x_min":47,"x_max":834,"o":"m 372 147 q 379 71 372 95 q 408 39 387 47 q 476 28 429 30 l 476 0 q 266 4 401 4 q 47 0 117 4 l 47 28 q 114 39 94 30 q 143 71 135 47 q 151 147 151 95 l 151 836 q 143 912 151 888 q 114 945 135 936 q 47 956 93 954 l 47 983 q 266 979 117 979 q 476 983 401 979 l 476 956 q 408 945 429 954 q 379 912 387 936 q 372 836 372 888 l 372 787 l 450 788 q 738 719 641 788 q 834 522 834 650 q 797 363 834 435 q 666 248 759 292 q 419 203 574 203 l 372 203 l 372 147 m 372 761 l 372 231 l 405 231 q 561 306 518 231 q 604 509 604 380 q 560 699 604 637 q 415 762 516 762 l 372 761 z "},"Q":{"ha":1101,"x_min":60,"x_max":1086,"o":"m 1086 9 q 989 -207 1063 -148 q 913 -247 959 -232 q 810 -261 867 -261 q 706 -249 758 -261 q 606 -218 654 -237 q 484 -168 559 -200 q 355 -114 385 -125 q 321 -104 330 -105 q 205 -134 260 -134 q 158 -124 176 -134 q 141 -97 141 -115 q 216 -60 141 -60 q 321 -79 266 -60 q 427 -41 362 -68 q 486 -16 455 -28 q 260 59 356 -3 q 112 230 164 122 q 60 484 60 338 q 122 755 60 637 q 296 938 184 873 q 551 1003 408 1003 q 809 943 699 1003 q 981 770 920 884 q 1042 500 1042 656 q 983 236 1042 352 q 819 54 924 121 q 578 -19 713 -13 q 520 -31 546 -23 q 457 -55 494 -39 q 370 -86 408 -75 l 468 -94 q 738 -111 659 -111 q 842 -104 794 -111 q 978 -67 928 -94 q 1061 17 1028 -39 l 1086 9 m 290 489 q 326 235 290 345 q 421 65 361 125 q 555 5 482 5 q 690 67 632 5 q 780 240 748 130 q 811 494 811 351 q 776 749 811 639 q 680 918 741 859 q 545 978 619 978 q 411 916 469 978 q 322 743 353 854 q 290 489 290 632 z "},"R":{"ha":961,"x_min":47,"x_max":988,"o":"m 988 61 q 908 -1 951 18 q 804 -20 865 -20 q 677 14 724 -20 q 616 131 631 48 l 591 269 q 566 378 580 337 q 528 443 553 418 q 462 467 503 467 l 372 467 l 372 147 q 379 71 372 95 q 408 39 387 47 q 476 28 429 30 l 476 0 q 266 4 401 4 q 47 0 117 4 l 47 28 q 114 39 94 30 q 143 71 135 47 q 151 147 151 95 l 151 836 q 143 912 151 888 q 114 945 135 936 q 47 956 93 954 l 47 983 q 258 979 117 979 q 414 981 283 979 l 476 982 q 764 919 667 982 q 861 741 861 857 q 831 623 861 678 q 733 526 802 567 q 549 472 663 485 l 549 472 q 688 444 633 465 q 773 385 742 422 q 816 289 804 347 l 847 146 q 873 68 859 90 q 913 46 887 46 q 942 54 930 46 q 969 78 955 61 l 988 61 m 458 956 q 403 946 421 956 q 378 911 385 936 q 372 836 372 886 l 372 494 l 431 494 q 553 524 509 494 q 613 604 597 554 q 630 725 630 654 q 590 897 630 839 q 458 956 549 956 z "},"Ŕ":{"ha":961,"x_min":47,"x_max":988,"o":"m 47 0 m 988 61 q 908 -1 951 18 q 804 -20 865 -20 q 677 14 724 -20 q 616 131 631 48 l 591 269 q 566 378 580 337 q 528 443 553 418 q 462 467 503 467 l 372 467 l 372 147 q 379 71 372 95 q 408 39 387 47 q 476 28 429 30 l 476 0 q 266 4 401 4 q 47 0 117 4 l 47 28 q 114 39 94 30 q 143 71 135 47 q 151 147 151 95 l 151 836 q 143 912 151 888 q 114 945 135 936 q 47 956 93 954 l 47 983 q 258 979 117 979 q 414 981 283 979 l 476 982 q 764 919 667 982 q 861 741 861 857 q 831 623 861 678 q 733 526 802 567 q 549 472 663 485 l 549 472 q 688 444 633 465 q 773 385 742 422 q 816 289 804 347 l 847 146 q 873 68 859 90 q 913 46 887 46 q 942 54 930 46 q 969 78 955 61 l 988 61 m 458 956 q 403 946 421 956 q 378 911 385 936 q 372 836 372 886 l 372 494 l 431 494 q 553 524 509 494 q 613 604 597 554 q 630 725 630 654 q 590 897 630 839 q 458 956 549 956 m 573 1297 q 616 1308 593 1308 q 657 1297 638 1308 q 686 1267 675 1286 q 693 1236 693 1253 q 681 1196 693 1215 q 647 1164 669 1177 q 605 1146 627 1153 q 539 1128 583 1139 q 358 1072 435 1101 l 348 1089 q 486 1221 416 1145 q 534 1269 517 1253 q 573 1297 551 1285 z "},"Ř":{"ha":961,"x_min":47,"x_max":988,"o":"m 47 0 m 988 61 q 908 -1 951 18 q 804 -20 865 -20 q 677 14 724 -20 q 616 131 631 48 l 591 269 q 566 378 580 337 q 528 443 553 418 q 462 467 503 467 l 372 467 l 372 147 q 379 71 372 95 q 408 39 387 47 q 476 28 429 30 l 476 0 q 266 4 401 4 q 47 0 117 4 l 47 28 q 114 39 94 30 q 143 71 135 47 q 151 147 151 95 l 151 836 q 143 912 151 888 q 114 945 135 936 q 47 956 93 954 l 47 983 q 258 979 117 979 q 414 981 283 979 l 476 982 q 764 919 667 982 q 861 741 861 857 q 831 623 861 678 q 733 526 802 567 q 549 472 663 485 l 549 472 q 688 444 633 465 q 773 385 742 422 q 816 289 804 347 l 847 146 q 873 68 859 90 q 913 46 887 46 q 942 54 930 46 q 969 78 955 61 l 988 61 m 458 956 q 403 946 421 956 q 378 911 385 936 q 372 836 372 886 l 372 494 l 431 494 q 553 524 509 494 q 613 604 597 554 q 630 725 630 654 q 590 897 630 839 q 458 956 549 956 m 743 1282 q 578 1187 654 1245 q 458 1066 503 1128 l 433 1066 q 314 1186 391 1128 q 149 1282 238 1244 l 155 1303 q 333 1262 245 1287 q 473 1213 421 1238 q 590 1262 517 1238 q 736 1303 663 1287 l 743 1282 z "},"Ŗ":{"ha":961,"x_min":47,"x_max":988,"o":"m 47 0 m 988 61 q 908 -1 951 18 q 804 -20 865 -20 q 677 14 724 -20 q 616 131 631 48 l 591 269 q 566 378 580 337 q 528 443 553 418 q 462 467 503 467 l 372 467 l 372 147 q 379 71 372 95 q 408 39 387 47 q 476 28 429 30 l 476 0 q 266 4 401 4 q 47 0 117 4 l 47 28 q 114 39 94 30 q 143 71 135 47 q 151 147 151 95 l 151 836 q 143 912 151 888 q 114 945 135 936 q 47 956 93 954 l 47 983 q 258 979 117 979 q 414 981 283 979 l 476 982 q 764 919 667 982 q 861 741 861 857 q 831 623 861 678 q 733 526 802 567 q 549 472 663 485 l 549 472 q 688 444 633 465 q 773 385 742 422 q 816 289 804 347 l 847 146 q 873 68 859 90 q 913 46 887 46 q 942 54 930 46 q 969 78 955 61 l 988 61 m 458 956 q 403 946 421 956 q 378 911 385 936 q 372 836 372 886 l 372 494 l 431 494 q 553 524 509 494 q 613 604 597 554 q 630 725 630 654 q 590 897 630 839 q 458 956 549 956 m 503 -77 q 585 -105 553 -77 q 616 -184 616 -134 q 577 -288 616 -248 q 458 -338 538 -328 l 452 -310 q 564 -233 554 -293 q 496 -254 541 -254 q 424 -232 450 -254 q 397 -167 397 -210 q 426 -101 397 -125 q 503 -77 454 -77 z "},"S":{"ha":811,"x_min":76,"x_max":753,"o":"m 394 1001 q 510 987 467 1001 q 597 947 553 973 q 644 928 629 928 q 663 942 656 928 q 675 989 670 956 l 707 989 q 699 672 699 903 l 667 672 q 634 815 663 748 q 554 925 606 883 q 431 968 502 968 q 352 950 387 968 q 298 901 317 933 q 279 826 279 869 q 300 741 279 777 q 360 675 322 705 q 479 591 399 644 q 519 564 502 576 q 647 470 600 511 q 724 376 694 429 q 753 251 753 322 q 707 102 753 163 q 583 11 661 41 q 409 -20 505 -20 q 281 -6 332 -20 q 186 32 230 8 q 138 52 155 52 q 119 37 125 52 q 108 -9 112 22 l 76 -9 q 81 366 81 77 l 113 366 q 182 114 123 210 q 366 17 242 17 q 455 35 416 17 q 516 87 494 52 q 538 172 538 122 q 513 270 538 227 q 445 349 488 313 q 330 431 401 385 q 197 524 247 484 q 115 620 147 564 q 83 747 83 675 q 125 888 83 831 q 239 973 168 945 q 394 1001 309 1001 z "},"Ś":{"ha":811,"x_min":76,"x_max":753,"o":"m 76 0 m 394 1001 q 510 987 467 1001 q 597 947 553 973 q 644 928 629 928 q 663 942 656 928 q 675 989 670 956 l 707 989 q 699 672 699 903 l 667 672 q 634 815 663 748 q 554 925 606 883 q 431 968 502 968 q 352 950 387 968 q 298 901 317 933 q 279 826 279 869 q 300 741 279 777 q 360 675 322 705 q 479 591 399 644 q 519 564 502 576 q 647 470 600 511 q 724 376 694 429 q 753 251 753 322 q 707 102 753 163 q 583 11 661 41 q 409 -20 505 -20 q 281 -6 332 -20 q 186 32 230 8 q 138 52 155 52 q 119 37 125 52 q 108 -9 112 22 l 76 -9 q 81 366 81 77 l 113 366 q 182 114 123 210 q 366 17 242 17 q 455 35 416 17 q 516 87 494 52 q 538 172 538 122 q 513 270 538 227 q 445 349 488 313 q 330 431 401 385 q 197 524 247 484 q 115 620 147 564 q 83 747 83 675 q 125 888 83 831 q 239 973 168 945 q 394 1001 309 1001 m 537 1297 q 581 1308 557 1308 q 621 1297 602 1308 q 650 1267 640 1286 q 657 1236 657 1253 q 645 1196 657 1215 q 611 1164 633 1177 q 569 1146 591 1153 q 503 1128 547 1139 q 322 1072 399 1101 l 312 1089 q 450 1221 380 1145 q 498 1269 481 1253 q 537 1297 515 1285 z "},"Š":{"ha":811,"x_min":76,"x_max":753,"o":"m 76 0 m 394 1001 q 510 987 467 1001 q 597 947 553 973 q 644 928 629 928 q 663 942 656 928 q 675 989 670 956 l 707 989 q 699 672 699 903 l 667 672 q 634 815 663 748 q 554 925 606 883 q 431 968 502 968 q 352 950 387 968 q 298 901 317 933 q 279 826 279 869 q 300 741 279 777 q 360 675 322 705 q 479 591 399 644 q 519 564 502 576 q 647 470 600 511 q 724 376 694 429 q 753 251 753 322 q 707 102 753 163 q 583 11 661 41 q 409 -20 505 -20 q 281 -6 332 -20 q 186 32 230 8 q 138 52 155 52 q 119 37 125 52 q 108 -9 112 22 l 76 -9 q 81 366 81 77 l 113 366 q 182 114 123 210 q 366 17 242 17 q 455 35 416 17 q 516 87 494 52 q 538 172 538 122 q 513 270 538 227 q 445 349 488 313 q 330 431 401 385 q 197 524 247 484 q 115 620 147 564 q 83 747 83 675 q 125 888 83 831 q 239 973 168 945 q 394 1001 309 1001 m 707 1282 q 542 1187 618 1245 q 422 1066 467 1128 l 397 1066 q 278 1186 355 1128 q 113 1282 202 1244 l 119 1303 q 297 1262 210 1287 q 437 1213 385 1238 q 554 1262 481 1238 q 700 1303 627 1287 l 707 1282 z "},"Ş":{"ha":811,"x_min":76,"x_max":753,"o":"m 753 251 q 710 106 753 166 q 594 15 667 46 q 429 -20 520 -16 l 406 -90 q 513 -74 454 -74 q 590 -94 563 -74 q 617 -148 617 -114 q 555 -233 617 -204 q 397 -261 493 -261 q 269 -244 318 -261 l 275 -219 q 345 -225 316 -225 q 434 -211 396 -225 q 471 -168 471 -197 q 408 -132 471 -132 q 353 -142 376 -132 l 391 -20 q 274 -4 321 -18 q 186 32 227 9 q 138 52 155 52 q 119 37 125 52 q 108 -9 112 22 l 76 -9 q 81 366 81 77 l 113 366 q 182 114 123 210 q 366 17 242 17 q 455 35 416 17 q 516 87 494 52 q 538 172 538 122 q 513 270 538 227 q 445 349 488 313 q 330 431 401 385 q 197 524 247 484 q 115 620 147 564 q 83 747 83 675 q 125 888 83 831 q 239 973 168 945 q 394 1001 309 1001 q 510 987 467 1001 q 597 947 553 973 q 644 928 629 928 q 663 942 656 928 q 675 989 670 956 l 707 989 q 699 672 699 903 l 667 672 q 634 815 663 748 q 554 925 606 883 q 431 968 502 968 q 352 950 387 968 q 298 901 317 933 q 279 826 279 869 q 300 741 279 777 q 360 675 322 705 q 479 591 399 644 q 519 564 502 576 q 647 470 600 511 q 724 376 694 429 q 753 251 753 322 z "},"Ŝ":{"ha":811,"x_min":76,"x_max":753,"o":"m 76 0 m 394 1001 q 510 987 467 1001 q 597 947 553 973 q 644 928 629 928 q 663 942 656 928 q 675 989 670 956 l 707 989 q 699 672 699 903 l 667 672 q 634 815 663 748 q 554 925 606 883 q 431 968 502 968 q 352 950 387 968 q 298 901 317 933 q 279 826 279 869 q 300 741 279 777 q 360 675 322 705 q 479 591 399 644 q 519 564 502 576 q 647 470 600 511 q 724 376 694 429 q 753 251 753 322 q 707 102 753 163 q 583 11 661 41 q 409 -20 505 -20 q 281 -6 332 -20 q 186 32 230 8 q 138 52 155 52 q 119 37 125 52 q 108 -9 112 22 l 76 -9 q 81 366 81 77 l 113 366 q 182 114 123 210 q 366 17 242 17 q 455 35 416 17 q 516 87 494 52 q 538 172 538 122 q 513 270 538 227 q 445 349 488 313 q 330 431 401 385 q 197 524 247 484 q 115 620 147 564 q 83 747 83 675 q 125 888 83 831 q 239 973 168 945 q 394 1001 309 1001 m 427 1305 q 545 1185 469 1244 q 711 1089 621 1127 l 704 1069 q 526 1109 614 1084 q 386 1158 438 1134 q 270 1109 342 1134 q 123 1069 197 1084 l 117 1089 q 281 1185 205 1126 q 401 1305 357 1243 l 427 1305 z "},"Ș":{"ha":811,"x_min":76,"x_max":753,"o":"m 76 0 m 394 1001 q 510 987 467 1001 q 597 947 553 973 q 644 928 629 928 q 663 942 656 928 q 675 989 670 956 l 707 989 q 699 672 699 903 l 667 672 q 634 815 663 748 q 554 925 606 883 q 431 968 502 968 q 352 950 387 968 q 298 901 317 933 q 279 826 279 869 q 300 741 279 777 q 360 675 322 705 q 479 591 399 644 q 519 564 502 576 q 647 470 600 511 q 724 376 694 429 q 753 251 753 322 q 707 102 753 163 q 583 11 661 41 q 409 -20 505 -20 q 281 -6 332 -20 q 186 32 230 8 q 138 52 155 52 q 119 37 125 52 q 108 -9 112 22 l 76 -9 q 81 366 81 77 l 113 366 q 182 114 123 210 q 366 17 242 17 q 455 35 416 17 q 516 87 494 52 q 538 172 538 122 q 513 270 538 227 q 445 349 488 313 q 330 431 401 385 q 197 524 247 484 q 115 620 147 564 q 83 747 83 675 q 125 888 83 831 q 239 973 168 945 q 394 1001 309 1001 m 415 -77 q 497 -105 466 -77 q 528 -184 528 -134 q 489 -288 528 -248 q 370 -338 450 -328 l 365 -310 q 476 -233 467 -293 q 408 -254 453 -254 q 336 -232 363 -254 q 310 -167 310 -210 q 338 -101 310 -125 q 415 -77 366 -77 z "},"ẞ":{"ha":1050,"x_min":12,"x_max":1015,"o":"m 574 1003 q 775 974 682 1003 q 941 896 869 945 l 700 564 q 935 453 854 529 q 1015 271 1015 377 q 966 120 1015 186 q 832 17 918 54 q 640 -20 746 -20 q 490 7 547 -20 q 430 60 450 26 q 410 138 410 94 q 424 200 410 174 q 462 241 437 227 q 516 256 486 256 q 589 225 561 256 q 617 146 617 195 q 594 70 617 101 q 534 24 570 39 q 597 10 553 10 q 693 39 651 10 q 760 123 736 68 q 785 254 785 178 q 481 599 785 515 l 724 954 q 668 972 703 966 q 601 978 633 978 q 462 944 519 978 q 371 827 404 911 q 337 600 337 744 l 337 147 q 341 74 337 98 q 358 39 346 50 q 397 28 371 28 l 397 0 q 338 1 380 0 q 211 4 277 4 q 12 0 83 4 l 12 28 q 80 39 58 30 q 109 71 101 47 q 117 147 117 95 l 117 515 q 235 883 117 763 q 574 1003 353 1003 z "},"T":{"ha":928,"x_min":35,"x_max":892,"o":"m 892 983 q 882 747 882 854 q 886 642 882 680 l 854 642 q 798 826 831 758 q 718 922 765 893 q 605 951 671 951 l 574 951 l 574 159 q 586 74 574 100 q 628 38 597 47 q 723 28 658 28 l 723 0 q 458 4 605 4 q 205 0 315 4 l 205 28 q 300 38 270 28 q 342 74 330 47 q 353 159 353 100 l 353 951 l 323 951 q 209 922 256 951 q 130 826 163 893 q 73 642 96 758 l 41 642 q 45 747 45 680 q 35 983 45 851 q 465 979 161 979 q 892 983 767 979 z "},"Ŧ":{"ha":931,"x_min":37,"x_max":894,"o":"m 894 983 q 884 747 884 854 q 888 642 884 680 l 856 642 q 800 826 833 758 q 720 922 766 893 q 606 951 673 951 l 576 951 l 576 509 l 759 509 l 759 481 l 576 481 l 576 159 q 587 74 576 100 q 629 38 599 47 q 724 28 659 28 l 724 0 q 460 4 606 4 q 206 0 316 4 l 206 28 q 301 38 271 28 q 343 74 332 47 q 355 159 355 100 l 355 481 l 159 481 l 159 509 l 355 509 l 355 951 l 324 951 q 211 922 257 951 q 131 826 164 893 q 74 642 98 758 l 42 642 q 46 747 46 680 q 37 983 46 851 q 466 979 162 979 q 894 983 768 979 z "},"Ť":{"ha":928,"x_min":35,"x_max":892,"o":"m 35 0 m 892 983 q 882 747 882 854 q 886 642 882 680 l 854 642 q 798 826 831 758 q 718 922 765 893 q 605 951 671 951 l 574 951 l 574 159 q 586 74 574 100 q 628 38 597 47 q 723 28 658 28 l 723 0 q 458 4 605 4 q 205 0 315 4 l 205 28 q 300 38 270 28 q 342 74 330 47 q 353 159 353 100 l 353 951 l 323 951 q 209 922 256 951 q 130 826 163 893 q 73 642 96 758 l 41 642 q 45 747 45 680 q 35 983 45 851 q 465 979 161 979 q 892 983 767 979 m 758 1282 q 593 1187 669 1245 q 473 1066 517 1128 l 448 1066 q 329 1186 406 1128 q 163 1282 253 1244 l 170 1303 q 348 1262 260 1287 q 488 1213 436 1238 q 605 1262 532 1238 q 751 1303 677 1287 l 758 1282 z "},"Ţ":{"ha":928,"x_min":35,"x_max":892,"o":"m 892 983 q 882 747 882 854 q 886 642 882 680 l 854 642 q 798 826 831 758 q 718 922 765 893 q 605 951 671 951 l 574 951 l 574 159 q 586 74 574 100 q 628 38 597 47 q 723 28 658 28 l 723 0 q 478 4 613 4 l 448 -90 q 555 -74 496 -74 q 632 -94 605 -74 q 659 -148 659 -114 q 597 -233 659 -204 q 439 -261 535 -261 q 311 -244 360 -261 l 317 -219 q 387 -225 358 -225 q 476 -211 438 -225 q 513 -168 513 -197 q 450 -132 513 -132 q 395 -142 418 -132 l 441 4 q 205 0 308 4 l 205 28 q 300 38 270 28 q 342 74 330 47 q 353 159 353 100 l 353 951 l 323 951 q 209 922 256 951 q 130 826 163 893 q 73 642 96 758 l 41 642 q 45 747 45 680 q 35 983 45 851 q 465 979 161 979 q 892 983 767 979 z "},"Ț":{"ha":928,"x_min":35,"x_max":892,"o":"m 35 0 m 892 983 q 882 747 882 854 q 886 642 882 680 l 854 642 q 798 826 831 758 q 718 922 765 893 q 605 951 671 951 l 574 951 l 574 159 q 586 74 574 100 q 628 38 597 47 q 723 28 658 28 l 723 0 q 458 4 605 4 q 205 0 315 4 l 205 28 q 300 38 270 28 q 342 74 330 47 q 353 159 353 100 l 353 951 l 323 951 q 209 922 256 951 q 130 826 163 893 q 73 642 96 758 l 41 642 q 45 747 45 680 q 35 983 45 851 q 465 979 161 979 q 892 983 767 979 m 457 -77 q 539 -105 508 -77 q 570 -184 570 -134 q 531 -288 570 -248 q 412 -338 492 -328 l 407 -310 q 518 -233 509 -293 q 450 -254 495 -254 q 378 -232 405 -254 q 352 -167 352 -210 q 380 -101 352 -125 q 457 -77 408 -77 z "},"U":{"ha":956,"x_min":26,"x_max":931,"o":"m 931 956 q 865 932 886 949 q 835 879 843 915 q 827 772 827 843 l 827 404 q 814 234 827 307 q 770 110 802 161 q 663 14 734 48 q 490 -20 593 -20 q 239 51 328 -20 q 172 133 195 86 q 139 242 148 179 q 130 400 130 305 l 130 836 q 122 912 130 888 q 94 945 115 936 q 26 956 73 954 l 26 983 q 243 979 97 979 q 463 983 386 979 l 463 956 q 390 945 413 954 q 359 912 368 936 q 351 836 351 888 l 351 312 q 368 154 351 215 q 428 61 386 92 q 543 29 470 29 q 738 123 681 29 q 795 389 795 216 l 795 755 q 786 875 795 836 q 748 932 776 914 q 661 956 720 949 l 661 983 q 810 979 715 979 q 931 983 888 979 l 931 956 z "},"Ú":{"ha":956,"x_min":26,"x_max":931,"o":"m 26 0 m 931 956 q 865 932 886 949 q 835 879 843 915 q 827 772 827 843 l 827 404 q 814 234 827 307 q 770 110 802 161 q 663 14 734 48 q 490 -20 593 -20 q 239 51 328 -20 q 172 133 195 86 q 139 242 148 179 q 130 400 130 305 l 130 836 q 122 912 130 888 q 94 945 115 936 q 26 956 73 954 l 26 983 q 243 979 97 979 q 463 983 386 979 l 463 956 q 390 945 413 954 q 359 912 368 936 q 351 836 351 888 l 351 312 q 368 154 351 215 q 428 61 386 92 q 543 29 470 29 q 738 123 681 29 q 795 389 795 216 l 795 755 q 786 875 795 836 q 748 932 776 914 q 661 956 720 949 l 661 983 q 810 979 715 979 q 931 983 888 979 l 931 956 m 620 1297 q 663 1308 640 1308 q 704 1297 685 1308 q 732 1267 722 1286 q 740 1236 740 1253 q 728 1196 740 1215 q 694 1164 715 1177 q 652 1146 673 1153 q 586 1128 630 1139 q 405 1072 482 1101 l 395 1089 q 533 1221 463 1145 q 581 1269 564 1253 q 620 1297 598 1285 z "},"Ŭ":{"ha":956,"x_min":26,"x_max":931,"o":"m 26 0 m 931 956 q 865 932 886 949 q 835 879 843 915 q 827 772 827 843 l 827 404 q 814 234 827 307 q 770 110 802 161 q 663 14 734 48 q 490 -20 593 -20 q 239 51 328 -20 q 172 133 195 86 q 139 242 148 179 q 130 400 130 305 l 130 836 q 122 912 130 888 q 94 945 115 936 q 26 956 73 954 l 26 983 q 243 979 97 979 q 463 983 386 979 l 463 956 q 390 945 413 954 q 359 912 368 936 q 351 836 351 888 l 351 312 q 368 154 351 215 q 428 61 386 92 q 543 29 470 29 q 738 123 681 29 q 795 389 795 216 l 795 755 q 786 875 795 836 q 748 932 776 914 q 661 956 720 949 l 661 983 q 810 979 715 979 q 931 983 888 979 l 931 956 m 798 1257 q 734 1167 776 1210 q 630 1098 693 1125 q 488 1070 568 1070 q 346 1098 408 1070 q 241 1167 283 1125 q 178 1257 200 1210 l 195 1271 q 314 1212 241 1236 q 488 1187 387 1187 q 781 1272 668 1187 l 798 1257 z "},"Û":{"ha":956,"x_min":26,"x_max":931,"o":"m 26 0 m 931 956 q 865 932 886 949 q 835 879 843 915 q 827 772 827 843 l 827 404 q 814 234 827 307 q 770 110 802 161 q 663 14 734 48 q 490 -20 593 -20 q 239 51 328 -20 q 172 133 195 86 q 139 242 148 179 q 130 400 130 305 l 130 836 q 122 912 130 888 q 94 945 115 936 q 26 956 73 954 l 26 983 q 243 979 97 979 q 463 983 386 979 l 463 956 q 390 945 413 954 q 359 912 368 936 q 351 836 351 888 l 351 312 q 368 154 351 215 q 428 61 386 92 q 543 29 470 29 q 738 123 681 29 q 795 389 795 216 l 795 755 q 786 875 795 836 q 748 932 776 914 q 661 956 720 949 l 661 983 q 810 979 715 979 q 931 983 888 979 l 931 956 m 509 1305 q 628 1185 552 1244 q 793 1089 704 1127 l 787 1069 q 609 1109 697 1084 q 469 1158 521 1134 q 352 1109 425 1134 q 206 1069 279 1084 l 199 1089 q 364 1185 288 1126 q 484 1305 439 1243 l 509 1305 z "},"Ü":{"ha":956,"x_min":26,"x_max":931,"o":"m 26 0 m 931 956 q 865 932 886 949 q 835 879 843 915 q 827 772 827 843 l 827 404 q 814 234 827 307 q 770 110 802 161 q 663 14 734 48 q 490 -20 593 -20 q 239 51 328 -20 q 172 133 195 86 q 139 242 148 179 q 130 400 130 305 l 130 836 q 122 912 130 888 q 94 945 115 936 q 26 956 73 954 l 26 983 q 243 979 97 979 q 463 983 386 979 l 463 956 q 390 945 413 954 q 359 912 368 936 q 351 836 351 888 l 351 312 q 368 154 351 215 q 428 61 386 92 q 543 29 470 29 q 738 123 681 29 q 795 389 795 216 l 795 755 q 786 875 795 836 q 748 932 776 914 q 661 956 720 949 l 661 983 q 810 979 715 979 q 931 983 888 979 l 931 956 m 330 1274 q 381 1259 357 1274 q 420 1220 406 1244 q 435 1168 435 1196 q 420 1116 435 1140 q 381 1078 406 1093 q 330 1064 357 1064 q 278 1078 302 1064 q 239 1116 254 1092 q 225 1168 225 1140 q 239 1220 225 1196 q 278 1259 254 1244 q 330 1274 302 1274 m 663 1274 q 714 1259 690 1274 q 753 1220 739 1244 q 768 1168 768 1196 q 753 1116 768 1140 q 714 1078 739 1093 q 663 1064 690 1064 q 610 1078 634 1064 q 572 1116 586 1092 q 558 1168 558 1140 q 572 1220 558 1196 q 610 1259 587 1244 q 663 1274 634 1274 z "},"Ù":{"ha":956,"x_min":26,"x_max":931,"o":"m 26 0 m 931 956 q 865 932 886 949 q 835 879 843 915 q 827 772 827 843 l 827 404 q 814 234 827 307 q 770 110 802 161 q 663 14 734 48 q 490 -20 593 -20 q 239 51 328 -20 q 172 133 195 86 q 139 242 148 179 q 130 400 130 305 l 130 836 q 122 912 130 888 q 94 945 115 936 q 26 956 73 954 l 26 983 q 243 979 97 979 q 463 983 386 979 l 463 956 q 390 945 413 954 q 359 912 368 936 q 351 836 351 888 l 351 312 q 368 154 351 215 q 428 61 386 92 q 543 29 470 29 q 738 123 681 29 q 795 389 795 216 l 795 755 q 786 875 795 836 q 748 932 776 914 q 661 956 720 949 l 661 983 q 810 979 715 979 q 931 983 888 979 l 931 956 m 364 1297 q 404 1269 386 1285 q 453 1219 422 1253 q 589 1089 524 1142 l 580 1072 q 399 1128 503 1101 q 333 1146 355 1139 q 291 1164 311 1153 q 256 1195 269 1177 q 244 1235 244 1214 q 252 1267 244 1253 q 281 1297 262 1286 q 321 1308 300 1308 q 364 1297 345 1308 z "},"Ű":{"ha":956,"x_min":26,"x_max":931,"o":"m 26 0 m 931 956 q 865 932 886 949 q 835 879 843 915 q 827 772 827 843 l 827 404 q 814 234 827 307 q 770 110 802 161 q 663 14 734 48 q 490 -20 593 -20 q 239 51 328 -20 q 172 133 195 86 q 139 242 148 179 q 130 400 130 305 l 130 836 q 122 912 130 888 q 94 945 115 936 q 26 956 73 954 l 26 983 q 243 979 97 979 q 463 983 386 979 l 463 956 q 390 945 413 954 q 359 912 368 936 q 351 836 351 888 l 351 312 q 368 154 351 215 q 428 61 386 92 q 543 29 470 29 q 738 123 681 29 q 795 389 795 216 l 795 755 q 786 875 795 836 q 748 932 776 914 q 661 956 720 949 l 661 983 q 810 979 715 979 q 931 983 888 979 l 931 956 m 435 1298 q 486 1316 459 1316 q 549 1283 526 1316 q 564 1241 564 1263 q 526 1175 564 1203 q 482 1151 507 1162 q 415 1124 457 1140 q 286 1072 347 1100 l 273 1088 q 362 1207 314 1135 q 402 1263 387 1243 q 435 1298 418 1284 m 729 1298 q 780 1316 751 1316 q 843 1283 820 1316 q 857 1242 857 1263 q 819 1175 857 1204 q 775 1151 800 1162 q 709 1125 751 1140 q 580 1072 634 1097 l 566 1088 q 655 1207 607 1135 q 696 1265 682 1246 q 729 1298 711 1284 z "},"Ū":{"ha":956,"x_min":26,"x_max":931,"o":"m 26 0 m 931 956 q 865 932 886 949 q 835 879 843 915 q 827 772 827 843 l 827 404 q 814 234 827 307 q 770 110 802 161 q 663 14 734 48 q 490 -20 593 -20 q 239 51 328 -20 q 172 133 195 86 q 139 242 148 179 q 130 400 130 305 l 130 836 q 122 912 130 888 q 94 945 115 936 q 26 956 73 954 l 26 983 q 243 979 97 979 q 463 983 386 979 l 463 956 q 390 945 413 954 q 359 912 368 936 q 351 836 351 888 l 351 312 q 368 154 351 215 q 428 61 386 92 q 543 29 470 29 q 738 123 681 29 q 795 389 795 216 l 795 755 q 786 875 795 836 q 748 932 776 914 q 661 956 720 949 l 661 983 q 810 979 715 979 q 931 983 888 979 l 931 956 m 218 1137 l 218 1173 l 774 1173 l 774 1137 l 218 1137 z "},"Ų":{"ha":956,"x_min":26,"x_max":931,"o":"m 810 979 q 931 983 888 979 l 931 956 q 865 932 886 949 q 835 879 843 915 q 827 772 827 843 l 827 404 q 814 234 827 307 q 770 110 802 161 q 613 -4 720 26 q 517 -62 548 -28 q 486 -128 486 -96 q 543 -184 486 -184 q 592 -174 567 -184 q 632 -147 617 -163 l 652 -167 q 569 -239 614 -216 q 461 -261 524 -261 q 368 -236 401 -261 q 335 -166 335 -211 q 377 -83 335 -121 q 496 -20 418 -46 l 490 -20 q 239 51 328 -20 q 172 133 195 86 q 139 242 148 179 q 130 400 130 305 l 130 836 q 122 912 130 888 q 94 945 115 936 q 26 956 73 954 l 26 983 q 243 979 97 979 q 463 983 386 979 l 463 956 q 390 945 413 954 q 359 912 368 936 q 351 836 351 888 l 351 312 q 368 154 351 215 q 428 61 386 92 q 543 29 470 29 q 738 123 681 29 q 795 389 795 216 l 795 755 q 786 875 795 836 q 748 932 776 914 q 661 956 720 949 l 661 983 q 810 979 715 979 z "},"Ů":{"ha":956,"x_min":26,"x_max":931,"o":"m 26 0 m 931 956 q 865 932 886 949 q 835 879 843 915 q 827 772 827 843 l 827 404 q 814 234 827 307 q 770 110 802 161 q 663 14 734 48 q 490 -20 593 -20 q 239 51 328 -20 q 172 133 195 86 q 139 242 148 179 q 130 400 130 305 l 130 836 q 122 912 130 888 q 94 945 115 936 q 26 956 73 954 l 26 983 q 243 979 97 979 q 463 983 386 979 l 463 956 q 390 945 413 954 q 359 912 368 936 q 351 836 351 888 l 351 312 q 368 154 351 215 q 428 61 386 92 q 543 29 470 29 q 738 123 681 29 q 795 389 795 216 l 795 755 q 786 875 795 836 q 748 932 776 914 q 661 956 720 949 l 661 983 q 810 979 715 979 q 931 983 888 979 l 931 956 m 496 1376 q 572 1359 537 1376 q 628 1312 607 1343 q 648 1242 648 1282 q 628 1170 648 1201 q 572 1122 607 1139 q 496 1105 537 1105 q 422 1122 456 1105 q 367 1170 388 1139 q 347 1242 347 1201 q 367 1312 347 1282 q 422 1359 388 1343 q 496 1376 456 1376 m 496 1347 q 444 1334 469 1347 q 401 1297 418 1321 q 385 1240 385 1273 q 401 1183 385 1206 q 443 1147 418 1159 q 496 1135 469 1135 q 551 1146 525 1135 q 593 1182 576 1158 q 609 1240 609 1206 q 593 1297 609 1273 q 550 1334 576 1322 q 496 1347 524 1347 z "},"Ũ":{"ha":956,"x_min":26,"x_max":931,"o":"m 26 0 m 931 956 q 865 932 886 949 q 835 879 843 915 q 827 772 827 843 l 827 404 q 814 234 827 307 q 770 110 802 161 q 663 14 734 48 q 490 -20 593 -20 q 239 51 328 -20 q 172 133 195 86 q 139 242 148 179 q 130 400 130 305 l 130 836 q 122 912 130 888 q 94 945 115 936 q 26 956 73 954 l 26 983 q 243 979 97 979 q 463 983 386 979 l 463 956 q 390 945 413 954 q 359 912 368 936 q 351 836 351 888 l 351 312 q 368 154 351 215 q 428 61 386 92 q 543 29 470 29 q 738 123 681 29 q 795 389 795 216 l 795 755 q 786 875 795 836 q 748 932 776 914 q 661 956 720 949 l 661 983 q 810 979 715 979 q 931 983 888 979 l 931 956 m 374 1283 q 455 1270 420 1283 q 533 1231 490 1257 q 602 1196 574 1207 q 666 1185 631 1185 q 781 1260 740 1185 l 802 1253 q 733 1114 783 1161 q 616 1066 682 1066 q 536 1079 571 1066 q 456 1119 502 1093 q 387 1154 416 1142 q 323 1165 359 1165 q 208 1089 251 1165 l 189 1097 q 257 1236 207 1188 q 374 1283 308 1283 z "},"V":{"ha":928,"x_min":-17,"x_max":941,"o":"m 836 979 q 941 983 900 979 l 941 956 q 874 902 907 942 q 814 791 840 863 l 521 -3 q 473 -1 491 -1 q 425 -3 454 -1 l 71 867 q -17 956 36 953 l -17 983 q 195 979 66 979 q 406 983 338 979 l 406 956 q 331 943 353 954 q 308 904 308 932 q 324 839 308 881 l 570 217 l 741 678 q 779 846 779 783 q 750 928 779 903 q 663 956 720 954 l 663 983 q 836 979 756 979 z "},"W":{"ha":1344,"x_min":-16,"x_max":1352,"o":"m 1246 979 q 1352 983 1310 979 l 1352 956 q 1285 903 1317 942 q 1231 791 1253 863 l 986 -3 q 937 -1 956 -1 q 890 -3 920 -1 l 685 615 l 479 -3 q 430 -1 449 -1 q 382 -3 412 -1 l 71 867 q 31 933 54 913 q -16 956 7 954 l -16 983 q 191 979 66 979 q 361 983 307 979 l 361 956 q 313 901 313 949 q 326 839 313 876 l 527 252 l 669 665 l 597 881 q 565 937 583 921 q 522 956 546 954 l 522 983 q 720 979 597 979 q 920 983 854 979 l 920 956 q 846 944 868 954 q 825 904 825 934 q 839 839 825 881 l 1029 258 l 1162 678 q 1193 840 1193 779 q 1163 927 1193 900 q 1074 956 1133 954 l 1074 983 q 1246 979 1167 979 z "},"Ẃ":{"ha":1344,"x_min":-16,"x_max":1352,"o":"m 0 0 m 1246 979 q 1352 983 1310 979 l 1352 956 q 1285 903 1317 942 q 1231 791 1253 863 l 986 -3 q 937 -1 956 -1 q 890 -3 920 -1 l 685 615 l 479 -3 q 430 -1 449 -1 q 382 -3 412 -1 l 71 867 q 31 933 54 913 q -16 956 7 954 l -16 983 q 191 979 66 979 q 361 983 307 979 l 361 956 q 313 901 313 949 q 326 839 313 876 l 527 252 l 669 665 l 597 881 q 565 937 583 921 q 522 956 546 954 l 522 983 q 720 979 597 979 q 920 983 854 979 l 920 956 q 846 944 868 954 q 825 904 825 934 q 839 839 825 881 l 1029 258 l 1162 678 q 1193 840 1193 779 q 1163 927 1193 900 q 1074 956 1133 954 l 1074 983 q 1246 979 1167 979 m 819 1297 q 862 1308 838 1308 q 902 1297 884 1308 q 931 1267 921 1286 q 939 1236 939 1253 q 926 1196 939 1215 q 892 1164 914 1177 q 850 1146 872 1153 q 785 1128 829 1139 q 604 1072 681 1101 l 593 1089 q 732 1221 662 1145 q 780 1269 762 1253 q 819 1297 797 1285 z "},"Ŵ":{"ha":1344,"x_min":-16,"x_max":1352,"o":"m 0 0 m 1246 979 q 1352 983 1310 979 l 1352 956 q 1285 903 1317 942 q 1231 791 1253 863 l 986 -3 q 937 -1 956 -1 q 890 -3 920 -1 l 685 615 l 479 -3 q 430 -1 449 -1 q 382 -3 412 -1 l 71 867 q 31 933 54 913 q -16 956 7 954 l -16 983 q 191 979 66 979 q 361 983 307 979 l 361 956 q 313 901 313 949 q 326 839 313 876 l 527 252 l 669 665 l 597 881 q 565 937 583 921 q 522 956 546 954 l 522 983 q 720 979 597 979 q 920 983 854 979 l 920 956 q 846 944 868 954 q 825 904 825 934 q 839 839 825 881 l 1029 258 l 1162 678 q 1193 840 1193 779 q 1163 927 1193 900 q 1074 956 1133 954 l 1074 983 q 1246 979 1167 979 m 708 1305 q 827 1185 751 1244 q 992 1089 903 1127 l 985 1069 q 808 1109 896 1084 q 667 1158 720 1134 q 551 1109 624 1134 q 405 1069 478 1084 l 398 1089 q 563 1185 487 1126 q 683 1305 638 1243 l 708 1305 z "},"Ẅ":{"ha":1344,"x_min":-16,"x_max":1352,"o":"m 0 0 m 1246 979 q 1352 983 1310 979 l 1352 956 q 1285 903 1317 942 q 1231 791 1253 863 l 986 -3 q 937 -1 956 -1 q 890 -3 920 -1 l 685 615 l 479 -3 q 430 -1 449 -1 q 382 -3 412 -1 l 71 867 q 31 933 54 913 q -16 956 7 954 l -16 983 q 191 979 66 979 q 361 983 307 979 l 361 956 q 313 901 313 949 q 326 839 313 876 l 527 252 l 669 665 l 597 881 q 565 937 583 921 q 522 956 546 954 l 522 983 q 720 979 597 979 q 920 983 854 979 l 920 956 q 846 944 868 954 q 825 904 825 934 q 839 839 825 881 l 1029 258 l 1162 678 q 1193 840 1193 779 q 1163 927 1193 900 q 1074 956 1133 954 l 1074 983 q 1246 979 1167 979 m 529 1274 q 580 1259 556 1274 q 619 1220 604 1244 q 633 1168 633 1196 q 619 1116 633 1140 q 580 1078 604 1093 q 529 1064 556 1064 q 476 1078 500 1064 q 438 1116 452 1092 q 424 1168 424 1140 q 438 1220 424 1196 q 476 1259 452 1244 q 529 1274 500 1274 m 861 1274 q 913 1259 888 1274 q 952 1220 937 1244 q 966 1168 966 1196 q 952 1116 966 1140 q 913 1078 937 1093 q 861 1064 888 1064 q 809 1078 833 1064 q 771 1116 785 1092 q 757 1168 757 1140 q 771 1220 757 1196 q 809 1259 785 1244 q 861 1274 833 1274 z "},"Ẁ":{"ha":1344,"x_min":-16,"x_max":1352,"o":"m 0 0 m 1246 979 q 1352 983 1310 979 l 1352 956 q 1285 903 1317 942 q 1231 791 1253 863 l 986 -3 q 937 -1 956 -1 q 890 -3 920 -1 l 685 615 l 479 -3 q 430 -1 449 -1 q 382 -3 412 -1 l 71 867 q 31 933 54 913 q -16 956 7 954 l -16 983 q 191 979 66 979 q 361 983 307 979 l 361 956 q 313 901 313 949 q 326 839 313 876 l 527 252 l 669 665 l 597 881 q 565 937 583 921 q 522 956 546 954 l 522 983 q 720 979 597 979 q 920 983 854 979 l 920 956 q 846 944 868 954 q 825 904 825 934 q 839 839 825 881 l 1029 258 l 1162 678 q 1193 840 1193 779 q 1163 927 1193 900 q 1074 956 1133 954 l 1074 983 q 1246 979 1167 979 m 563 1297 q 603 1269 585 1285 q 652 1219 621 1253 q 788 1089 723 1142 l 779 1072 q 597 1128 701 1101 q 532 1146 553 1139 q 490 1164 510 1153 q 455 1195 467 1177 q 443 1235 443 1214 q 451 1267 443 1253 q 480 1297 461 1286 q 520 1308 498 1308 q 563 1297 543 1308 z "},"X":{"ha":960,"x_min":5,"x_max":977,"o":"m 888 98 q 920 56 907 70 q 945 37 932 43 q 977 29 958 31 l 977 0 q 951 1 971 0 q 787 5 827 5 q 591 1 707 5 l 563 0 l 563 29 q 633 34 612 29 q 654 52 654 39 q 644 77 654 62 l 411 419 l 300 267 q 236 122 236 182 q 268 55 236 79 q 355 28 299 31 l 355 0 q 135 4 275 4 q 7 0 52 4 l 7 28 q 208 197 102 59 l 393 446 l 94 886 q 62 928 74 914 q 37 947 50 941 q 5 955 24 954 l 5 984 q 31 983 11 984 q 203 979 159 979 q 416 984 291 979 l 416 955 q 348 949 369 955 q 327 928 327 943 q 338 902 327 918 l 545 600 l 647 739 q 713 879 713 822 q 687 933 713 913 q 612 956 661 952 l 612 983 q 786 979 690 979 q 914 983 870 979 l 914 956 q 825 904 871 943 q 739 810 780 865 l 562 574 l 888 98 z "},"Y":{"ha":865,"x_min":-9,"x_max":857,"o":"m 751 980 q 857 984 815 980 l 857 956 q 724 796 792 931 l 559 471 l 559 147 q 567 71 559 95 q 596 39 575 47 q 663 28 617 30 l 663 0 q 450 4 589 4 q 234 0 302 4 l 234 28 q 302 39 281 30 q 331 71 323 47 q 338 147 338 95 l 338 383 l 71 878 q -9 955 28 955 l -9 984 q 155 977 72 977 q 416 984 283 977 l 416 955 q 338 946 366 955 q 311 913 311 938 q 319 883 311 901 l 531 477 l 639 693 q 694 864 694 802 q 578 956 694 953 l 578 984 q 751 980 673 980 z "},"Ý":{"ha":865,"x_min":-9,"x_max":857,"o":"m 0 0 m 751 980 q 857 984 815 980 l 857 956 q 724 796 792 931 l 559 471 l 559 147 q 567 71 559 95 q 596 39 575 47 q 663 28 617 30 l 663 0 q 450 4 589 4 q 234 0 302 4 l 234 28 q 302 39 281 30 q 331 71 323 47 q 338 147 338 95 l 338 383 l 71 878 q -9 955 28 955 l -9 984 q 155 977 72 977 q 416 984 283 977 l 416 955 q 338 946 366 955 q 311 913 311 938 q 319 883 311 901 l 531 477 l 639 693 q 694 864 694 802 q 578 956 694 953 l 578 984 q 751 980 673 980 m 583 1297 q 626 1308 602 1308 q 666 1297 648 1308 q 695 1267 685 1286 q 703 1236 703 1253 q 690 1196 703 1215 q 656 1164 678 1177 q 614 1146 636 1153 q 549 1128 593 1139 q 368 1072 445 1101 l 357 1089 q 496 1221 426 1145 q 544 1269 526 1253 q 583 1297 561 1285 z "},"Ŷ":{"ha":865,"x_min":-9,"x_max":857,"o":"m 0 0 m 751 980 q 857 984 815 980 l 857 956 q 724 796 792 931 l 559 471 l 559 147 q 567 71 559 95 q 596 39 575 47 q 663 28 617 30 l 663 0 q 450 4 589 4 q 234 0 302 4 l 234 28 q 302 39 281 30 q 331 71 323 47 q 338 147 338 95 l 338 383 l 71 878 q -9 955 28 955 l -9 984 q 155 977 72 977 q 416 984 283 977 l 416 955 q 338 946 366 955 q 311 913 311 938 q 319 883 311 901 l 531 477 l 639 693 q 694 864 694 802 q 578 956 694 953 l 578 984 q 751 980 673 980 m 472 1305 q 591 1185 515 1244 q 756 1089 667 1127 l 749 1069 q 572 1109 660 1084 q 431 1158 484 1134 q 315 1109 388 1134 q 169 1069 242 1084 l 162 1089 q 327 1185 251 1126 q 447 1305 402 1243 l 472 1305 z "},"Ÿ":{"ha":865,"x_min":-9,"x_max":857,"o":"m 0 0 m 751 980 q 857 984 815 980 l 857 956 q 724 796 792 931 l 559 471 l 559 147 q 567 71 559 95 q 596 39 575 47 q 663 28 617 30 l 663 0 q 450 4 589 4 q 234 0 302 4 l 234 28 q 302 39 281 30 q 331 71 323 47 q 338 147 338 95 l 338 383 l 71 878 q -9 955 28 955 l -9 984 q 155 977 72 977 q 416 984 283 977 l 416 955 q 338 946 366 955 q 311 913 311 938 q 319 883 311 901 l 531 477 l 639 693 q 694 864 694 802 q 578 956 694 953 l 578 984 q 751 980 673 980 m 293 1274 q 344 1259 320 1274 q 383 1220 368 1244 q 397 1168 397 1196 q 383 1116 397 1140 q 344 1078 368 1093 q 293 1064 320 1064 q 240 1078 264 1064 q 202 1116 216 1092 q 188 1168 188 1140 q 202 1220 188 1196 q 240 1259 216 1244 q 293 1274 264 1274 m 625 1274 q 677 1259 652 1274 q 716 1220 701 1244 q 730 1168 730 1196 q 716 1116 730 1140 q 677 1078 701 1093 q 625 1064 652 1064 q 573 1078 597 1064 q 535 1116 549 1092 q 521 1168 521 1140 q 535 1220 521 1196 q 573 1259 549 1244 q 625 1274 597 1274 z "},"Ỳ":{"ha":865,"x_min":-9,"x_max":857,"o":"m 0 0 m 751 980 q 857 984 815 980 l 857 956 q 724 796 792 931 l 559 471 l 559 147 q 567 71 559 95 q 596 39 575 47 q 663 28 617 30 l 663 0 q 450 4 589 4 q 234 0 302 4 l 234 28 q 302 39 281 30 q 331 71 323 47 q 338 147 338 95 l 338 383 l 71 878 q -9 955 28 955 l -9 984 q 155 977 72 977 q 416 984 283 977 l 416 955 q 338 946 366 955 q 311 913 311 938 q 319 883 311 901 l 531 477 l 639 693 q 694 864 694 802 q 578 956 694 953 l 578 984 q 751 980 673 980 m 327 1297 q 367 1269 349 1285 q 416 1219 385 1253 q 552 1089 487 1142 l 543 1072 q 361 1128 465 1101 q 296 1146 317 1139 q 254 1164 274 1153 q 219 1195 231 1177 q 207 1235 207 1214 q 215 1267 207 1253 q 244 1297 225 1286 q 284 1308 262 1308 q 327 1297 307 1308 z "},"Z":{"ha":836,"x_min":54,"x_max":773,"o":"m 290 32 l 443 32 q 573 61 511 32 q 680 158 635 91 q 736 334 724 226 l 768 334 q 764 211 764 286 q 773 0 764 90 q 427 4 670 4 q 54 0 170 4 l 54 28 l 538 951 l 380 951 q 194 886 267 951 q 102 667 121 821 l 71 667 q 75 772 75 705 q 64 983 75 869 q 377 979 157 979 q 773 983 652 979 l 773 956 l 290 32 z "},"Ź":{"ha":836,"x_min":54,"x_max":773,"o":"m 54 0 m 290 32 l 443 32 q 573 61 511 32 q 680 158 635 91 q 736 334 724 226 l 768 334 q 764 211 764 286 q 773 0 764 90 q 427 4 670 4 q 54 0 170 4 l 54 28 l 538 951 l 380 951 q 194 886 267 951 q 102 667 121 821 l 71 667 q 75 772 75 705 q 64 983 75 869 q 377 979 157 979 q 773 983 652 979 l 773 956 l 290 32 m 543 1297 q 586 1308 562 1308 q 626 1297 608 1308 q 655 1267 645 1286 q 663 1236 663 1253 q 650 1196 663 1215 q 616 1164 638 1177 q 574 1146 596 1153 q 509 1128 553 1139 q 328 1072 405 1101 l 317 1089 q 456 1221 386 1145 q 504 1269 486 1253 q 543 1297 521 1285 z "},"Ž":{"ha":836,"x_min":54,"x_max":773,"o":"m 54 0 m 290 32 l 443 32 q 573 61 511 32 q 680 158 635 91 q 736 334 724 226 l 768 334 q 764 211 764 286 q 773 0 764 90 q 427 4 670 4 q 54 0 170 4 l 54 28 l 538 951 l 380 951 q 194 886 267 951 q 102 667 121 821 l 71 667 q 75 772 75 705 q 64 983 75 869 q 377 979 157 979 q 773 983 652 979 l 773 956 l 290 32 m 712 1282 q 548 1187 623 1245 q 428 1066 472 1128 l 403 1066 q 284 1186 360 1128 q 118 1282 208 1244 l 125 1303 q 303 1262 215 1287 q 443 1213 391 1238 q 559 1262 486 1238 q 705 1303 632 1287 l 712 1282 z "},"Ż":{"ha":836,"x_min":54,"x_max":773,"o":"m 54 0 m 290 32 l 443 32 q 573 61 511 32 q 680 158 635 91 q 736 334 724 226 l 768 334 q 764 211 764 286 q 773 0 764 90 q 427 4 670 4 q 54 0 170 4 l 54 28 l 538 951 l 380 951 q 194 886 267 951 q 102 667 121 821 l 71 667 q 75 772 75 705 q 64 983 75 869 q 377 979 157 979 q 773 983 652 979 l 773 956 l 290 32 m 419 1346 q 511 1317 477 1346 q 545 1239 545 1289 q 511 1160 545 1189 q 419 1131 477 1131 q 326 1160 360 1131 q 292 1239 292 1189 q 327 1317 292 1289 q 419 1346 361 1346 z "},"a":{"ha":719,"x_min":40,"x_max":713,"o":"m 365 738 q 486 723 435 738 q 568 675 536 709 q 608 602 597 646 q 618 481 618 558 l 618 103 q 624 55 618 69 q 648 41 631 41 q 672 47 661 41 q 699 65 684 54 l 713 41 q 643 3 680 15 q 554 -9 606 -9 q 452 22 483 -9 q 420 103 421 53 q 332 19 387 47 q 216 -9 277 -9 q 88 32 136 -9 q 40 149 40 74 q 87 268 40 221 q 235 353 135 315 q 252 359 245 356 q 345 397 313 382 q 397 431 377 412 q 418 477 418 451 l 418 586 q 391 677 418 644 q 304 710 363 710 q 250 702 277 710 q 205 676 223 693 q 266 635 244 663 q 288 567 288 608 q 256 495 288 524 q 174 467 225 467 q 103 497 130 467 q 76 574 76 528 q 154 690 76 645 q 365 738 239 738 m 418 420 q 390 391 409 406 q 332 352 370 376 q 262 282 288 319 q 237 187 237 244 q 261 106 237 132 q 324 79 285 79 q 418 136 378 79 l 418 420 z "},"á":{"ha":719,"x_min":40,"x_max":713,"o":"m 40 0 m 365 738 q 486 723 435 738 q 568 675 536 709 q 608 602 597 646 q 618 481 618 558 l 618 103 q 624 55 618 69 q 648 41 631 41 q 672 47 661 41 q 699 65 684 54 l 713 41 q 643 3 680 15 q 554 -9 606 -9 q 452 22 483 -9 q 420 103 421 53 q 332 19 387 47 q 216 -9 277 -9 q 88 32 136 -9 q 40 149 40 74 q 87 268 40 221 q 235 353 135 315 q 252 359 245 356 q 345 397 313 382 q 397 431 377 412 q 418 477 418 451 l 418 586 q 391 677 418 644 q 304 710 363 710 q 250 702 277 710 q 205 676 223 693 q 266 635 244 663 q 288 567 288 608 q 256 495 288 524 q 174 467 225 467 q 103 497 130 467 q 76 574 76 528 q 154 690 76 645 q 365 738 239 738 m 418 420 q 390 391 409 406 q 332 352 370 376 q 262 282 288 319 q 237 187 237 244 q 261 106 237 132 q 324 79 285 79 q 418 136 378 79 l 418 420 m 513 1135 q 538 1082 538 1115 q 516 1025 538 1051 q 483 991 501 1006 q 430 951 464 976 q 281 832 340 886 l 267 844 q 345 1017 306 916 q 372 1080 361 1059 q 398 1120 382 1102 q 465 1153 425 1153 q 513 1135 492 1153 z "},"ă":{"ha":719,"x_min":40,"x_max":713,"o":"m 40 0 m 365 738 q 486 723 435 738 q 568 675 536 709 q 608 602 597 646 q 618 481 618 558 l 618 103 q 624 55 618 69 q 648 41 631 41 q 672 47 661 41 q 699 65 684 54 l 713 41 q 643 3 680 15 q 554 -9 606 -9 q 452 22 483 -9 q 420 103 421 53 q 332 19 387 47 q 216 -9 277 -9 q 88 32 136 -9 q 40 149 40 74 q 87 268 40 221 q 235 353 135 315 q 252 359 245 356 q 345 397 313 382 q 397 431 377 412 q 418 477 418 451 l 418 586 q 391 677 418 644 q 304 710 363 710 q 250 702 277 710 q 205 676 223 693 q 266 635 244 663 q 288 567 288 608 q 256 495 288 524 q 174 467 225 467 q 103 497 130 467 q 76 574 76 528 q 154 690 76 645 q 365 738 239 738 m 418 420 q 390 391 409 406 q 332 352 370 376 q 262 282 288 319 q 237 187 237 244 q 261 106 237 132 q 324 79 285 79 q 418 136 378 79 l 418 420 m 625 1082 q 529 926 594 990 q 359 863 464 863 q 190 927 256 863 q 94 1082 125 991 l 118 1095 q 359 994 207 994 q 602 1095 511 994 l 625 1082 z "},"â":{"ha":719,"x_min":40,"x_max":713,"o":"m 40 0 m 365 738 q 486 723 435 738 q 568 675 536 709 q 608 602 597 646 q 618 481 618 558 l 618 103 q 624 55 618 69 q 648 41 631 41 q 672 47 661 41 q 699 65 684 54 l 713 41 q 643 3 680 15 q 554 -9 606 -9 q 452 22 483 -9 q 420 103 421 53 q 332 19 387 47 q 216 -9 277 -9 q 88 32 136 -9 q 40 149 40 74 q 87 268 40 221 q 235 353 135 315 q 252 359 245 356 q 345 397 313 382 q 397 431 377 412 q 418 477 418 451 l 418 586 q 391 677 418 644 q 304 710 363 710 q 250 702 277 710 q 205 676 223 693 q 266 635 244 663 q 288 567 288 608 q 256 495 288 524 q 174 467 225 467 q 103 497 130 467 q 76 574 76 528 q 154 690 76 645 q 365 738 239 738 m 418 420 q 390 391 409 406 q 332 352 370 376 q 262 282 288 319 q 237 187 237 244 q 261 106 237 132 q 324 79 285 79 q 418 136 378 79 l 418 420 m 373 1139 q 477 986 411 1060 q 622 867 543 913 l 610 847 q 455 895 530 867 q 333 953 379 924 q 235 895 295 924 q 111 847 174 866 l 100 867 q 242 985 176 912 q 348 1139 309 1059 l 373 1139 z "},"ä":{"ha":719,"x_min":40,"x_max":713,"o":"m 40 0 m 365 738 q 486 723 435 738 q 568 675 536 709 q 608 602 597 646 q 618 481 618 558 l 618 103 q 624 55 618 69 q 648 41 631 41 q 672 47 661 41 q 699 65 684 54 l 713 41 q 643 3 680 15 q 554 -9 606 -9 q 452 22 483 -9 q 420 103 421 53 q 332 19 387 47 q 216 -9 277 -9 q 88 32 136 -9 q 40 149 40 74 q 87 268 40 221 q 235 353 135 315 q 252 359 245 356 q 345 397 313 382 q 397 431 377 412 q 418 477 418 451 l 418 586 q 391 677 418 644 q 304 710 363 710 q 250 702 277 710 q 205 676 223 693 q 266 635 244 663 q 288 567 288 608 q 256 495 288 524 q 174 467 225 467 q 103 497 130 467 q 76 574 76 528 q 154 690 76 645 q 365 738 239 738 m 418 420 q 390 391 409 406 q 332 352 370 376 q 262 282 288 319 q 237 187 237 244 q 261 106 237 132 q 324 79 285 79 q 418 136 378 79 l 418 420 m 204 1056 q 256 1041 231 1056 q 295 1003 280 1027 q 309 951 309 979 q 295 899 309 923 q 256 861 280 875 q 204 846 231 846 q 152 861 176 846 q 114 899 127 875 q 100 951 100 923 q 114 1003 100 979 q 152 1041 128 1027 q 204 1056 176 1056 m 520 1056 q 572 1041 547 1056 q 611 1003 596 1027 q 625 951 625 979 q 611 899 625 923 q 572 861 596 875 q 520 846 547 846 q 468 861 492 846 q 430 899 444 875 q 416 951 416 923 q 430 1003 416 979 q 468 1041 444 1027 q 520 1056 492 1056 z "},"à":{"ha":719,"x_min":40,"x_max":713,"o":"m 40 0 m 365 738 q 486 723 435 738 q 568 675 536 709 q 608 602 597 646 q 618 481 618 558 l 618 103 q 624 55 618 69 q 648 41 631 41 q 672 47 661 41 q 699 65 684 54 l 713 41 q 643 3 680 15 q 554 -9 606 -9 q 452 22 483 -9 q 420 103 421 53 q 332 19 387 47 q 216 -9 277 -9 q 88 32 136 -9 q 40 149 40 74 q 87 268 40 221 q 235 353 135 315 q 252 359 245 356 q 345 397 313 382 q 397 431 377 412 q 418 477 418 451 l 418 586 q 391 677 418 644 q 304 710 363 710 q 250 702 277 710 q 205 676 223 693 q 266 635 244 663 q 288 567 288 608 q 256 495 288 524 q 174 467 225 467 q 103 497 130 467 q 76 574 76 528 q 154 690 76 645 q 365 738 239 738 m 418 420 q 390 391 409 406 q 332 352 370 376 q 262 282 288 319 q 237 187 237 244 q 261 106 237 132 q 324 79 285 79 q 418 136 378 79 l 418 420 m 186 1135 q 235 1153 207 1153 q 302 1120 275 1153 q 328 1080 317 1102 q 355 1017 338 1059 q 433 844 394 916 l 418 832 q 270 951 359 886 q 216 992 235 977 q 184 1025 198 1006 q 162 1082 162 1051 q 186 1135 162 1115 z "},"ā":{"ha":719,"x_min":40,"x_max":713,"o":"m 40 0 m 365 738 q 486 723 435 738 q 568 675 536 709 q 608 602 597 646 q 618 481 618 558 l 618 103 q 624 55 618 69 q 648 41 631 41 q 672 47 661 41 q 699 65 684 54 l 713 41 q 643 3 680 15 q 554 -9 606 -9 q 452 22 483 -9 q 420 103 421 53 q 332 19 387 47 q 216 -9 277 -9 q 88 32 136 -9 q 40 149 40 74 q 87 268 40 221 q 235 353 135 315 q 252 359 245 356 q 345 397 313 382 q 397 431 377 412 q 418 477 418 451 l 418 586 q 391 677 418 644 q 304 710 363 710 q 250 702 277 710 q 205 676 223 693 q 266 635 244 663 q 288 567 288 608 q 256 495 288 524 q 174 467 225 467 q 103 497 130 467 q 76 574 76 528 q 154 690 76 645 q 365 738 239 738 m 418 420 q 390 391 409 406 q 332 352 370 376 q 262 282 288 319 q 237 187 237 244 q 261 106 237 132 q 324 79 285 79 q 418 136 378 79 l 418 420 m 123 954 l 123 989 l 590 989 l 590 954 l 123 954 z "},"ą":{"ha":719,"x_min":40,"x_max":713,"o":"m 585 -184 q 634 -174 608 -184 q 674 -147 659 -163 l 693 -167 q 611 -239 656 -216 q 503 -261 566 -261 q 410 -236 443 -261 q 376 -166 376 -211 q 422 -76 376 -116 q 551 -9 467 -36 q 452 22 482 -9 q 420 103 421 54 q 332 19 387 47 q 216 -9 277 -9 q 88 32 136 -9 q 40 149 40 74 q 87 268 40 221 q 235 353 135 315 q 252 359 245 356 q 345 397 313 382 q 397 431 377 412 q 418 477 418 451 l 418 586 q 391 677 418 644 q 304 710 363 710 q 250 702 277 710 q 205 676 223 693 q 266 635 244 663 q 288 567 288 608 q 256 495 288 524 q 174 467 225 467 q 103 497 130 467 q 76 574 76 528 q 154 690 76 645 q 365 738 239 738 q 486 723 435 738 q 568 675 536 709 q 608 602 597 646 q 618 481 618 558 l 618 103 q 624 55 618 69 q 648 41 631 41 q 672 47 661 41 q 699 65 684 54 l 713 41 q 652 6 682 17 q 633 -5 646 1 q 552 -63 577 -31 q 528 -128 528 -95 q 585 -184 528 -184 m 418 420 q 390 391 409 406 q 332 352 370 376 q 262 282 288 319 q 237 187 237 244 q 261 106 237 132 q 324 79 285 79 q 418 136 378 79 l 418 420 z "},"å":{"ha":719,"x_min":40,"x_max":713,"o":"m 40 0 m 365 738 q 486 723 435 738 q 568 675 536 709 q 608 602 597 646 q 618 481 618 558 l 618 103 q 624 55 618 69 q 648 41 631 41 q 672 47 661 41 q 699 65 684 54 l 713 41 q 643 3 680 15 q 554 -9 606 -9 q 452 22 483 -9 q 420 103 421 53 q 332 19 387 47 q 216 -9 277 -9 q 88 32 136 -9 q 40 149 40 74 q 87 268 40 221 q 235 353 135 315 q 252 359 245 356 q 345 397 313 382 q 397 431 377 412 q 418 477 418 451 l 418 586 q 391 677 418 644 q 304 710 363 710 q 250 702 277 710 q 205 676 223 693 q 266 635 244 663 q 288 567 288 608 q 256 495 288 524 q 174 467 225 467 q 103 497 130 467 q 76 574 76 528 q 154 690 76 645 q 365 738 239 738 m 418 420 q 390 391 409 406 q 332 352 370 376 q 262 282 288 319 q 237 187 237 244 q 261 106 237 132 q 324 79 285 79 q 418 136 378 79 l 418 420 m 361 1107 q 436 1090 401 1107 q 492 1043 471 1074 q 513 972 513 1013 q 492 901 513 932 q 436 853 471 869 q 361 836 401 836 q 287 853 321 836 q 232 901 252 869 q 211 972 211 932 q 232 1043 211 1013 q 287 1090 252 1074 q 361 1107 321 1107 m 361 1078 q 308 1065 334 1078 q 266 1028 282 1052 q 250 971 250 1004 q 266 913 250 937 q 308 878 282 890 q 361 865 333 865 q 415 877 389 865 q 457 913 441 889 q 473 971 473 937 q 457 1028 473 1004 q 415 1065 441 1053 q 361 1078 389 1078 z "},"ã":{"ha":719,"x_min":40,"x_max":713,"o":"m 40 0 m 365 738 q 486 723 435 738 q 568 675 536 709 q 608 602 597 646 q 618 481 618 558 l 618 103 q 624 55 618 69 q 648 41 631 41 q 672 47 661 41 q 699 65 684 54 l 713 41 q 643 3 680 15 q 554 -9 606 -9 q 452 22 483 -9 q 420 103 421 53 q 332 19 387 47 q 216 -9 277 -9 q 88 32 136 -9 q 40 149 40 74 q 87 268 40 221 q 235 353 135 315 q 252 359 245 356 q 345 397 313 382 q 397 431 377 412 q 418 477 418 451 l 418 586 q 391 677 418 644 q 304 710 363 710 q 250 702 277 710 q 205 676 223 693 q 266 635 244 663 q 288 567 288 608 q 256 495 288 524 q 174 467 225 467 q 103 497 130 467 q 76 574 76 528 q 154 690 76 645 q 365 738 239 738 m 418 420 q 390 391 409 406 q 332 352 370 376 q 262 282 288 319 q 237 187 237 244 q 261 106 237 132 q 324 79 285 79 q 418 136 378 79 l 418 420 m 249 1092 q 317 1079 288 1092 q 380 1042 346 1066 q 433 1011 410 1021 q 484 1000 455 1000 q 590 1074 546 1000 l 610 1064 q 542 918 588 966 q 437 871 496 871 q 369 883 397 871 q 305 921 341 896 q 253 953 275 942 q 201 964 230 964 q 94 889 139 964 l 75 899 q 143 1044 97 997 q 249 1092 189 1092 z "},"æ":{"ha":1021,"x_min":43,"x_max":976,"o":"m 779 95 q 942 206 882 95 l 968 197 q 917 91 951 140 q 829 11 882 42 q 709 -20 777 -20 q 554 18 621 -20 q 452 134 488 56 q 355 23 411 60 q 220 -14 298 -14 q 129 5 168 -14 q 66 58 89 23 q 43 143 43 94 q 91 267 43 218 q 236 352 138 315 l 252 358 q 340 396 309 381 q 391 431 372 412 q 410 477 410 451 l 410 586 q 381 676 410 643 q 294 710 352 710 q 241 702 268 710 q 197 676 214 693 q 276 573 276 650 q 245 501 276 529 q 165 473 214 473 q 95 502 122 473 q 68 574 68 530 q 89 641 68 611 q 145 691 109 671 q 335 738 225 738 q 447 720 403 738 q 519 660 492 703 q 728 738 600 738 q 976 429 976 738 l 616 429 q 613 363 613 402 q 637 212 613 272 q 698 123 661 151 q 779 95 736 95 m 720 708 q 648 647 676 708 q 612 456 619 585 l 801 456 q 782 636 803 564 q 720 708 762 708 m 439 163 q 410 352 410 241 q 412 403 410 378 l 410 420 q 341 355 395 396 q 267 281 293 319 q 241 189 241 243 q 263 114 241 139 q 327 89 286 89 q 388 104 360 89 q 440 157 416 119 l 439 163 z "},"b":{"ha":814,"x_min":8,"x_max":761,"o":"m 510 738 q 640 698 583 738 q 729 577 696 658 q 761 378 761 496 q 719 151 761 239 q 605 21 676 62 q 443 -20 533 -20 q 288 28 347 -20 q 265 29 280 29 q 176 15 220 29 q 109 -22 133 0 l 87 -10 q 97 68 97 22 l 97 920 q 77 1013 97 984 q 8 1042 57 1042 l 8 1072 q 94 1067 52 1067 q 297 1086 216 1067 l 297 605 q 382 704 326 669 q 510 738 437 738 m 400 10 q 551 359 551 10 q 520 604 551 530 q 427 678 488 678 q 346 645 382 678 q 297 557 309 612 l 297 47 q 400 10 342 10 z "},"c":{"ha":689,"x_min":51,"x_max":650,"o":"m 394 738 q 492 726 446 738 q 568 695 537 715 q 625 640 604 673 q 645 566 645 606 q 614 485 645 516 q 535 454 583 454 q 457 482 486 454 q 428 557 428 510 q 454 629 428 599 q 519 671 480 660 q 486 694 509 685 q 436 704 463 704 q 340 662 380 704 q 280 545 300 619 q 260 375 260 471 q 286 211 260 273 q 353 121 312 148 q 444 95 394 95 q 540 120 492 95 q 626 208 588 145 l 650 199 q 597 93 633 142 q 506 12 562 43 q 374 -20 449 -20 q 208 21 281 -20 q 93 145 135 61 q 51 355 51 230 q 95 564 51 477 q 217 694 139 650 q 394 738 294 738 z "},"ć":{"ha":689,"x_min":51,"x_max":650,"o":"m 51 0 m 394 738 q 492 726 446 738 q 568 695 537 715 q 625 640 604 673 q 645 566 645 606 q 614 485 645 516 q 535 454 583 454 q 457 482 486 454 q 428 557 428 510 q 454 629 428 599 q 519 671 480 660 q 486 694 509 685 q 436 704 463 704 q 340 662 380 704 q 280 545 300 619 q 260 375 260 471 q 286 211 260 273 q 353 121 312 148 q 444 95 394 95 q 540 120 492 95 q 626 208 588 145 l 650 199 q 597 93 633 142 q 506 12 562 43 q 374 -20 449 -20 q 208 21 281 -20 q 93 145 135 61 q 51 355 51 230 q 95 564 51 477 q 217 694 139 650 q 394 738 294 738 m 524 1135 q 549 1082 549 1115 q 527 1025 549 1051 q 493 991 512 1006 q 441 951 475 976 q 292 832 351 886 l 277 844 q 356 1017 317 916 q 383 1080 372 1059 q 409 1120 393 1102 q 475 1153 435 1153 q 524 1135 503 1153 z "},"č":{"ha":689,"x_min":51,"x_max":650,"o":"m 51 0 m 394 738 q 492 726 446 738 q 568 695 537 715 q 625 640 604 673 q 645 566 645 606 q 614 485 645 516 q 535 454 583 454 q 457 482 486 454 q 428 557 428 510 q 454 629 428 599 q 519 671 480 660 q 486 694 509 685 q 436 704 463 704 q 340 662 380 704 q 280 545 300 619 q 260 375 260 471 q 286 211 260 273 q 353 121 312 148 q 444 95 394 95 q 540 120 492 95 q 626 208 588 145 l 650 199 q 597 93 633 142 q 506 12 562 43 q 374 -20 449 -20 q 208 21 281 -20 q 93 145 135 61 q 51 355 51 230 q 95 564 51 477 q 217 694 139 650 q 394 738 294 738 m 619 1120 q 476 1001 542 1074 q 370 847 410 927 l 345 847 q 241 999 308 926 q 97 1120 175 1073 l 108 1139 q 263 1091 187 1120 q 386 1034 339 1062 q 485 1091 424 1062 q 608 1139 545 1120 l 619 1120 z "},"ç":{"ha":689,"x_min":51,"x_max":650,"o":"m 357 -19 l 334 -90 q 433 -74 379 -74 q 504 -94 479 -74 q 529 -148 529 -114 q 473 -233 529 -204 q 334 -261 418 -261 q 213 -244 260 -261 l 220 -219 q 281 -225 255 -225 q 353 -211 322 -225 q 383 -168 383 -197 q 336 -132 383 -132 q 282 -142 304 -132 l 319 -16 q 180 39 240 -5 q 85 163 119 83 q 51 355 51 242 q 95 564 51 477 q 217 694 139 650 q 394 738 294 738 q 492 726 446 738 q 568 695 537 715 q 625 640 604 673 q 645 566 645 606 q 614 485 645 516 q 535 454 583 454 q 457 482 486 454 q 428 557 428 510 q 454 629 428 599 q 519 671 480 660 q 486 694 509 685 q 436 704 463 704 q 340 662 380 704 q 280 545 300 619 q 260 375 260 471 q 286 211 260 273 q 353 121 312 148 q 444 95 394 95 q 540 120 492 95 q 626 208 588 145 l 650 199 q 597 93 633 142 q 506 12 562 43 q 374 -20 449 -20 l 357 -19 z "},"ĉ":{"ha":689,"x_min":51,"x_max":650,"o":"m 51 0 m 394 738 q 492 726 446 738 q 568 695 537 715 q 625 640 604 673 q 645 566 645 606 q 614 485 645 516 q 535 454 583 454 q 457 482 486 454 q 428 557 428 510 q 454 629 428 599 q 519 671 480 660 q 486 694 509 685 q 436 704 463 704 q 340 662 380 704 q 280 545 300 619 q 260 375 260 471 q 286 211 260 273 q 353 121 312 148 q 444 95 394 95 q 540 120 492 95 q 626 208 588 145 l 650 199 q 597 93 633 142 q 506 12 562 43 q 374 -20 449 -20 q 208 21 281 -20 q 93 145 135 61 q 51 355 51 230 q 95 564 51 477 q 217 694 139 650 q 394 738 294 738 m 384 1139 q 488 986 422 1060 q 633 867 554 913 l 621 847 q 466 895 541 867 q 344 953 390 924 q 245 895 306 924 q 121 847 185 866 l 111 867 q 253 985 187 912 q 359 1139 319 1059 l 384 1139 z "},"ċ":{"ha":689,"x_min":51,"x_max":650,"o":"m 51 0 m 394 738 q 492 726 446 738 q 568 695 537 715 q 625 640 604 673 q 645 566 645 606 q 614 485 645 516 q 535 454 583 454 q 457 482 486 454 q 428 557 428 510 q 454 629 428 599 q 519 671 480 660 q 486 694 509 685 q 436 704 463 704 q 340 662 380 704 q 280 545 300 619 q 260 375 260 471 q 286 211 260 273 q 353 121 312 148 q 444 95 394 95 q 540 120 492 95 q 626 208 588 145 l 650 199 q 597 93 633 142 q 506 12 562 43 q 374 -20 449 -20 q 208 21 281 -20 q 93 145 135 61 q 51 355 51 230 q 95 564 51 477 q 217 694 139 650 q 394 738 294 738 m 380 1077 q 472 1048 437 1077 q 506 970 506 1019 q 472 891 506 920 q 380 862 437 862 q 287 891 321 862 q 253 970 253 920 q 287 1048 253 1019 q 380 1077 321 1077 z "},"d":{"ha":830,"x_min":52,"x_max":805,"o":"m 716 152 q 736 59 716 88 q 805 30 756 30 l 805 1 q 719 5 762 5 q 516 -14 597 5 l 516 103 q 336 -20 467 -20 q 187 21 251 -20 q 88 148 123 62 q 52 362 52 233 q 92 569 52 484 q 202 696 132 654 q 363 738 272 738 q 516 686 464 738 l 516 920 q 496 1014 516 985 q 427 1043 476 1043 l 427 1072 q 513 1068 471 1068 q 716 1087 635 1068 l 716 152 m 393 41 q 472 72 437 41 q 516 157 507 104 l 516 651 q 415 698 480 698 q 302 613 342 698 q 262 359 262 528 q 296 115 262 189 q 393 41 330 41 z "},"ð":{"ha":787,"x_min":52,"x_max":729,"o":"m 451 955 q 655 727 581 861 q 729 422 729 594 q 686 175 729 275 q 567 27 643 75 q 391 -21 490 -21 q 142 69 233 -21 q 52 347 52 159 q 93 559 52 471 q 204 693 133 648 q 368 738 275 738 q 490 700 444 738 q 376 918 454 830 l 154 810 l 141 835 l 356 940 q 179 1063 286 1012 l 190 1086 q 425 973 319 1042 l 623 1069 l 636 1045 l 451 955 m 388 7 q 486 103 448 7 q 523 416 523 199 q 498 670 523 562 q 410 705 465 705 q 262 357 262 705 q 278 159 262 237 q 323 43 295 80 q 388 7 352 7 z "},"ď":{"ha":830,"x_min":52,"x_max":937,"o":"m 52 0 m 716 152 q 736 59 716 88 q 805 30 756 30 l 805 1 q 719 5 762 5 q 516 -14 597 5 l 516 103 q 336 -20 467 -20 q 187 21 251 -20 q 88 148 123 62 q 52 362 52 233 q 92 569 52 484 q 202 696 132 654 q 363 738 272 738 q 516 686 464 738 l 516 920 q 496 1014 516 985 q 427 1043 476 1043 l 427 1072 q 513 1068 471 1068 q 716 1087 635 1068 l 716 152 m 393 41 q 472 72 437 41 q 516 157 507 104 l 516 651 q 415 698 480 698 q 302 613 342 698 q 262 359 262 528 q 296 115 262 189 q 393 41 330 41 m 930 1089 q 935 1064 933 1082 q 937 1032 937 1046 q 922 972 937 1006 q 880 898 906 938 q 802 782 854 857 l 783 787 q 811 989 811 948 q 805 1031 811 1018 q 783 1044 800 1044 l 783 1074 q 815 1073 795 1073 q 930 1089 869 1073 z "},"đ":{"ha":830,"x_min":52,"x_max":819,"o":"m 716 152 q 736 59 716 88 q 805 30 756 30 l 805 1 q 719 5 762 5 q 516 -14 597 5 l 516 103 q 336 -20 467 -20 q 187 21 251 -20 q 88 148 123 62 q 52 362 52 233 q 92 569 52 484 q 202 696 132 654 q 363 738 272 738 q 516 686 464 738 l 516 844 l 286 844 l 286 872 l 516 872 l 516 920 q 496 1014 516 985 q 427 1043 476 1043 l 427 1072 q 513 1068 471 1068 q 716 1087 635 1068 l 716 872 l 819 872 l 819 844 l 716 844 l 716 152 m 393 41 q 472 72 437 41 q 516 157 507 104 l 516 651 q 415 698 480 698 q 302 613 342 698 q 262 359 262 528 q 296 115 262 189 q 393 41 330 41 z "},"e":{"ha":701,"x_min":52,"x_max":652,"o":"m 442 95 q 625 206 557 95 l 650 197 q 595 91 632 140 q 501 11 558 42 q 372 -20 444 -20 q 204 21 276 -20 q 92 145 132 62 q 52 352 52 229 q 95 564 52 477 q 214 694 138 651 q 391 738 291 738 q 652 429 652 738 l 264 429 q 261 363 261 402 q 287 212 261 272 q 354 123 313 151 q 442 95 395 95 m 383 708 q 301 646 334 708 q 260 456 268 585 l 477 456 q 455 636 479 564 q 383 708 431 708 z "},"é":{"ha":701,"x_min":52,"x_max":652,"o":"m 52 0 m 442 95 q 625 206 557 95 l 650 197 q 595 91 632 140 q 501 11 558 42 q 372 -20 444 -20 q 204 21 276 -20 q 92 145 132 62 q 52 352 52 229 q 95 564 52 477 q 214 694 138 651 q 391 738 291 738 q 652 429 652 738 l 264 429 q 261 363 261 402 q 287 212 261 272 q 354 123 313 151 q 442 95 395 95 m 383 708 q 301 646 334 708 q 260 456 268 585 l 477 456 q 455 636 479 564 q 383 708 431 708 m 535 1135 q 560 1082 560 1115 q 538 1025 560 1051 q 505 991 524 1006 q 452 951 486 976 q 304 832 363 886 l 289 844 q 368 1017 328 916 q 394 1080 384 1059 q 420 1120 405 1102 q 487 1153 447 1153 q 535 1135 515 1153 z "},"ĕ":{"ha":701,"x_min":52,"x_max":652,"o":"m 52 0 m 442 95 q 625 206 557 95 l 650 197 q 595 91 632 140 q 501 11 558 42 q 372 -20 444 -20 q 204 21 276 -20 q 92 145 132 62 q 52 352 52 229 q 95 564 52 477 q 214 694 138 651 q 391 738 291 738 q 652 429 652 738 l 264 429 q 261 363 261 402 q 287 212 261 272 q 354 123 313 151 q 442 95 395 95 m 383 708 q 301 646 334 708 q 260 456 268 585 l 477 456 q 455 636 479 564 q 383 708 431 708 m 647 1082 q 551 926 616 990 q 382 863 486 863 q 213 927 278 863 q 117 1082 147 991 l 140 1095 q 382 994 229 994 q 624 1095 534 994 l 647 1082 z "},"ě":{"ha":701,"x_min":52,"x_max":652,"o":"m 52 0 m 442 95 q 625 206 557 95 l 650 197 q 595 91 632 140 q 501 11 558 42 q 372 -20 444 -20 q 204 21 276 -20 q 92 145 132 62 q 52 352 52 229 q 95 564 52 477 q 214 694 138 651 q 391 738 291 738 q 652 429 652 738 l 264 429 q 261 363 261 402 q 287 212 261 272 q 354 123 313 151 q 442 95 395 95 m 383 708 q 301 646 334 708 q 260 456 268 585 l 477 456 q 455 636 479 564 q 383 708 431 708 m 631 1120 q 487 1001 553 1074 q 382 847 421 927 l 357 847 q 253 999 319 926 q 109 1120 186 1073 l 119 1139 q 275 1091 199 1120 q 397 1034 351 1062 q 496 1091 435 1062 q 619 1139 557 1120 l 631 1120 z "},"ê":{"ha":701,"x_min":52,"x_max":652,"o":"m 52 0 m 442 95 q 625 206 557 95 l 650 197 q 595 91 632 140 q 501 11 558 42 q 372 -20 444 -20 q 204 21 276 -20 q 92 145 132 62 q 52 352 52 229 q 95 564 52 477 q 214 694 138 651 q 391 738 291 738 q 652 429 652 738 l 264 429 q 261 363 261 402 q 287 212 261 272 q 354 123 313 151 q 442 95 395 95 m 383 708 q 301 646 334 708 q 260 456 268 585 l 477 456 q 455 636 479 564 q 383 708 431 708 m 395 1139 q 499 986 433 1060 q 644 867 566 913 l 633 847 q 477 895 553 867 q 355 953 401 924 q 257 895 317 924 q 133 847 197 866 l 122 867 q 265 985 199 912 q 370 1139 331 1059 l 395 1139 z "},"ë":{"ha":701,"x_min":52,"x_max":652,"o":"m 52 0 m 442 95 q 625 206 557 95 l 650 197 q 595 91 632 140 q 501 11 558 42 q 372 -20 444 -20 q 204 21 276 -20 q 92 145 132 62 q 52 352 52 229 q 95 564 52 477 q 214 694 138 651 q 391 738 291 738 q 652 429 652 738 l 264 429 q 261 363 261 402 q 287 212 261 272 q 354 123 313 151 q 442 95 395 95 m 383 708 q 301 646 334 708 q 260 456 268 585 l 477 456 q 455 636 479 564 q 383 708 431 708 m 227 1056 q 278 1041 254 1056 q 317 1003 302 1027 q 332 951 332 979 q 317 899 332 923 q 278 861 302 875 q 227 846 254 846 q 174 861 198 846 q 136 899 150 875 q 122 951 122 923 q 136 1003 122 979 q 174 1041 151 1027 q 227 1056 198 1056 m 543 1056 q 594 1041 570 1056 q 633 1003 618 1027 q 648 951 648 979 q 633 899 648 923 q 594 861 618 875 q 543 846 570 846 q 490 861 514 846 q 452 899 466 875 q 438 951 438 923 q 452 1003 438 979 q 490 1041 467 1027 q 543 1056 514 1056 z "},"ė":{"ha":701,"x_min":52,"x_max":652,"o":"m 52 0 m 442 95 q 625 206 557 95 l 650 197 q 595 91 632 140 q 501 11 558 42 q 372 -20 444 -20 q 204 21 276 -20 q 92 145 132 62 q 52 352 52 229 q 95 564 52 477 q 214 694 138 651 q 391 738 291 738 q 652 429 652 738 l 264 429 q 261 363 261 402 q 287 212 261 272 q 354 123 313 151 q 442 95 395 95 m 383 708 q 301 646 334 708 q 260 456 268 585 l 477 456 q 455 636 479 564 q 383 708 431 708 m 383 1077 q 475 1048 441 1077 q 509 970 509 1019 q 475 891 509 920 q 383 862 441 862 q 290 891 324 862 q 256 970 256 920 q 291 1048 256 1019 q 383 1077 325 1077 z "},"è":{"ha":701,"x_min":52,"x_max":652,"o":"m 52 0 m 442 95 q 625 206 557 95 l 650 197 q 595 91 632 140 q 501 11 558 42 q 372 -20 444 -20 q 204 21 276 -20 q 92 145 132 62 q 52 352 52 229 q 95 564 52 477 q 214 694 138 651 q 391 738 291 738 q 652 429 652 738 l 264 429 q 261 363 261 402 q 287 212 261 272 q 354 123 313 151 q 442 95 395 95 m 383 708 q 301 646 334 708 q 260 456 268 585 l 477 456 q 455 636 479 564 q 383 708 431 708 m 209 1135 q 257 1153 229 1153 q 324 1120 297 1153 q 350 1080 340 1102 q 377 1017 361 1059 q 456 844 416 916 l 440 832 q 292 951 382 886 q 239 992 257 977 q 206 1025 220 1006 q 184 1082 184 1051 q 209 1135 184 1115 z "},"ē":{"ha":701,"x_min":52,"x_max":652,"o":"m 52 0 m 442 95 q 625 206 557 95 l 650 197 q 595 91 632 140 q 501 11 558 42 q 372 -20 444 -20 q 204 21 276 -20 q 92 145 132 62 q 52 352 52 229 q 95 564 52 477 q 214 694 138 651 q 391 738 291 738 q 652 429 652 738 l 264 429 q 261 363 261 402 q 287 212 261 272 q 354 123 313 151 q 442 95 395 95 m 383 708 q 301 646 334 708 q 260 456 268 585 l 477 456 q 455 636 479 564 q 383 708 431 708 m 146 954 l 146 989 l 612 989 l 612 954 l 146 954 z "},"ę":{"ha":701,"x_min":52,"x_max":652,"o":"m 442 95 q 625 206 557 95 l 650 197 q 588 83 630 135 q 484 3 545 31 q 469 -5 477 -1 q 389 -63 414 -31 q 364 -128 364 -95 q 422 -184 364 -184 q 470 -174 445 -184 q 511 -147 496 -163 l 530 -167 q 447 -239 492 -216 q 340 -261 402 -261 q 246 -236 279 -261 q 213 -166 213 -211 q 251 -83 213 -120 q 359 -20 288 -46 q 198 25 267 -17 q 90 149 129 66 q 52 352 52 231 q 95 564 52 477 q 214 694 138 651 q 391 738 291 738 q 652 429 652 738 l 264 429 q 261 363 261 402 q 287 212 261 272 q 354 123 313 151 q 442 95 395 95 m 383 708 q 301 646 334 708 q 260 456 268 585 l 477 456 q 455 636 479 564 q 383 708 431 708 z "},"f":{"ha":488,"x_min":28,"x_max":596,"o":"m 400 1086 q 549 1040 487 1086 q 583 996 570 1023 q 596 937 596 969 q 584 888 596 911 q 549 853 571 866 q 498 840 526 840 q 421 866 450 840 q 392 939 392 893 q 413 1003 392 975 q 473 1042 434 1030 q 423 1061 463 1061 q 348 1025 372 1061 q 328 964 334 1004 q 322 844 322 924 l 322 718 l 471 718 l 471 690 l 322 690 l 322 143 q 355 54 322 79 q 453 29 387 29 l 453 0 q 415 1 445 0 q 214 5 260 5 q 59 1 177 5 q 33 0 39 0 l 33 29 q 86 38 66 29 q 114 68 105 47 q 122 129 122 90 l 122 690 l 28 690 l 28 718 l 122 718 q 131 854 122 800 q 158 947 139 909 q 210 1017 176 985 q 292 1067 241 1048 q 400 1086 343 1086 z "},"g":{"ha":754,"x_min":27,"x_max":737,"o":"m 549 178 q 685 143 633 178 q 737 28 737 108 q 692 -109 737 -42 q 557 -218 648 -176 q 335 -261 466 -261 q 165 -245 234 -261 q 61 -202 96 -229 q 27 -141 27 -175 q 43 -97 27 -115 q 81 -70 58 -80 q 143 -47 104 -60 q 199 -28 178 -36 q 237 -7 220 -20 l 205 -7 q 99 21 148 -7 q 50 121 50 49 q 66 194 50 161 q 122 256 83 226 q 227 317 161 286 q 114 391 154 340 q 74 517 74 441 q 156 683 74 627 q 372 738 237 738 q 476 728 427 738 q 481 797 474 764 q 520 890 488 855 q 612 925 553 925 q 685 902 657 925 q 713 840 713 879 q 686 782 713 805 q 618 760 659 760 q 553 779 576 760 q 515 838 529 798 q 494 767 500 813 q 494 747 494 760 q 494 724 494 732 q 625 651 578 703 q 671 517 671 600 q 633 393 671 443 q 528 320 595 344 q 372 296 460 296 q 252 309 304 296 q 192 267 211 285 q 173 224 173 248 q 230 178 173 178 l 549 178 m 372 713 q 303 668 326 713 q 279 517 279 623 q 303 366 279 410 q 372 321 326 321 q 442 366 418 321 q 465 517 465 410 q 442 668 465 623 q 372 713 418 713 m 372 -237 q 477 -217 429 -237 q 554 -157 525 -196 q 583 -65 583 -118 q 565 -21 583 -35 q 503 -7 548 -7 l 264 -7 q 229 -61 241 -29 q 216 -117 216 -92 q 260 -206 216 -175 q 372 -237 304 -237 z "},"ǵ":{"ha":754,"x_min":27,"x_max":737,"o":"m 27 0 m 549 178 q 685 143 633 178 q 737 28 737 108 q 692 -109 737 -42 q 557 -218 648 -176 q 335 -261 466 -261 q 165 -245 234 -261 q 61 -202 96 -229 q 27 -141 27 -175 q 43 -97 27 -115 q 81 -70 58 -80 q 143 -47 104 -60 q 199 -28 178 -36 q 237 -7 220 -20 l 205 -7 q 99 21 148 -7 q 50 121 50 49 q 66 194 50 161 q 122 256 83 226 q 227 317 161 286 q 114 391 154 340 q 74 517 74 441 q 156 683 74 627 q 372 738 237 738 q 476 728 427 738 q 481 797 474 764 q 520 890 488 855 q 612 925 553 925 q 685 902 657 925 q 713 840 713 879 q 686 782 713 805 q 618 760 659 760 q 553 779 576 760 q 515 838 529 798 q 494 767 500 813 q 494 747 494 760 q 494 724 494 732 q 625 651 578 703 q 671 517 671 600 q 633 393 671 443 q 528 320 595 344 q 372 296 460 296 q 252 309 304 296 q 192 267 211 285 q 173 224 173 248 q 230 178 173 178 l 549 178 m 372 713 q 303 668 326 713 q 279 517 279 623 q 303 366 279 410 q 372 321 326 321 q 442 366 418 321 q 465 517 465 410 q 442 668 465 623 q 372 713 418 713 m 372 -237 q 477 -217 429 -237 q 554 -157 525 -196 q 583 -65 583 -118 q 565 -21 583 -35 q 503 -7 548 -7 l 264 -7 q 229 -61 241 -29 q 216 -117 216 -92 q 260 -206 216 -175 q 372 -237 304 -237 m 521 1135 q 546 1082 546 1115 q 524 1025 546 1051 q 491 991 509 1006 q 438 951 472 976 q 290 832 349 886 l 275 844 q 353 1017 314 916 q 380 1080 370 1059 q 406 1120 391 1102 q 473 1153 433 1153 q 521 1135 500 1153 z "},"ğ":{"ha":747,"x_min":32,"x_max":747,"o":"m 378 863 q 209 927 275 863 q 113 1082 144 991 l 137 1095 q 378 994 226 994 q 621 1095 530 994 l 644 1082 q 548 926 613 990 q 378 863 483 863 m 543 178 q 679 143 627 178 q 730 27 730 108 q 685 -111 730 -44 q 550 -219 640 -177 q 330 -261 460 -261 q 163 -245 231 -261 q 64 -202 96 -229 q 32 -143 32 -176 q 47 -99 32 -116 q 85 -72 62 -81 q 147 -49 107 -62 q 243 -8 214 -28 l 210 -8 q 141 2 176 -8 q 80 42 106 13 q 54 121 54 71 q 70 193 54 161 q 123 254 86 225 q 222 315 159 283 q 106 389 148 338 q 65 517 65 440 q 147 683 65 627 q 363 738 229 738 q 522 713 455 738 q 528 781 521 751 q 549 844 532 815 q 593 891 566 873 q 654 908 621 908 q 720 885 694 908 q 747 823 747 863 q 721 762 747 787 q 656 738 695 738 q 597 759 621 738 q 567 812 574 780 q 545 756 549 792 q 543 728 543 743 q 544 703 543 721 q 662 517 662 647 q 624 393 662 443 q 518 320 585 344 q 363 296 451 296 q 249 308 301 296 q 194 266 210 283 q 178 224 178 248 q 193 188 178 198 q 239 178 209 178 l 543 178 m 363 713 q 294 668 317 713 q 271 517 271 623 q 294 366 271 410 q 363 321 317 321 q 433 366 410 321 q 456 517 456 410 q 433 668 456 623 q 363 713 410 713 m 367 -237 q 473 -216 424 -237 q 552 -155 523 -195 q 582 -64 582 -115 q 564 -22 582 -35 q 501 -8 546 -8 l 270 -8 q 233 -62 246 -31 q 220 -119 220 -93 q 261 -207 220 -176 q 367 -237 302 -237 z "},"ĝ":{"ha":747,"x_min":32,"x_max":747,"o":"m 353 953 q 254 895 315 924 q 130 847 194 866 l 119 867 q 262 985 196 912 q 368 1139 328 1059 l 393 1139 q 459 1004 418 1069 q 552 892 500 939 l 538 873 q 353 953 424 907 m 543 178 q 679 143 627 178 q 730 27 730 108 q 685 -111 730 -44 q 550 -219 640 -177 q 330 -261 460 -261 q 163 -245 231 -261 q 64 -202 96 -229 q 32 -143 32 -176 q 47 -99 32 -116 q 85 -72 62 -81 q 147 -49 107 -62 q 243 -8 214 -28 l 210 -8 q 141 2 176 -8 q 80 42 106 13 q 54 121 54 71 q 70 193 54 161 q 123 254 86 225 q 222 315 159 283 q 106 389 148 338 q 65 517 65 440 q 147 683 65 627 q 363 738 229 738 q 520 713 453 738 q 528 755 522 732 q 567 847 534 810 q 654 883 600 883 q 720 862 694 883 q 747 806 747 842 q 721 752 747 774 q 656 730 695 730 q 597 748 621 730 q 567 795 574 766 q 545 731 549 772 q 542 705 543 722 q 662 517 662 648 q 624 393 662 443 q 518 320 585 344 q 363 296 451 296 q 249 308 301 296 q 194 266 210 283 q 178 224 178 248 q 193 188 178 198 q 239 178 209 178 l 543 178 m 363 713 q 294 668 317 713 q 271 517 271 623 q 294 366 271 410 q 363 321 317 321 q 433 366 410 321 q 456 517 456 410 q 433 668 456 623 q 363 713 410 713 m 367 -237 q 473 -216 424 -237 q 552 -155 523 -195 q 582 -64 582 -115 q 564 -22 582 -35 q 501 -8 546 -8 l 270 -8 q 233 -62 246 -31 q 220 -119 220 -93 q 261 -207 220 -176 q 367 -237 302 -237 z "},"ģ":{"ha":747,"x_min":32,"x_max":736,"o":"m 373 875 q 291 904 323 875 q 260 982 260 933 q 299 1086 260 1046 q 418 1136 338 1126 l 423 1107 q 312 1031 321 1091 q 380 1053 335 1053 q 452 1030 425 1053 q 478 965 478 1008 q 450 899 478 923 q 373 875 422 875 m 543 178 q 679 143 627 178 q 730 27 730 108 q 685 -111 730 -44 q 550 -219 640 -177 q 330 -261 460 -261 q 163 -245 231 -261 q 64 -202 96 -229 q 32 -143 32 -176 q 47 -99 32 -116 q 85 -72 62 -81 q 147 -49 107 -62 q 243 -8 214 -28 l 210 -8 q 141 2 176 -8 q 80 42 106 13 q 54 121 54 71 q 70 193 54 161 q 123 254 86 225 q 222 315 159 283 q 106 389 148 338 q 65 517 65 440 q 147 683 65 627 q 363 738 229 738 q 498 721 439 738 q 501 781 496 750 q 542 879 508 842 q 635 917 575 917 q 708 894 679 917 q 736 832 736 871 q 709 771 736 795 q 638 747 681 747 q 536 817 560 747 q 518 758 524 799 q 517 732 517 741 l 517 714 q 624 640 586 690 q 662 517 662 591 q 624 393 662 443 q 518 320 585 344 q 363 296 451 296 q 249 308 301 296 q 194 266 210 283 q 178 224 178 248 q 193 188 178 198 q 239 178 209 178 l 543 178 m 363 713 q 294 668 317 713 q 271 517 271 623 q 294 366 271 410 q 363 321 317 321 q 433 366 410 321 q 456 517 456 410 q 433 668 456 623 q 363 713 410 713 m 367 -237 q 473 -216 424 -237 q 552 -155 523 -195 q 582 -64 582 -115 q 564 -22 582 -35 q 501 -8 546 -8 l 270 -8 q 233 -62 246 -31 q 220 -119 220 -93 q 261 -207 220 -176 q 367 -237 302 -237 z "},"ġ":{"ha":747,"x_min":32,"x_max":738,"o":"m 372 862 q 279 891 313 862 q 245 970 245 920 q 280 1048 245 1019 q 372 1077 314 1077 q 464 1048 430 1077 q 498 970 498 1019 q 464 891 498 920 q 372 862 430 862 m 543 178 q 679 143 627 178 q 730 27 730 108 q 685 -111 730 -44 q 550 -219 640 -177 q 330 -261 460 -261 q 163 -245 231 -261 q 64 -202 96 -229 q 32 -143 32 -176 q 47 -99 32 -116 q 85 -72 62 -81 q 147 -49 107 -62 q 243 -8 214 -28 l 210 -8 q 141 2 176 -8 q 80 42 106 13 q 54 121 54 71 q 70 193 54 161 q 123 254 86 225 q 222 315 159 283 q 106 389 148 338 q 65 517 65 440 q 147 683 65 627 q 363 738 229 738 q 493 722 434 738 q 503 791 494 758 q 545 888 509 849 q 637 927 580 927 q 709 902 680 927 q 738 833 738 876 q 710 767 738 793 q 640 741 682 741 q 572 761 600 741 q 537 823 544 781 q 519 767 524 803 q 517 715 517 746 q 624 641 586 690 q 662 517 662 591 q 624 393 662 443 q 518 320 585 344 q 363 296 451 296 q 249 308 301 296 q 194 266 210 283 q 178 224 178 248 q 193 188 178 198 q 239 178 209 178 l 543 178 m 363 713 q 294 668 317 713 q 271 517 271 623 q 294 366 271 410 q 363 321 317 321 q 433 366 410 321 q 456 517 456 410 q 433 668 456 623 q 363 713 410 713 m 367 -237 q 473 -216 424 -237 q 552 -155 523 -195 q 582 -64 582 -115 q 564 -22 582 -35 q 501 -8 546 -8 l 270 -8 q 233 -62 246 -31 q 220 -119 220 -93 q 261 -207 220 -176 q 367 -237 302 -237 z "},"h":{"ha":845,"x_min":26,"x_max":827,"o":"m 315 609 q 542 738 378 738 q 695 684 648 738 q 728 615 718 657 q 739 503 739 573 l 739 129 q 747 68 739 90 q 775 38 756 47 q 827 29 794 29 l 827 0 l 804 1 q 644 5 709 5 q 486 1 576 5 l 464 0 l 464 29 q 508 38 492 29 q 531 68 524 47 q 538 129 538 90 l 538 561 q 520 647 538 618 q 453 677 502 677 q 383 656 415 677 q 333 599 351 635 q 315 516 315 562 l 315 129 q 322 68 315 90 q 346 38 330 47 q 390 29 361 29 l 390 0 l 368 1 q 218 5 281 5 q 51 1 149 5 l 26 0 l 26 29 q 79 38 60 29 q 106 68 98 47 q 115 129 115 90 l 115 920 q 95 1013 115 984 q 26 1042 75 1042 l 26 1072 q 112 1067 71 1067 q 315 1086 234 1067 l 315 609 z "},"ħ":{"ha":845,"x_min":12,"x_max":827,"o":"m 739 129 q 747 68 739 90 q 775 38 756 47 q 827 29 794 29 l 827 0 l 804 1 q 644 5 709 5 q 486 1 576 5 l 464 0 l 464 29 q 508 38 492 29 q 531 68 524 47 q 538 129 538 90 l 538 561 q 520 647 538 618 q 453 677 502 677 q 383 656 415 677 q 333 599 351 635 q 315 516 315 562 l 315 129 q 322 68 315 90 q 346 38 330 47 q 390 29 361 29 l 390 0 l 368 1 q 218 5 281 5 q 51 1 149 5 l 26 0 l 26 29 q 79 38 60 29 q 106 68 98 47 q 115 129 115 90 l 115 844 l 12 844 l 12 872 l 115 872 l 115 920 q 95 1013 115 984 q 26 1042 75 1042 l 26 1072 q 112 1067 71 1067 q 315 1086 234 1067 l 315 872 l 532 872 l 532 844 l 315 844 l 315 609 q 542 738 378 738 q 695 684 648 738 q 728 615 718 657 q 739 503 739 573 l 739 129 z "},"ĥ":{"ha":845,"x_min":26,"x_max":827,"o":"m 26 0 m 315 609 q 542 738 378 738 q 695 684 648 738 q 728 615 718 657 q 739 503 739 573 l 739 129 q 747 68 739 90 q 775 38 756 47 q 827 29 794 29 l 827 0 l 804 1 q 644 5 709 5 q 486 1 576 5 l 464 0 l 464 29 q 508 38 492 29 q 531 68 524 47 q 538 129 538 90 l 538 561 q 520 647 538 618 q 453 677 502 677 q 383 656 415 677 q 333 599 351 635 q 315 516 315 562 l 315 129 q 322 68 315 90 q 346 38 330 47 q 390 29 361 29 l 390 0 l 368 1 q 218 5 281 5 q 51 1 149 5 l 26 0 l 26 29 q 79 38 60 29 q 106 68 98 47 q 115 129 115 90 l 115 920 q 95 1013 115 984 q 26 1042 75 1042 l 26 1072 q 112 1067 71 1067 q 315 1086 234 1067 l 315 609 m 418 1394 q 537 1274 461 1333 q 703 1178 613 1216 l 696 1158 q 518 1198 606 1173 q 378 1247 430 1223 q 261 1198 334 1223 q 115 1158 189 1173 l 109 1178 q 273 1274 197 1215 q 393 1394 349 1332 l 418 1394 z "},"i":{"ha":438,"x_min":34,"x_max":412,"o":"m 34 0 m 214 1077 q 306 1048 271 1077 q 340 970 340 1019 q 306 891 340 920 q 214 862 271 862 q 121 891 155 862 q 87 970 87 920 q 121 1048 87 1019 q 214 1077 155 1077 m 323 129 q 331 68 323 90 q 359 38 340 47 q 412 29 378 29 l 412 0 l 388 1 q 226 5 294 5 q 58 1 157 5 l 34 0 l 34 29 q 86 38 67 29 q 114 68 105 47 q 123 129 123 90 l 123 567 q 103 661 123 631 q 34 690 83 690 l 34 719 q 120 714 85 714 q 323 734 238 714 l 323 129 z "},"ı":{"ha":438,"x_min":34,"x_max":412,"o":"m 323 129 q 331 68 323 90 q 359 38 340 47 q 412 29 378 29 l 412 0 l 388 1 q 226 5 294 5 q 58 1 157 5 l 34 0 l 34 29 q 86 38 67 29 q 114 68 105 47 q 123 129 123 90 l 123 567 q 103 661 123 631 q 34 690 83 690 l 34 719 q 120 714 85 714 q 323 734 238 714 l 323 129 z "},"í":{"ha":438,"x_min":34,"x_max":412,"o":"m 34 0 m 323 129 q 331 68 323 90 q 359 38 340 47 q 412 29 378 29 l 412 0 l 388 1 q 226 5 294 5 q 58 1 157 5 l 34 0 l 34 29 q 86 38 67 29 q 114 68 105 47 q 123 129 123 90 l 123 567 q 103 661 123 631 q 34 690 83 690 l 34 719 q 120 714 85 714 q 323 734 238 714 l 323 129 m 370 1135 q 395 1082 395 1115 q 374 1025 395 1051 q 340 991 359 1006 q 288 951 321 976 q 139 832 198 886 l 124 844 q 203 1017 163 916 q 230 1080 219 1059 q 256 1120 240 1102 q 322 1153 282 1153 q 370 1135 350 1153 z "},"ĭ":{"ha":438,"x_min":-48,"x_max":482,"o":"m 0 0 m 323 129 q 331 68 323 90 q 359 38 340 47 q 412 29 378 29 l 412 0 l 388 1 q 226 5 294 5 q 58 1 157 5 l 34 0 l 34 29 q 86 38 67 29 q 114 68 105 47 q 123 129 123 90 l 123 567 q 103 661 123 631 q 34 690 83 690 l 34 719 q 120 714 85 714 q 323 734 238 714 l 323 129 m 482 1082 q 387 926 452 990 q 217 863 321 863 q 48 927 113 863 q -48 1082 -18 991 l -24 1095 q 217 994 64 994 q 459 1095 369 994 l 482 1082 z "},"î":{"ha":438,"x_min":-43,"x_max":479,"o":"m 0 0 m 323 129 q 331 68 323 90 q 359 38 340 47 q 412 29 378 29 l 412 0 l 388 1 q 226 5 294 5 q 58 1 157 5 l 34 0 l 34 29 q 86 38 67 29 q 114 68 105 47 q 123 129 123 90 l 123 567 q 103 661 123 631 q 34 690 83 690 l 34 719 q 120 714 85 714 q 323 734 238 714 l 323 129 m 231 1139 q 335 986 269 1060 q 479 867 401 913 l 468 847 q 312 895 388 867 q 191 953 237 924 q 92 895 153 924 q -32 847 32 866 l -43 867 q 100 985 34 912 q 205 1139 166 1059 l 231 1139 z "},"ï":{"ha":438,"x_min":-43,"x_max":483,"o":"m 0 0 m 323 129 q 331 68 323 90 q 359 38 340 47 q 412 29 378 29 l 412 0 l 388 1 q 226 5 294 5 q 58 1 157 5 l 34 0 l 34 29 q 86 38 67 29 q 114 68 105 47 q 123 129 123 90 l 123 567 q 103 661 123 631 q 34 690 83 690 l 34 719 q 120 714 85 714 q 323 734 238 714 l 323 129 m 62 1056 q 113 1041 89 1056 q 152 1003 138 1027 q 167 951 167 979 q 152 899 167 923 q 113 861 138 875 q 62 846 89 846 q 9 861 33 846 q -29 899 -15 875 q -43 951 -43 923 q -28 1003 -43 979 q 9 1041 -14 1027 q 62 1056 33 1056 m 378 1056 q 429 1041 405 1056 q 468 1003 454 1027 q 483 951 483 979 q 468 899 483 923 q 429 861 454 875 q 378 846 405 846 q 325 861 349 846 q 287 899 301 875 q 273 951 273 923 q 288 1003 273 979 q 326 1041 302 1027 q 378 1056 349 1056 z "},"ì":{"ha":438,"x_min":20,"x_max":412,"o":"m 20 0 m 323 129 q 331 68 323 90 q 359 38 340 47 q 412 29 378 29 l 412 0 l 388 1 q 226 5 294 5 q 58 1 157 5 l 34 0 l 34 29 q 86 38 67 29 q 114 68 105 47 q 123 129 123 90 l 123 567 q 103 661 123 631 q 34 690 83 690 l 34 719 q 120 714 85 714 q 323 734 238 714 l 323 129 m 44 1135 q 92 1153 64 1153 q 159 1120 132 1153 q 185 1080 175 1102 q 212 1017 196 1059 q 291 844 252 916 l 275 832 q 127 951 217 886 q 74 992 92 977 q 41 1025 56 1006 q 20 1082 20 1051 q 44 1135 20 1115 z "},"ĳ":{"ha":821,"x_min":18,"x_max":741,"o":"m 195 1077 q 287 1048 252 1077 q 321 970 321 1019 q 287 891 321 920 q 195 862 252 862 q 102 891 136 862 q 68 970 68 920 q 102 1048 68 1019 q 195 1077 136 1077 m 615 1077 q 707 1048 673 1077 q 741 970 741 1019 q 707 891 741 920 q 615 862 673 862 q 522 891 556 862 q 488 970 488 920 q 523 1048 488 1019 q 615 1077 557 1077 m 725 133 q 695 -82 725 4 q 595 -215 666 -168 q 403 -261 524 -261 q 276 -237 323 -261 q 229 -161 229 -212 q 259 -101 229 -125 q 342 -77 289 -77 q 424 -97 392 -77 q 456 -155 456 -118 q 436 -205 456 -184 q 380 -235 416 -225 q 410 -237 393 -237 q 477 -218 452 -237 q 514 -162 503 -200 q 525 -63 525 -125 l 525 114 q 438 14 495 48 q 301 -20 381 -20 q 149 35 199 -20 q 117 103 127 61 q 107 215 107 146 l 107 567 q 87 661 107 631 q 18 690 67 690 l 18 719 q 104 714 69 714 q 307 734 222 714 l 307 158 q 325 71 307 100 q 390 41 342 41 q 459 62 428 41 q 507 120 490 83 q 525 202 525 157 l 525 567 q 505 661 525 631 q 436 690 485 690 l 436 719 q 522 714 487 714 q 725 734 642 714 l 725 133 z "},"ī":{"ha":438,"x_min":-14,"x_max":425,"o":"m -14 954 l -14 989 l 425 989 l 425 954 l -14 954 m 323 129 q 331 68 323 90 q 359 38 340 47 q 412 29 378 29 l 412 0 l 388 1 q 226 5 294 5 q 58 1 157 5 l 34 0 l 34 29 q 86 38 67 29 q 114 68 105 47 q 123 129 123 90 l 123 567 q 103 661 123 631 q 34 690 83 690 l 34 719 q 120 714 85 714 q 323 734 238 714 l 323 129 z "},"į":{"ha":438,"x_min":34,"x_max":435,"o":"m 214 862 q 121 891 155 862 q 87 970 87 920 q 121 1048 87 1019 q 214 1077 155 1077 q 306 1048 271 1077 q 340 970 340 1019 q 306 891 340 920 q 214 862 271 862 m 435 -167 q 352 -239 397 -216 q 245 -261 307 -261 q 151 -236 184 -261 q 118 -166 118 -211 q 175 -66 118 -109 q 338 3 233 -22 q 226 5 271 5 q 58 1 157 5 l 34 0 l 34 29 q 86 38 67 29 q 114 68 105 47 q 123 129 123 90 l 123 567 q 103 661 123 631 q 34 690 83 690 l 34 719 q 120 714 85 714 q 323 734 238 714 l 323 129 q 331 68 323 90 q 359 38 340 47 q 412 29 378 29 l 412 0 l 386 1 l 374 -5 q 294 -63 319 -31 q 269 -128 269 -95 q 327 -184 269 -184 q 375 -174 350 -184 q 416 -147 401 -163 l 435 -167 z "},"ĩ":{"ha":438,"x_min":-67,"x_max":467,"o":"m 0 0 m 323 129 q 331 68 323 90 q 359 38 340 47 q 412 29 378 29 l 412 0 l 388 1 q 226 5 294 5 q 58 1 157 5 l 34 0 l 34 29 q 86 38 67 29 q 114 68 105 47 q 123 129 123 90 l 123 567 q 103 661 123 631 q 34 690 83 690 l 34 719 q 120 714 85 714 q 323 734 238 714 l 323 129 m 106 1092 q 175 1079 146 1092 q 237 1042 203 1066 q 290 1011 268 1021 q 341 1000 313 1000 q 448 1074 404 1000 l 467 1064 q 399 918 446 966 q 295 871 353 871 q 227 883 255 871 q 163 921 199 896 q 110 953 133 942 q 59 964 87 964 q -48 889 -3 964 l -67 899 q 1 1044 -45 997 q 106 1092 47 1092 z "},"j":{"ha":412,"x_min":-176,"x_max":334,"o":"m 208 1074 q 300 1045 266 1074 q 334 966 334 1017 q 300 888 334 917 q 208 859 266 859 q 116 888 150 859 q 81 966 81 917 q 115 1045 81 1017 q 208 1074 149 1074 m 316 131 q 296 -61 316 14 q 227 -186 277 -136 q 3 -261 155 -261 q -121 -236 -71 -261 q -161 -200 -146 -222 q -176 -149 -176 -177 q -145 -81 -176 -106 q -65 -56 -115 -56 q 11 -78 -17 -56 q 39 -144 39 -101 q 21 -197 39 -174 q -31 -234 4 -221 q 1 -236 -14 -236 q 52 -226 28 -236 q 88 -197 75 -216 q 111 -123 105 -172 q 116 31 116 -74 l 116 567 q 96 661 116 631 q 27 690 76 690 l 27 719 q 113 714 78 714 q 316 734 233 714 l 316 131 z "},"ȷ":{"ha":412,"x_min":-176,"x_max":316,"o":"m 316 131 q 296 -61 316 14 q 227 -186 277 -136 q 3 -261 155 -261 q -121 -236 -71 -261 q -161 -200 -146 -222 q -176 -149 -176 -177 q -145 -81 -176 -106 q -65 -56 -115 -56 q 11 -78 -17 -56 q 39 -144 39 -101 q 21 -197 39 -174 q -31 -234 4 -221 q 1 -236 -14 -236 q 52 -226 28 -236 q 88 -197 75 -216 q 111 -123 105 -172 q 116 31 116 -74 l 116 567 q 96 661 116 631 q 27 690 76 690 l 27 719 q 113 714 78 714 q 316 734 233 714 l 316 131 z "},"ĵ":{"ha":412,"x_min":-176,"x_max":463,"o":"m 0 0 m 316 131 q 296 -61 316 14 q 227 -186 277 -136 q 3 -261 155 -261 q -121 -236 -71 -261 q -161 -200 -146 -222 q -176 -149 -176 -177 q -145 -81 -176 -106 q -65 -56 -115 -56 q 11 -78 -17 -56 q 39 -144 39 -101 q 21 -197 39 -174 q -31 -234 4 -221 q 1 -236 -14 -236 q 52 -226 28 -236 q 88 -197 75 -216 q 111 -123 105 -172 q 116 31 116 -74 l 116 567 q 96 661 116 631 q 27 690 76 690 l 27 719 q 113 714 78 714 q 316 734 233 714 l 316 131 m 214 1139 q 318 986 252 1060 q 463 867 385 913 l 452 847 q 296 895 372 867 q 174 953 220 924 q 76 895 136 924 q -48 847 16 866 l -59 867 q 84 985 18 912 q 189 1139 150 1059 l 214 1139 z "},"k":{"ha":813,"x_min":26,"x_max":811,"o":"m 739 102 q 774 53 759 70 q 811 29 789 37 l 811 0 l 793 1 q 665 5 718 5 q 509 1 601 5 l 486 0 l 486 29 q 517 36 506 29 q 528 55 528 43 q 521 77 528 63 l 383 325 q 354 357 369 349 q 315 368 338 366 l 315 129 q 323 68 315 90 q 349 38 331 47 q 398 29 367 29 l 398 0 l 376 1 q 218 5 286 5 q 51 1 149 5 l 26 0 l 26 29 q 79 38 60 29 q 106 68 98 47 q 115 129 115 90 l 115 920 q 95 1014 115 985 q 26 1043 75 1043 l 26 1072 q 112 1068 70 1068 q 315 1087 234 1068 l 315 395 q 399 430 368 399 l 504 533 q 551 617 551 579 q 520 669 551 649 q 443 691 490 688 l 443 719 q 606 714 533 714 q 768 719 711 714 l 768 691 q 595 583 684 672 l 505 490 l 739 102 z "},"ķ":{"ha":813,"x_min":26,"x_max":811,"o":"m 26 0 m 739 102 q 774 53 759 70 q 811 29 789 37 l 811 0 l 793 1 q 665 5 718 5 q 509 1 601 5 l 486 0 l 486 29 q 517 36 506 29 q 528 55 528 43 q 521 77 528 63 l 383 325 q 354 357 369 349 q 315 368 338 366 l 315 129 q 323 68 315 90 q 349 38 331 47 q 398 29 367 29 l 398 0 l 376 1 q 218 5 286 5 q 51 1 149 5 l 26 0 l 26 29 q 79 38 60 29 q 106 68 98 47 q 115 129 115 90 l 115 920 q 95 1014 115 985 q 26 1043 75 1043 l 26 1072 q 112 1068 70 1068 q 315 1087 234 1068 l 315 395 q 399 430 368 399 l 504 533 q 551 617 551 579 q 520 669 551 649 q 443 691 490 688 l 443 719 q 606 714 533 714 q 768 719 711 714 l 768 691 q 595 583 684 672 l 505 490 l 739 102 m 441 -76 q 523 -105 492 -76 q 555 -183 555 -134 q 516 -287 555 -247 q 397 -337 477 -327 l 391 -309 q 503 -232 494 -292 q 435 -254 479 -254 q 363 -231 389 -254 q 336 -166 336 -209 q 365 -100 336 -124 q 441 -76 393 -76 z "},"ĸ":{"ha":821,"x_min":34,"x_max":819,"o":"m 737 103 q 778 52 759 70 q 819 29 797 33 l 819 0 l 800 1 q 673 5 726 5 q 524 1 610 5 l 502 0 l 502 29 q 532 36 522 29 q 543 56 543 43 q 536 77 543 66 l 380 309 q 323 351 356 347 l 323 129 q 331 68 323 90 q 357 38 339 47 q 406 29 374 29 l 406 0 l 383 1 q 226 5 293 5 q 58 1 157 5 l 34 0 l 34 29 q 86 38 67 29 q 114 68 105 47 q 123 129 123 90 l 123 567 q 103 661 123 631 q 34 690 83 690 l 34 719 q 120 714 85 714 q 323 734 238 714 l 323 378 q 390 398 363 382 q 444 446 416 414 l 574 593 q 595 640 595 618 q 574 676 595 662 q 512 691 552 690 l 512 719 q 655 714 597 714 q 781 719 727 714 l 781 691 q 703 672 732 686 q 646 624 674 658 l 502 458 l 737 103 z "},"l":{"ha":432,"x_min":27,"x_max":405,"o":"m 316 129 q 325 68 316 90 q 353 38 334 47 q 405 29 372 29 l 405 0 l 381 1 q 220 5 286 5 q 53 1 181 5 q 27 0 33 0 l 27 29 q 80 38 60 29 q 107 68 99 47 q 116 129 116 90 l 116 920 q 96 1014 116 985 q 27 1043 76 1043 l 27 1072 q 113 1068 71 1068 q 316 1087 235 1068 l 316 129 z "},"ĺ":{"ha":432,"x_min":27,"x_max":458,"o":"m 27 0 m 316 129 q 325 68 316 90 q 353 38 334 47 q 405 29 372 29 l 405 0 l 381 1 q 220 5 286 5 q 53 1 181 5 q 27 0 33 0 l 27 29 q 80 38 60 29 q 107 68 99 47 q 116 129 116 90 l 116 920 q 96 1014 116 985 q 27 1043 76 1043 l 27 1072 q 113 1068 71 1068 q 316 1087 235 1068 l 316 129 m 338 1385 q 381 1396 357 1396 q 421 1386 403 1396 q 450 1356 440 1375 q 458 1324 458 1342 q 446 1284 458 1303 q 412 1253 433 1265 q 370 1235 391 1242 q 304 1217 348 1228 q 123 1161 200 1190 l 113 1178 q 251 1310 181 1234 q 299 1358 281 1342 q 338 1385 316 1374 z "},"ľ":{"ha":432,"x_min":27,"x_max":540,"o":"m 27 0 m 316 129 q 325 68 316 90 q 353 38 334 47 q 405 29 372 29 l 405 0 l 381 1 q 220 5 286 5 q 53 1 181 5 q 27 0 33 0 l 27 29 q 80 38 60 29 q 107 68 99 47 q 116 129 116 90 l 116 920 q 96 1014 116 985 q 27 1043 76 1043 l 27 1072 q 113 1068 71 1068 q 316 1087 235 1068 l 316 129 m 533 1089 q 538 1064 536 1082 q 540 1032 540 1046 q 524 972 540 1006 q 483 898 509 938 q 405 782 456 857 l 386 787 q 414 989 414 948 q 408 1031 414 1018 q 386 1044 402 1044 l 386 1074 q 418 1073 397 1073 q 533 1089 472 1073 z "},"ļ":{"ha":432,"x_min":27,"x_max":405,"o":"m 27 0 m 316 129 q 325 68 316 90 q 353 38 334 47 q 405 29 372 29 l 405 0 l 381 1 q 220 5 286 5 q 53 1 181 5 q 27 0 33 0 l 27 29 q 80 38 60 29 q 107 68 99 47 q 116 129 116 90 l 116 920 q 96 1014 116 985 q 27 1043 76 1043 l 27 1072 q 113 1068 71 1068 q 316 1087 235 1068 l 316 129 m 209 -76 q 291 -105 259 -76 q 322 -183 322 -134 q 283 -287 322 -247 q 164 -337 244 -327 l 159 -309 q 270 -232 261 -292 q 202 -254 247 -254 q 130 -231 157 -254 q 104 -166 104 -209 q 132 -100 104 -124 q 209 -76 160 -76 z "},"ŀ":{"ha":696,"x_min":27,"x_max":684,"o":"m 27 0 m 316 129 q 325 68 316 90 q 353 38 334 47 q 405 29 372 29 l 405 0 l 381 1 q 220 5 286 5 q 53 1 181 5 q 27 0 33 0 l 27 29 q 80 38 60 29 q 107 68 99 47 q 116 129 116 90 l 116 920 q 96 1014 116 985 q 27 1043 76 1043 l 27 1072 q 113 1068 71 1068 q 316 1087 235 1068 l 316 129 m 566 536 q 652 507 621 536 q 684 428 684 478 q 652 350 684 378 q 566 321 621 321 q 479 350 511 321 q 448 428 448 378 q 479 507 448 478 q 566 536 511 536 z "},"ł":{"ha":432,"x_min":-18,"x_max":450,"o":"m 316 129 q 325 68 316 90 q 353 38 334 47 q 405 29 372 29 l 405 0 l 381 1 q 220 5 286 5 q 53 1 181 5 q 27 0 33 0 l 27 29 q 80 38 60 29 q 107 68 99 47 q 116 129 116 90 l 116 448 l -18 332 l -18 374 l 116 490 l 116 920 q 96 1014 116 985 q 27 1043 76 1043 l 27 1072 q 113 1068 71 1068 q 316 1087 235 1068 l 316 616 l 450 734 l 450 692 l 316 574 l 316 129 z "},"m":{"ha":1257,"x_min":34,"x_max":1239,"o":"m 1150 129 q 1159 68 1150 90 q 1187 38 1168 47 q 1239 29 1206 29 l 1239 0 l 1215 1 q 1056 5 1120 5 q 905 1 992 5 l 884 0 l 884 29 q 923 38 909 29 q 944 68 937 47 q 950 129 950 90 l 950 561 q 933 648 950 618 q 867 677 916 677 q 805 657 834 677 q 756 605 776 638 q 732 532 737 572 l 732 503 l 732 129 q 740 68 732 90 q 765 38 747 47 q 812 29 782 29 l 812 0 l 791 1 q 637 5 701 5 q 487 1 574 5 l 465 0 l 465 29 q 505 38 490 29 q 526 68 519 47 q 532 129 532 90 l 532 561 q 517 648 532 619 q 458 677 502 677 q 390 656 421 677 q 341 598 359 635 q 323 516 323 561 l 323 129 q 329 68 323 90 q 350 38 336 47 q 389 29 364 29 l 389 0 l 368 1 q 225 5 284 5 q 58 1 157 5 l 34 0 l 34 29 q 86 38 67 29 q 114 68 105 47 q 123 129 123 90 l 123 567 q 103 661 123 631 q 34 690 83 690 l 34 719 q 120 714 85 714 q 323 734 238 714 l 323 608 q 410 706 354 675 q 538 738 466 738 q 690 684 642 738 q 725 601 716 653 q 956 738 791 738 q 1107 684 1060 738 q 1140 615 1131 658 q 1150 503 1150 573 l 1150 129 z "},"n":{"ha":852,"x_min":34,"x_max":835,"o":"m 549 738 q 703 684 655 738 q 736 615 726 657 q 746 503 746 573 l 746 129 q 755 68 746 90 q 783 38 764 47 q 835 29 802 29 l 835 0 l 811 1 q 652 5 716 5 q 494 1 584 5 l 471 0 l 471 29 q 516 38 500 29 q 539 68 532 47 q 546 129 546 90 l 546 561 q 528 647 546 618 q 460 677 509 677 q 390 656 422 677 q 341 598 359 635 q 323 516 323 561 l 323 129 q 330 68 323 90 q 353 38 337 47 q 397 29 369 29 l 397 0 l 376 1 q 225 5 289 5 q 58 1 157 5 l 34 0 l 34 29 q 86 38 67 29 q 114 68 105 47 q 123 129 123 90 l 123 567 q 103 661 123 631 q 34 690 83 690 l 34 719 q 120 714 85 714 q 323 734 238 714 l 323 608 q 549 738 386 738 z "},"ń":{"ha":852,"x_min":34,"x_max":835,"o":"m 34 0 m 549 738 q 703 684 655 738 q 736 615 726 657 q 746 503 746 573 l 746 129 q 755 68 746 90 q 783 38 764 47 q 835 29 802 29 l 835 0 l 811 1 q 652 5 716 5 q 494 1 584 5 l 471 0 l 471 29 q 516 38 500 29 q 539 68 532 47 q 546 129 546 90 l 546 561 q 528 647 546 618 q 460 677 509 677 q 390 656 422 677 q 341 598 359 635 q 323 516 323 561 l 323 129 q 330 68 323 90 q 353 38 337 47 q 397 29 369 29 l 397 0 l 376 1 q 225 5 289 5 q 58 1 157 5 l 34 0 l 34 29 q 86 38 67 29 q 114 68 105 47 q 123 129 123 90 l 123 567 q 103 661 123 631 q 34 690 83 690 l 34 719 q 120 714 85 714 q 323 734 238 714 l 323 608 q 549 738 386 738 m 587 1135 q 612 1082 612 1115 q 590 1025 612 1051 q 556 991 575 1006 q 504 951 538 976 q 355 832 414 886 l 340 844 q 419 1017 380 916 q 446 1080 435 1059 q 472 1120 456 1102 q 538 1153 498 1153 q 587 1135 566 1153 z "},"ŉ":{"ha":852,"x_min":-97,"x_max":835,"o":"m 746 129 q 755 68 746 90 q 783 38 764 47 q 835 29 802 29 l 835 0 l 811 1 q 652 5 716 5 q 494 1 584 5 l 471 0 l 471 29 q 516 38 500 29 q 539 68 532 47 q 546 129 546 90 l 546 561 q 528 647 546 618 q 460 677 509 677 q 390 656 422 677 q 341 598 359 635 q 323 516 323 561 l 323 129 q 330 68 323 90 q 353 38 337 47 q 397 29 369 29 l 397 0 l 376 1 q 225 5 289 5 q 58 1 157 5 l 34 0 l 34 29 q 86 38 67 29 q 114 68 105 47 q 123 129 123 90 l 123 567 q 103 661 123 631 q 34 690 83 690 l 34 705 q 1 687 20 696 l -12 712 q 57 764 27 730 q 93 835 86 798 q 96 866 96 848 q 94 892 96 881 q 12 859 62 859 q -67 888 -37 859 q -97 966 -97 916 q -65 1044 -97 1015 q 17 1074 -33 1074 q 116 1025 83 1074 q 138 974 130 1004 q 146 909 146 943 q 122 803 146 852 q 52 718 98 753 q 120 714 90 714 q 323 734 238 714 l 323 608 q 549 738 386 738 q 703 684 655 738 q 736 615 726 657 q 746 503 746 573 l 746 129 z "},"ň":{"ha":852,"x_min":34,"x_max":835,"o":"m 34 0 m 549 738 q 703 684 655 738 q 736 615 726 657 q 746 503 746 573 l 746 129 q 755 68 746 90 q 783 38 764 47 q 835 29 802 29 l 835 0 l 811 1 q 652 5 716 5 q 494 1 584 5 l 471 0 l 471 29 q 516 38 500 29 q 539 68 532 47 q 546 129 546 90 l 546 561 q 528 647 546 618 q 460 677 509 677 q 390 656 422 677 q 341 598 359 635 q 323 516 323 561 l 323 129 q 330 68 323 90 q 353 38 337 47 q 397 29 369 29 l 397 0 l 376 1 q 225 5 289 5 q 58 1 157 5 l 34 0 l 34 29 q 86 38 67 29 q 114 68 105 47 q 123 129 123 90 l 123 567 q 103 661 123 631 q 34 690 83 690 l 34 719 q 120 714 85 714 q 323 734 238 714 l 323 608 q 549 738 386 738 m 682 1120 q 539 1001 605 1074 q 433 847 473 927 l 408 847 q 304 999 371 926 q 160 1120 238 1073 l 171 1139 q 326 1091 250 1120 q 449 1034 402 1062 q 548 1091 487 1062 q 671 1139 608 1120 l 682 1120 z "},"ņ":{"ha":852,"x_min":34,"x_max":835,"o":"m 34 0 m 549 738 q 703 684 655 738 q 736 615 726 657 q 746 503 746 573 l 746 129 q 755 68 746 90 q 783 38 764 47 q 835 29 802 29 l 835 0 l 811 1 q 652 5 716 5 q 494 1 584 5 l 471 0 l 471 29 q 516 38 500 29 q 539 68 532 47 q 546 129 546 90 l 546 561 q 528 647 546 618 q 460 677 509 677 q 390 656 422 677 q 341 598 359 635 q 323 516 323 561 l 323 129 q 330 68 323 90 q 353 38 337 47 q 397 29 369 29 l 397 0 l 376 1 q 225 5 289 5 q 58 1 157 5 l 34 0 l 34 29 q 86 38 67 29 q 114 68 105 47 q 123 129 123 90 l 123 567 q 103 661 123 631 q 34 690 83 690 l 34 719 q 120 714 85 714 q 323 734 238 714 l 323 608 q 549 738 386 738 m 444 -76 q 525 -105 494 -76 q 557 -183 557 -134 q 518 -287 557 -247 q 399 -337 479 -327 l 393 -309 q 505 -232 496 -292 q 437 -254 481 -254 q 365 -231 391 -254 q 338 -166 338 -209 q 367 -100 338 -124 q 444 -76 395 -76 z "},"ŋ":{"ha":834,"x_min":34,"x_max":746,"o":"m 549 737 q 703 683 655 737 q 736 615 726 656 q 746 503 746 573 l 746 131 q 726 -59 746 15 q 658 -186 707 -134 q 569 -242 623 -222 q 430 -261 515 -261 q 352 -252 392 -261 q 282 -222 311 -243 q 254 -167 254 -201 q 267 -124 254 -144 q 306 -92 280 -104 q 367 -80 332 -80 q 447 -101 416 -80 q 478 -159 478 -123 q 461 -203 478 -184 q 414 -233 444 -222 q 469 -221 452 -233 q 533 -163 513 -216 q 544 -93 542 -140 q 546 31 546 -45 l 546 560 q 528 647 546 617 q 460 676 509 676 q 390 655 422 676 q 341 597 359 634 q 323 516 323 561 l 323 129 q 330 68 323 90 q 353 38 337 47 q 397 29 369 29 l 397 0 l 376 1 q 225 5 289 5 q 58 1 157 5 l 34 0 l 34 29 q 86 38 67 29 q 114 68 105 47 q 123 129 123 90 l 123 567 q 103 661 123 631 q 34 690 83 690 l 34 719 q 120 714 85 714 q 323 734 238 714 l 323 608 q 549 737 386 737 z "},"ñ":{"ha":852,"x_min":34,"x_max":835,"o":"m 34 0 m 549 738 q 703 684 655 738 q 736 615 726 657 q 746 503 746 573 l 746 129 q 755 68 746 90 q 783 38 764 47 q 835 29 802 29 l 835 0 l 811 1 q 652 5 716 5 q 494 1 584 5 l 471 0 l 471 29 q 516 38 500 29 q 539 68 532 47 q 546 129 546 90 l 546 561 q 528 647 546 618 q 460 677 509 677 q 390 656 422 677 q 341 598 359 635 q 323 516 323 561 l 323 129 q 330 68 323 90 q 353 38 337 47 q 397 29 369 29 l 397 0 l 376 1 q 225 5 289 5 q 58 1 157 5 l 34 0 l 34 29 q 86 38 67 29 q 114 68 105 47 q 123 129 123 90 l 123 567 q 103 661 123 631 q 34 690 83 690 l 34 719 q 120 714 85 714 q 323 734 238 714 l 323 608 q 549 738 386 738 m 323 1092 q 391 1079 362 1092 q 454 1042 420 1066 q 507 1011 484 1021 q 557 1000 529 1000 q 664 1074 620 1000 l 684 1064 q 616 918 662 966 q 511 871 570 871 q 443 883 471 871 q 379 921 415 896 q 327 953 349 942 q 275 964 304 964 q 168 889 213 964 l 149 899 q 217 1044 171 997 q 323 1092 263 1092 z "},"o":{"ha":785,"x_min":52,"x_max":732,"o":"m 392 738 q 642 647 551 738 q 732 359 732 555 q 642 71 732 161 q 392 -20 551 -20 q 143 71 233 -20 q 52 359 52 161 q 143 647 52 555 q 392 738 233 738 m 392 710 q 297 624 332 710 q 262 359 262 537 q 297 94 262 180 q 392 8 332 8 q 488 94 452 8 q 523 359 523 180 q 488 624 523 537 q 392 710 452 710 z "},"ó":{"ha":785,"x_min":52,"x_max":732,"o":"m 52 0 m 392 738 q 642 647 551 738 q 732 359 732 555 q 642 71 732 161 q 392 -20 551 -20 q 143 71 233 -20 q 52 359 52 161 q 143 647 52 555 q 392 738 233 738 m 392 710 q 297 624 332 710 q 262 359 262 537 q 297 94 262 180 q 392 8 332 8 q 488 94 452 8 q 523 359 523 180 q 488 624 523 537 q 392 710 452 710 m 546 1135 q 571 1082 571 1115 q 549 1025 571 1051 q 516 991 534 1006 q 463 951 497 976 q 315 832 374 886 l 300 844 q 378 1017 339 916 q 405 1080 395 1059 q 431 1120 416 1102 q 498 1153 458 1153 q 546 1135 526 1153 z "},"ŏ":{"ha":785,"x_min":52,"x_max":732,"o":"m 52 0 m 392 738 q 642 647 551 738 q 732 359 732 555 q 642 71 732 161 q 392 -20 551 -20 q 143 71 233 -20 q 52 359 52 161 q 143 647 52 555 q 392 738 233 738 m 392 710 q 297 624 332 710 q 262 359 262 537 q 297 94 262 180 q 392 8 332 8 q 488 94 452 8 q 523 359 523 180 q 488 624 523 537 q 392 710 452 710 m 658 1082 q 562 926 627 990 q 393 863 497 863 q 223 927 289 863 q 127 1082 158 991 l 151 1095 q 393 994 240 994 q 635 1095 545 994 l 658 1082 z "},"ô":{"ha":785,"x_min":52,"x_max":732,"o":"m 52 0 m 392 738 q 642 647 551 738 q 732 359 732 555 q 642 71 732 161 q 392 -20 551 -20 q 143 71 233 -20 q 52 359 52 161 q 143 647 52 555 q 392 738 233 738 m 392 710 q 297 624 332 710 q 262 359 262 537 q 297 94 262 180 q 392 8 332 8 q 488 94 452 8 q 523 359 523 180 q 488 624 523 537 q 392 710 452 710 m 406 1139 q 510 986 444 1060 q 655 867 576 913 l 644 847 q 488 895 564 867 q 366 953 412 924 q 268 895 328 924 q 144 847 208 866 l 133 867 q 276 985 210 912 q 381 1139 342 1059 l 406 1139 z "},"ö":{"ha":785,"x_min":52,"x_max":732,"o":"m 52 0 m 392 738 q 642 647 551 738 q 732 359 732 555 q 642 71 732 161 q 392 -20 551 -20 q 143 71 233 -20 q 52 359 52 161 q 143 647 52 555 q 392 738 233 738 m 392 710 q 297 624 332 710 q 262 359 262 537 q 297 94 262 180 q 392 8 332 8 q 488 94 452 8 q 523 359 523 180 q 488 624 523 537 q 392 710 452 710 m 237 1056 q 289 1041 264 1056 q 328 1003 313 1027 q 342 951 342 979 q 328 899 342 923 q 289 861 313 875 q 237 846 264 846 q 185 861 209 846 q 147 899 161 875 q 133 951 133 923 q 147 1003 133 979 q 185 1041 161 1027 q 237 1056 209 1056 m 553 1056 q 605 1041 581 1056 q 644 1003 629 1027 q 659 951 659 979 q 644 899 659 923 q 605 861 629 875 q 553 846 581 846 q 501 861 525 846 q 463 899 477 875 q 449 951 449 923 q 463 1003 449 979 q 501 1041 477 1027 q 553 1056 525 1056 z "},"ò":{"ha":785,"x_min":52,"x_max":732,"o":"m 52 0 m 392 738 q 642 647 551 738 q 732 359 732 555 q 642 71 732 161 q 392 -20 551 -20 q 143 71 233 -20 q 52 359 52 161 q 143 647 52 555 q 392 738 233 738 m 392 710 q 297 624 332 710 q 262 359 262 537 q 297 94 262 180 q 392 8 332 8 q 488 94 452 8 q 523 359 523 180 q 488 624 523 537 q 392 710 452 710 m 220 1135 q 268 1153 240 1153 q 335 1120 308 1153 q 361 1080 351 1102 q 388 1017 372 1059 q 467 844 427 916 l 451 832 q 303 951 393 886 q 250 992 268 977 q 217 1025 231 1006 q 195 1082 195 1051 q 220 1135 195 1115 z "},"ő":{"ha":785,"x_min":52,"x_max":732,"o":"m 52 0 m 392 738 q 642 647 551 738 q 732 359 732 555 q 642 71 732 161 q 392 -20 551 -20 q 143 71 233 -20 q 52 359 52 161 q 143 647 52 555 q 392 738 233 738 m 392 710 q 297 624 332 710 q 262 359 262 537 q 297 94 262 180 q 392 8 332 8 q 488 94 452 8 q 523 359 523 180 q 488 624 523 537 q 392 710 452 710 m 435 1133 q 466 1076 466 1110 q 448 1023 466 1050 q 368 946 427 995 q 241 831 296 887 l 224 841 q 280 1002 254 911 q 301 1066 292 1043 q 321 1107 309 1089 q 352 1136 334 1126 q 391 1146 371 1146 q 435 1133 416 1146 m 682 1133 q 712 1076 712 1110 q 694 1023 712 1050 q 666 991 682 1006 q 613 945 650 977 q 487 831 537 882 l 470 841 q 527 1003 496 903 q 548 1067 540 1046 q 568 1107 556 1089 q 599 1136 581 1126 q 637 1146 617 1146 q 682 1133 662 1146 z "},"ō":{"ha":785,"x_min":52,"x_max":732,"o":"m 52 0 m 392 738 q 642 647 551 738 q 732 359 732 555 q 642 71 732 161 q 392 -20 551 -20 q 143 71 233 -20 q 52 359 52 161 q 143 647 52 555 q 392 738 233 738 m 392 710 q 297 624 332 710 q 262 359 262 537 q 297 94 262 180 q 392 8 332 8 q 488 94 452 8 q 523 359 523 180 q 488 624 523 537 q 392 710 452 710 m 157 954 l 157 989 l 623 989 l 623 954 l 157 954 z "},"ø":{"ha":784,"x_min":52,"x_max":732,"o":"m 622 665 q 732 359 732 571 q 642 71 732 161 q 392 -20 551 -20 q 192 31 272 -20 l 101 -102 l 74 -83 l 165 50 q 52 359 52 144 q 143 647 52 555 q 392 738 233 738 q 595 686 515 738 l 688 819 l 715 802 l 622 665 m 392 710 q 297 624 332 710 q 262 359 262 537 q 273 186 262 259 l 503 574 q 392 710 471 710 m 392 8 q 488 94 452 8 q 523 359 523 180 q 512 527 523 453 l 283 136 q 392 8 317 8 z "},"õ":{"ha":785,"x_min":52,"x_max":732,"o":"m 52 0 m 392 738 q 642 647 551 738 q 732 359 732 555 q 642 71 732 161 q 392 -20 551 -20 q 143 71 233 -20 q 52 359 52 161 q 143 647 52 555 q 392 738 233 738 m 392 710 q 297 624 332 710 q 262 359 262 537 q 297 94 262 180 q 392 8 332 8 q 488 94 452 8 q 523 359 523 180 q 488 624 523 537 q 392 710 452 710 m 282 1092 q 350 1079 321 1092 q 413 1042 379 1066 q 466 1011 444 1021 q 517 1000 488 1000 q 623 1074 579 1000 l 643 1064 q 575 918 621 966 q 471 871 529 871 q 402 883 431 871 q 338 921 374 896 q 286 953 309 942 q 235 964 263 964 q 127 889 172 964 l 109 899 q 176 1044 130 997 q 282 1092 222 1092 z "},"œ":{"ha":1131,"x_min":52,"x_max":1083,"o":"m 895 95 q 1055 206 996 95 l 1080 197 q 1029 91 1063 140 q 943 11 996 42 q 824 -20 891 -20 q 696 9 753 -20 q 602 95 640 38 q 379 -20 531 -20 q 139 71 226 -20 q 52 359 52 161 q 139 646 52 555 q 379 737 227 737 q 605 618 534 737 q 700 707 643 677 q 827 738 757 738 q 1083 429 1083 738 l 716 429 q 713 363 713 402 q 739 212 713 272 q 806 123 765 151 q 895 95 848 95 m 379 8 q 470 94 436 8 q 504 357 504 180 q 470 623 504 536 q 379 710 436 710 q 294 624 326 710 q 262 359 262 537 q 294 94 262 180 q 379 8 326 8 m 819 708 q 748 646 777 708 q 712 456 720 585 l 908 456 q 887 636 909 565 q 819 708 865 708 z "},"p":{"ha":833,"x_min":27,"x_max":780,"o":"m 532 738 q 660 699 604 738 q 748 582 715 660 q 780 391 780 504 q 741 166 780 258 q 629 27 701 74 q 458 -20 557 -20 q 316 25 369 -20 l 316 -114 q 347 -199 316 -175 q 441 -222 378 -222 l 441 -252 l 397 -250 q 208 -245 279 -245 q 64 -250 155 -245 q 33 -252 40 -252 l 33 -222 q 82 -214 64 -222 q 108 -185 100 -205 q 116 -127 116 -165 l 116 566 q 96 660 116 631 q 27 688 76 688 l 27 718 q 113 713 71 713 q 316 733 237 713 l 316 603 q 401 703 345 669 q 532 738 457 738 m 404 18 q 532 107 493 18 q 570 364 570 195 q 539 606 570 533 q 450 678 508 678 q 366 646 403 678 q 316 555 328 613 l 316 56 q 404 18 348 18 z "},"þ":{"ha":811,"x_min":6,"x_max":759,"o":"m 510 738 q 638 699 582 738 q 727 582 694 660 q 759 391 759 504 q 720 166 759 258 q 608 27 680 74 q 437 -20 536 -20 q 295 25 348 -20 l 295 -114 q 326 -199 295 -175 q 420 -222 357 -222 l 420 -252 l 376 -250 q 186 -245 258 -245 q 42 -250 131 -245 q 12 -252 18 -252 l 12 -222 q 61 -214 43 -222 q 87 -185 79 -205 q 95 -127 95 -165 l 95 920 q 75 1013 95 984 q 6 1042 55 1042 l 6 1072 q 92 1067 50 1067 q 295 1086 214 1067 l 295 605 q 380 704 324 669 q 510 738 437 738 m 382 18 q 510 107 471 18 q 549 364 549 195 q 518 606 549 533 q 429 678 487 678 q 344 646 381 678 q 295 556 307 613 l 295 55 q 382 18 326 18 z "},"q":{"ha":812,"x_min":52,"x_max":799,"o":"m 716 -127 q 724 -185 716 -165 q 750 -214 732 -205 q 799 -222 768 -222 l 799 -252 q 768 -250 793 -252 q 624 -245 680 -245 q 436 -250 553 -245 l 391 -252 l 391 -222 q 485 -199 454 -222 q 516 -114 516 -175 l 516 110 q 447 13 492 46 q 336 -20 401 -20 q 190 22 254 -20 q 89 149 126 63 q 52 362 52 234 q 91 569 52 485 q 197 696 129 654 q 356 738 265 738 q 455 725 414 738 q 528 681 496 712 q 627 696 577 679 q 705 741 676 713 l 726 728 q 716 650 716 700 l 716 -127 m 394 41 q 471 73 437 41 q 516 160 506 105 l 516 665 q 408 709 475 709 q 262 359 262 709 q 296 115 262 190 q 394 41 330 41 z "},"r":{"ha":648,"x_min":34,"x_max":637,"o":"m 511 738 q 582 720 553 738 q 624 672 610 701 q 637 610 637 643 q 608 526 637 558 q 530 493 578 493 q 454 517 481 493 q 426 583 426 541 q 487 690 426 649 q 469 693 478 693 q 449 690 460 693 q 385 655 414 684 q 339 588 355 627 q 323 511 323 549 l 323 143 q 337 74 323 99 q 379 39 351 50 q 453 29 407 29 l 453 0 q 422 1 446 0 q 233 5 278 5 q 60 1 161 5 l 34 0 l 34 29 q 86 38 67 29 q 114 68 105 47 q 123 129 123 90 l 123 567 q 103 661 123 631 q 34 690 83 690 l 34 719 q 120 714 85 714 q 323 734 238 714 l 323 604 q 398 701 349 663 q 511 738 448 738 z "},"ŕ":{"ha":648,"x_min":34,"x_max":637,"o":"m 34 0 m 511 738 q 582 720 553 738 q 624 672 610 701 q 637 610 637 643 q 608 526 637 558 q 530 493 578 493 q 454 517 481 493 q 426 583 426 541 q 487 690 426 649 q 469 693 478 693 q 449 690 460 693 q 385 655 414 684 q 339 588 355 627 q 323 511 323 549 l 323 143 q 337 74 323 99 q 379 39 351 50 q 453 29 407 29 l 453 0 q 422 1 446 0 q 233 5 278 5 q 60 1 161 5 l 34 0 l 34 29 q 86 38 67 29 q 114 68 105 47 q 123 129 123 90 l 123 567 q 103 661 123 631 q 34 690 83 690 l 34 719 q 120 714 85 714 q 323 734 238 714 l 323 604 q 398 701 349 663 q 511 738 448 738 m 482 1135 q 507 1082 507 1115 q 486 1025 507 1051 q 452 991 471 1006 q 399 951 433 976 q 251 832 310 886 l 236 844 q 315 1017 275 916 q 341 1080 331 1059 q 368 1120 352 1102 q 434 1153 394 1153 q 482 1135 462 1153 z "},"ř":{"ha":648,"x_min":34,"x_max":637,"o":"m 34 0 m 511 738 q 582 720 553 738 q 624 672 610 701 q 637 610 637 643 q 608 526 637 558 q 530 493 578 493 q 454 517 481 493 q 426 583 426 541 q 487 690 426 649 q 469 693 478 693 q 449 690 460 693 q 385 655 414 684 q 339 588 355 627 q 323 511 323 549 l 323 143 q 337 74 323 99 q 379 39 351 50 q 453 29 407 29 l 453 0 q 422 1 446 0 q 233 5 278 5 q 60 1 161 5 l 34 0 l 34 29 q 86 38 67 29 q 114 68 105 47 q 123 129 123 90 l 123 567 q 103 661 123 631 q 34 690 83 690 l 34 719 q 120 714 85 714 q 323 734 238 714 l 323 604 q 398 701 349 663 q 511 738 448 738 m 578 1120 q 434 1001 500 1074 q 329 847 368 927 l 304 847 q 200 999 267 926 q 56 1120 134 1073 l 66 1139 q 222 1091 146 1120 q 345 1034 298 1062 q 443 1091 382 1062 q 566 1139 504 1120 l 578 1120 z "},"ŗ":{"ha":648,"x_min":34,"x_max":637,"o":"m 34 0 m 511 738 q 582 720 553 738 q 624 672 610 701 q 637 610 637 643 q 608 526 637 558 q 530 493 578 493 q 454 517 481 493 q 426 583 426 541 q 487 690 426 649 q 469 693 478 693 q 449 690 460 693 q 385 655 414 684 q 339 588 355 627 q 323 511 323 549 l 323 143 q 337 74 323 99 q 379 39 351 50 q 453 29 407 29 l 453 0 q 422 1 446 0 q 233 5 278 5 q 60 1 161 5 l 34 0 l 34 29 q 86 38 67 29 q 114 68 105 47 q 123 129 123 90 l 123 567 q 103 661 123 631 q 34 690 83 690 l 34 719 q 120 714 85 714 q 323 734 238 714 l 323 604 q 398 701 349 663 q 511 738 448 738 m 233 -76 q 315 -105 283 -76 q 347 -183 347 -134 q 308 -287 347 -247 q 189 -337 269 -327 l 183 -309 q 294 -232 286 -292 q 227 -254 271 -254 q 155 -231 181 -254 q 128 -166 128 -209 q 156 -100 128 -124 q 233 -76 184 -76 z "},"s":{"ha":641,"x_min":63,"x_max":590,"o":"m 307 738 q 404 725 360 738 q 473 695 448 711 q 498 686 488 686 q 531 736 524 686 l 561 736 q 555 492 555 669 l 526 492 q 471 646 513 584 q 347 707 429 707 q 279 683 306 707 q 253 618 253 659 q 270 557 253 585 q 313 508 288 530 q 385 452 339 486 q 424 425 398 444 q 514 351 480 382 q 569 279 548 319 q 590 186 590 239 q 555 78 590 125 q 459 6 519 31 q 327 -20 399 -20 q 197 9 250 -20 q 132 39 151 33 q 126 40 128 40 q 92 -9 104 40 l 63 -9 q 68 268 68 70 l 98 268 q 286 12 127 12 q 355 37 326 12 q 383 111 383 62 q 366 180 383 150 q 322 235 349 211 q 243 300 295 260 q 148 380 181 349 q 92 453 115 411 q 68 547 68 494 q 101 650 68 606 q 188 715 134 693 q 307 738 243 738 z "},"ś":{"ha":641,"x_min":63,"x_max":590,"o":"m 63 0 m 307 738 q 404 725 360 738 q 473 695 448 711 q 498 686 488 686 q 531 736 524 686 l 561 736 q 555 492 555 669 l 526 492 q 471 646 513 584 q 347 707 429 707 q 279 683 306 707 q 253 618 253 659 q 270 557 253 585 q 313 508 288 530 q 385 452 339 486 q 424 425 398 444 q 514 351 480 382 q 569 279 548 319 q 590 186 590 239 q 555 78 590 125 q 459 6 519 31 q 327 -20 399 -20 q 197 9 250 -20 q 132 39 151 33 q 126 40 128 40 q 92 -9 104 40 l 63 -9 q 68 268 68 70 l 98 268 q 286 12 127 12 q 355 37 326 12 q 383 111 383 62 q 366 180 383 150 q 322 235 349 211 q 243 300 295 260 q 148 380 181 349 q 92 453 115 411 q 68 547 68 494 q 101 650 68 606 q 188 715 134 693 q 307 738 243 738 m 475 1135 q 500 1082 500 1115 q 479 1025 500 1051 q 445 991 464 1006 q 393 951 427 976 q 244 832 303 886 l 229 844 q 308 1017 269 916 q 335 1080 324 1059 q 361 1120 345 1102 q 427 1153 387 1153 q 475 1135 455 1153 z "},"š":{"ha":641,"x_min":49,"x_max":590,"o":"m 49 0 m 307 738 q 404 725 360 738 q 473 695 448 711 q 498 686 488 686 q 531 736 524 686 l 561 736 q 555 492 555 669 l 526 492 q 471 646 513 584 q 347 707 429 707 q 279 683 306 707 q 253 618 253 659 q 270 557 253 585 q 313 508 288 530 q 385 452 339 486 q 424 425 398 444 q 514 351 480 382 q 569 279 548 319 q 590 186 590 239 q 555 78 590 125 q 459 6 519 31 q 327 -20 399 -20 q 197 9 250 -20 q 132 39 151 33 q 126 40 128 40 q 92 -9 104 40 l 63 -9 q 68 268 68 70 l 98 268 q 286 12 127 12 q 355 37 326 12 q 383 111 383 62 q 366 180 383 150 q 322 235 349 211 q 243 300 295 260 q 148 380 181 349 q 92 453 115 411 q 68 547 68 494 q 101 650 68 606 q 188 715 134 693 q 307 738 243 738 m 571 1120 q 428 1001 494 1074 q 322 847 361 927 l 297 847 q 193 999 260 926 q 49 1120 127 1073 l 60 1139 q 215 1091 139 1120 q 338 1034 291 1062 q 436 1091 376 1062 q 559 1139 497 1120 l 571 1120 z "},"ş":{"ha":641,"x_min":63,"x_max":590,"o":"m 327 -20 q 302 -19 310 -20 l 280 -90 q 379 -74 325 -74 q 450 -94 425 -74 q 475 -148 475 -114 q 419 -233 475 -204 q 280 -261 363 -261 q 159 -244 206 -261 l 166 -219 q 227 -225 201 -225 q 298 -211 268 -225 q 329 -168 329 -197 q 282 -132 329 -132 q 228 -142 250 -132 l 266 -14 q 197 9 226 -6 q 132 39 151 33 q 126 40 128 40 q 92 -9 104 40 l 63 -9 q 68 268 68 70 l 98 268 q 286 12 127 12 q 355 37 326 12 q 383 111 383 62 q 366 180 383 150 q 322 235 349 211 q 243 300 295 260 q 148 380 181 349 q 92 453 115 411 q 68 547 68 494 q 101 650 68 606 q 188 715 134 693 q 307 738 243 738 q 404 725 360 738 q 473 695 448 711 q 498 686 488 686 q 531 736 524 686 l 561 736 q 555 492 555 669 l 526 492 q 471 646 513 584 q 347 707 429 707 q 279 683 306 707 q 253 618 253 659 q 270 557 253 585 q 313 508 288 530 q 385 452 339 486 q 424 425 398 444 q 514 351 480 382 q 569 279 548 319 q 590 186 590 239 q 555 78 590 125 q 459 6 519 31 q 327 -20 399 -20 z "},"ŝ":{"ha":641,"x_min":62,"x_max":590,"o":"m 62 0 m 307 738 q 404 725 360 738 q 473 695 448 711 q 498 686 488 686 q 531 736 524 686 l 561 736 q 555 492 555 669 l 526 492 q 471 646 513 584 q 347 707 429 707 q 279 683 306 707 q 253 618 253 659 q 270 557 253 585 q 313 508 288 530 q 385 452 339 486 q 424 425 398 444 q 514 351 480 382 q 569 279 548 319 q 590 186 590 239 q 555 78 590 125 q 459 6 519 31 q 327 -20 399 -20 q 197 9 250 -20 q 132 39 151 33 q 126 40 128 40 q 92 -9 104 40 l 63 -9 q 68 268 68 70 l 98 268 q 286 12 127 12 q 355 37 326 12 q 383 111 383 62 q 366 180 383 150 q 322 235 349 211 q 243 300 295 260 q 148 380 181 349 q 92 453 115 411 q 68 547 68 494 q 101 650 68 606 q 188 715 134 693 q 307 738 243 738 m 336 1139 q 440 986 374 1060 q 585 867 506 913 l 573 847 q 417 895 493 867 q 296 953 342 924 q 197 895 258 924 q 73 847 137 866 l 62 867 q 205 985 139 912 q 311 1139 271 1059 l 336 1139 z "},"ș":{"ha":641,"x_min":63,"x_max":590,"o":"m 63 0 m 307 738 q 404 725 360 738 q 473 695 448 711 q 498 686 488 686 q 531 736 524 686 l 561 736 q 555 492 555 669 l 526 492 q 471 646 513 584 q 347 707 429 707 q 279 683 306 707 q 253 618 253 659 q 270 557 253 585 q 313 508 288 530 q 385 452 339 486 q 424 425 398 444 q 514 351 480 382 q 569 279 548 319 q 590 186 590 239 q 555 78 590 125 q 459 6 519 31 q 327 -20 399 -20 q 197 9 250 -20 q 132 39 151 33 q 126 40 128 40 q 92 -9 104 40 l 63 -9 q 68 268 68 70 l 98 268 q 286 12 127 12 q 355 37 326 12 q 383 111 383 62 q 366 180 383 150 q 322 235 349 211 q 243 300 295 260 q 148 380 181 349 q 92 453 115 411 q 68 547 68 494 q 101 650 68 606 q 188 715 134 693 q 307 738 243 738 m 318 -76 q 400 -105 368 -76 q 431 -183 431 -134 q 392 -287 431 -247 q 273 -337 353 -327 l 268 -309 q 379 -232 370 -292 q 311 -254 356 -254 q 239 -231 266 -254 q 213 -166 213 -209 q 241 -100 213 -124 q 318 -76 269 -76 z "},"ß":{"ha":912,"x_min":26,"x_max":876,"o":"m 459 1086 q 618 1060 552 1086 q 718 987 684 1034 q 751 881 751 941 q 709 756 751 814 q 600 659 667 699 q 457 602 532 619 q 682 533 587 583 q 826 411 776 484 q 876 250 876 338 q 833 105 876 166 q 720 12 790 44 q 567 -20 649 -20 q 426 15 481 -20 q 371 123 371 50 q 397 203 371 173 q 470 234 424 234 q 540 208 513 234 q 566 138 566 182 q 542 67 566 98 q 479 22 517 37 q 501 9 486 14 q 533 4 515 4 q 605 31 574 4 q 652 109 635 58 q 668 229 668 159 q 602 465 668 378 q 435 585 535 551 q 387 568 404 568 q 367 574 375 568 q 359 591 359 580 q 367 610 359 603 q 390 616 375 616 q 436 606 412 616 q 533 714 505 654 q 560 866 560 774 q 436 1065 560 1065 q 367 1040 393 1065 q 328 955 340 1015 q 315 791 315 895 l 315 -16 q 124 4 237 4 q 26 0 92 4 l 26 29 q 79 40 60 29 q 107 74 98 50 q 115 138 115 98 l 115 726 q 204 997 115 907 q 459 1086 292 1086 z "},"t":{"ha":488,"x_min":-1,"x_max":494,"o":"m 479 718 l 479 690 l 315 690 l 315 130 q 330 70 315 88 q 376 52 345 52 q 471 136 435 52 l 494 123 q 304 -20 442 -20 q 165 27 212 -20 q 126 101 136 56 q 115 221 115 145 l 115 690 l -1 690 l -1 718 l 115 718 l 115 901 q 315 946 235 903 l 315 718 l 479 718 z "},"ŧ":{"ha":503,"x_min":2,"x_max":498,"o":"m 498 123 q 308 -20 446 -20 q 169 27 216 -20 q 129 101 140 56 q 119 221 119 145 l 119 557 l 2 557 l 2 585 l 119 585 l 119 690 l 2 690 l 2 718 l 119 718 l 119 901 q 319 946 238 903 l 319 718 l 483 718 l 483 690 l 319 690 l 319 585 l 483 585 l 483 557 l 319 557 l 319 130 q 334 70 319 88 q 380 52 349 52 q 475 136 438 52 l 498 123 z "},"ť":{"ha":488,"x_min":-1,"x_max":547,"o":"m 0 0 m 479 718 l 479 690 l 315 690 l 315 130 q 330 70 315 88 q 376 52 345 52 q 471 136 435 52 l 494 123 q 304 -20 442 -20 q 165 27 212 -20 q 126 101 136 56 q 115 221 115 145 l 115 690 l -1 690 l -1 718 l 115 718 l 115 901 q 315 946 235 903 l 315 718 l 479 718 m 541 1088 q 545 1063 543 1081 q 547 1031 547 1044 q 532 971 547 1005 q 490 896 516 937 q 412 781 464 856 l 393 786 q 421 987 421 947 q 415 1030 421 1017 q 393 1043 410 1043 l 393 1072 q 425 1072 405 1072 q 541 1088 479 1072 z "},"ţ":{"ha":488,"x_min":-1,"x_max":494,"o":"m 366 -74 q 436 -94 412 -74 q 461 -148 461 -114 q 406 -233 461 -204 q 267 -261 350 -261 q 145 -244 193 -261 l 153 -219 q 214 -225 187 -225 q 285 -211 254 -225 q 315 -168 315 -197 q 269 -132 315 -132 q 214 -142 236 -132 l 252 -16 q 165 27 198 -5 q 126 101 136 56 q 115 221 115 145 l 115 690 l -1 690 l -1 718 l 115 718 l 115 901 q 315 946 235 903 l 315 718 l 479 718 l 479 690 l 315 690 l 315 130 q 330 70 315 88 q 376 52 345 52 q 471 136 435 52 l 494 123 q 304 -20 442 -20 l 289 -19 l 267 -90 q 366 -74 311 -74 z "},"ț":{"ha":488,"x_min":-1,"x_max":494,"o":"m 0 0 m 479 718 l 479 690 l 315 690 l 315 130 q 330 70 315 88 q 376 52 345 52 q 471 136 435 52 l 494 123 q 304 -20 442 -20 q 165 27 212 -20 q 126 101 136 56 q 115 221 115 145 l 115 690 l -1 690 l -1 718 l 115 718 l 115 901 q 315 946 235 903 l 315 718 l 479 718 m 304 -76 q 386 -105 355 -76 q 418 -183 418 -134 q 379 -287 418 -247 q 260 -337 340 -327 l 254 -309 q 366 -232 357 -292 q 298 -254 342 -254 q 226 -231 252 -254 q 199 -166 199 -209 q 228 -100 199 -124 q 304 -76 256 -76 z "},"u":{"ha":841,"x_min":18,"x_max":814,"o":"m 725 151 q 745 58 725 87 q 814 28 765 28 l 814 -1 q 728 3 770 3 q 525 -16 606 3 l 525 110 q 301 -20 462 -20 q 149 35 199 -20 q 117 103 127 61 q 107 215 107 146 l 107 567 q 87 661 107 631 q 18 690 67 690 l 18 719 q 104 714 69 714 q 307 734 222 714 l 307 158 q 325 71 307 100 q 390 41 342 41 q 457 62 427 41 q 507 120 488 83 q 525 202 525 157 l 525 567 q 505 661 525 631 q 436 690 485 690 l 436 719 q 522 714 487 714 q 725 734 642 714 l 725 151 z "},"ú":{"ha":841,"x_min":18,"x_max":814,"o":"m 18 0 m 725 151 q 745 58 725 87 q 814 28 765 28 l 814 -1 q 728 3 770 3 q 525 -16 606 3 l 525 110 q 301 -20 462 -20 q 149 35 199 -20 q 117 103 127 61 q 107 215 107 146 l 107 567 q 87 661 107 631 q 18 690 67 690 l 18 719 q 104 714 69 714 q 307 734 222 714 l 307 158 q 325 71 307 100 q 390 41 342 41 q 457 62 427 41 q 507 120 488 83 q 525 202 525 157 l 525 567 q 505 661 525 631 q 436 690 485 690 l 436 719 q 522 714 487 714 q 725 734 642 714 l 725 151 m 553 1135 q 578 1082 578 1115 q 557 1025 578 1051 q 523 991 542 1006 q 471 951 505 976 q 322 832 381 886 l 307 844 q 386 1017 347 916 q 413 1080 402 1059 q 439 1120 423 1102 q 505 1153 465 1153 q 553 1135 533 1153 z "},"ŭ":{"ha":841,"x_min":18,"x_max":814,"o":"m 18 0 m 725 151 q 745 58 725 87 q 814 28 765 28 l 814 -1 q 728 3 770 3 q 525 -16 606 3 l 525 110 q 301 -20 462 -20 q 149 35 199 -20 q 117 103 127 61 q 107 215 107 146 l 107 567 q 87 661 107 631 q 18 690 67 690 l 18 719 q 104 714 69 714 q 307 734 222 714 l 307 158 q 325 71 307 100 q 390 41 342 41 q 457 62 427 41 q 507 120 488 83 q 525 202 525 157 l 525 567 q 505 661 525 631 q 436 690 485 690 l 436 719 q 522 714 487 714 q 725 734 642 714 l 725 151 m 665 1082 q 570 926 635 990 q 400 863 505 863 q 231 927 296 863 q 135 1082 165 991 l 159 1095 q 400 994 248 994 q 642 1095 552 994 l 665 1082 z "},"û":{"ha":841,"x_min":18,"x_max":814,"o":"m 18 0 m 725 151 q 745 58 725 87 q 814 28 765 28 l 814 -1 q 728 3 770 3 q 525 -16 606 3 l 525 110 q 301 -20 462 -20 q 149 35 199 -20 q 117 103 127 61 q 107 215 107 146 l 107 567 q 87 661 107 631 q 18 690 67 690 l 18 719 q 104 714 69 714 q 307 734 222 714 l 307 158 q 325 71 307 100 q 390 41 342 41 q 457 62 427 41 q 507 120 488 83 q 525 202 525 157 l 525 567 q 505 661 525 631 q 436 690 485 690 l 436 719 q 522 714 487 714 q 725 734 642 714 l 725 151 m 414 1139 q 518 986 452 1060 q 663 867 584 913 l 651 847 q 495 895 571 867 q 374 953 420 924 q 275 895 336 924 q 151 847 215 866 l 140 867 q 283 985 217 912 q 389 1139 349 1059 l 414 1139 z "},"ü":{"ha":841,"x_min":18,"x_max":814,"o":"m 18 0 m 725 151 q 745 58 725 87 q 814 28 765 28 l 814 -1 q 728 3 770 3 q 525 -16 606 3 l 525 110 q 301 -20 462 -20 q 149 35 199 -20 q 117 103 127 61 q 107 215 107 146 l 107 567 q 87 661 107 631 q 18 690 67 690 l 18 719 q 104 714 69 714 q 307 734 222 714 l 307 158 q 325 71 307 100 q 390 41 342 41 q 457 62 427 41 q 507 120 488 83 q 525 202 525 157 l 525 567 q 505 661 525 631 q 436 690 485 690 l 436 719 q 522 714 487 714 q 725 734 642 714 l 725 151 m 245 1056 q 296 1041 272 1056 q 335 1003 321 1027 q 350 951 350 979 q 335 899 350 923 q 296 861 321 875 q 245 846 272 846 q 192 861 216 846 q 154 899 168 875 q 140 951 140 923 q 155 1003 140 979 q 193 1041 169 1027 q 245 1056 216 1056 m 561 1056 q 612 1041 588 1056 q 651 1003 637 1027 q 666 951 666 979 q 651 899 666 923 q 612 861 637 875 q 561 846 588 846 q 508 861 532 846 q 470 899 484 875 q 456 951 456 923 q 471 1003 456 979 q 509 1041 485 1027 q 561 1056 532 1056 z "},"ù":{"ha":841,"x_min":18,"x_max":814,"o":"m 18 0 m 725 151 q 745 58 725 87 q 814 28 765 28 l 814 -1 q 728 3 770 3 q 525 -16 606 3 l 525 110 q 301 -20 462 -20 q 149 35 199 -20 q 117 103 127 61 q 107 215 107 146 l 107 567 q 87 661 107 631 q 18 690 67 690 l 18 719 q 104 714 69 714 q 307 734 222 714 l 307 158 q 325 71 307 100 q 390 41 342 41 q 457 62 427 41 q 507 120 488 83 q 525 202 525 157 l 525 567 q 505 661 525 631 q 436 690 485 690 l 436 719 q 522 714 487 714 q 725 734 642 714 l 725 151 m 227 1135 q 275 1153 248 1153 q 342 1120 315 1153 q 369 1080 358 1102 q 395 1017 379 1059 q 474 844 435 916 l 458 832 q 311 951 400 886 q 257 992 275 977 q 224 1025 239 1006 q 203 1082 203 1051 q 227 1135 203 1115 z "},"ű":{"ha":841,"x_min":18,"x_max":814,"o":"m 18 0 m 725 151 q 745 58 725 87 q 814 28 765 28 l 814 -1 q 728 3 770 3 q 525 -16 606 3 l 525 110 q 301 -20 462 -20 q 149 35 199 -20 q 117 103 127 61 q 107 215 107 146 l 107 567 q 87 661 107 631 q 18 690 67 690 l 18 719 q 104 714 69 714 q 307 734 222 714 l 307 158 q 325 71 307 100 q 390 41 342 41 q 457 62 427 41 q 507 120 488 83 q 525 202 525 157 l 525 567 q 505 661 525 631 q 436 690 485 690 l 436 719 q 522 714 487 714 q 725 734 642 714 l 725 151 m 443 1133 q 473 1076 473 1110 q 455 1023 473 1050 q 375 946 434 995 q 248 831 303 887 l 231 841 q 288 1002 261 911 q 308 1066 300 1043 q 329 1107 317 1089 q 360 1136 341 1126 q 399 1146 378 1146 q 443 1133 423 1146 m 689 1133 q 720 1076 720 1110 q 701 1023 720 1050 q 673 991 689 1006 q 621 945 658 977 q 494 831 545 882 l 477 841 q 534 1003 504 903 q 555 1067 547 1046 q 576 1107 564 1089 q 607 1136 589 1126 q 645 1146 625 1146 q 689 1133 669 1146 z "},"ū":{"ha":841,"x_min":18,"x_max":814,"o":"m 18 0 m 725 151 q 745 58 725 87 q 814 28 765 28 l 814 -1 q 728 3 770 3 q 525 -16 606 3 l 525 110 q 301 -20 462 -20 q 149 35 199 -20 q 117 103 127 61 q 107 215 107 146 l 107 567 q 87 661 107 631 q 18 690 67 690 l 18 719 q 104 714 69 714 q 307 734 222 714 l 307 158 q 325 71 307 100 q 390 41 342 41 q 457 62 427 41 q 507 120 488 83 q 525 202 525 157 l 525 567 q 505 661 525 631 q 436 690 485 690 l 436 719 q 522 714 487 714 q 725 734 642 714 l 725 151 m 164 954 l 164 989 l 631 989 l 631 954 l 164 954 z "},"ų":{"ha":841,"x_min":18,"x_max":829,"o":"m 829 -167 q 746 -239 791 -216 q 639 -261 701 -261 q 545 -236 578 -261 q 512 -166 512 -211 q 570 -65 512 -109 q 734 3 628 -22 l 728 3 q 525 -16 606 3 l 525 110 q 301 -20 462 -20 q 149 35 199 -20 q 117 103 127 61 q 107 215 107 146 l 107 567 q 87 661 107 631 q 18 690 67 690 l 18 719 q 104 714 69 714 q 307 734 222 714 l 307 158 q 325 71 307 100 q 390 41 342 41 q 457 62 427 41 q 507 120 488 83 q 525 202 525 157 l 525 567 q 505 661 525 631 q 436 690 485 690 l 436 719 q 522 714 487 714 q 725 734 642 714 l 725 151 q 745 58 725 87 q 814 28 765 28 l 814 -1 l 781 2 l 768 -5 q 688 -63 713 -31 q 663 -128 663 -95 q 721 -184 663 -184 q 769 -174 744 -184 q 810 -147 795 -163 l 829 -167 z "},"ů":{"ha":841,"x_min":18,"x_max":814,"o":"m 18 0 m 725 151 q 745 58 725 87 q 814 28 765 28 l 814 -1 q 728 3 770 3 q 525 -16 606 3 l 525 110 q 301 -20 462 -20 q 149 35 199 -20 q 117 103 127 61 q 107 215 107 146 l 107 567 q 87 661 107 631 q 18 690 67 690 l 18 719 q 104 714 69 714 q 307 734 222 714 l 307 158 q 325 71 307 100 q 390 41 342 41 q 457 62 427 41 q 507 120 488 83 q 525 202 525 157 l 525 567 q 505 661 525 631 q 436 690 485 690 l 436 719 q 522 714 487 714 q 725 734 642 714 l 725 151 m 401 1107 q 477 1090 442 1107 q 533 1043 512 1074 q 553 972 553 1013 q 533 901 553 932 q 477 853 512 869 q 401 836 442 836 q 327 853 361 836 q 272 901 293 869 q 252 972 252 932 q 272 1043 252 1013 q 327 1090 293 1074 q 401 1107 361 1107 m 401 1078 q 349 1065 374 1078 q 307 1028 323 1052 q 290 971 290 1004 q 307 913 290 937 q 348 878 323 890 q 401 865 374 865 q 456 877 430 865 q 498 913 481 889 q 514 971 514 937 q 498 1028 514 1004 q 455 1065 481 1053 q 401 1078 429 1078 z "},"ũ":{"ha":841,"x_min":18,"x_max":814,"o":"m 18 0 m 725 151 q 745 58 725 87 q 814 28 765 28 l 814 -1 q 728 3 770 3 q 525 -16 606 3 l 525 110 q 301 -20 462 -20 q 149 35 199 -20 q 117 103 127 61 q 107 215 107 146 l 107 567 q 87 661 107 631 q 18 690 67 690 l 18 719 q 104 714 69 714 q 307 734 222 714 l 307 158 q 325 71 307 100 q 390 41 342 41 q 457 62 427 41 q 507 120 488 83 q 525 202 525 157 l 525 567 q 505 661 525 631 q 436 690 485 690 l 436 719 q 522 714 487 714 q 725 734 642 714 l 725 151 m 290 1092 q 358 1079 329 1092 q 420 1042 387 1066 q 473 1011 451 1021 q 524 1000 496 1000 q 631 1074 587 1000 l 650 1064 q 583 918 629 966 q 478 871 536 871 q 410 883 438 871 q 346 921 382 896 q 293 953 316 942 q 242 964 271 964 q 135 889 180 964 l 116 899 q 184 1044 138 997 q 290 1092 230 1092 z "},"v":{"ha":705,"x_min":-13,"x_max":704,"o":"m 597 713 q 704 719 672 713 l 704 690 q 652 655 675 682 q 609 570 629 629 l 406 -3 q 360 -1 383 -1 q 315 -3 338 -1 l 68 612 q -13 690 36 690 l -13 719 q 184 711 80 711 q 365 719 277 711 l 365 690 q 317 688 334 690 q 289 677 300 686 q 278 650 278 669 q 285 614 278 635 l 444 193 l 544 469 q 566 579 566 533 q 539 659 566 631 q 464 690 512 686 l 464 719 q 597 713 521 713 z "},"w":{"ha":1093,"x_min":-9,"x_max":1094,"o":"m 987 713 q 1094 719 1061 713 l 1094 690 q 1041 656 1064 682 q 998 570 1017 629 l 814 -3 q 768 -1 791 -1 q 724 -3 746 -1 l 535 513 l 381 -3 q 336 -1 359 -1 q 291 -3 313 -1 l 71 612 q -9 690 42 690 l -9 719 q 188 710 76 710 q 369 719 266 710 l 369 690 q 320 687 338 690 q 292 676 302 685 q 281 648 281 667 q 289 611 281 635 l 414 218 l 565 720 l 566 720 q 613 718 589 718 q 667 720 640 718 l 847 190 l 935 469 q 954 573 954 528 q 845 690 954 681 l 845 719 q 987 713 902 713 z "},"ẃ":{"ha":1093,"x_min":-9,"x_max":1094,"o":"m 0 0 m 987 713 q 1094 719 1061 713 l 1094 690 q 1041 656 1064 682 q 998 570 1017 629 l 814 -3 q 768 -1 791 -1 q 724 -3 746 -1 l 535 513 l 381 -3 q 336 -1 359 -1 q 291 -3 313 -1 l 71 612 q -9 690 42 690 l -9 719 q 188 710 76 710 q 369 719 266 710 l 369 690 q 320 687 338 690 q 292 676 302 685 q 281 648 281 667 q 289 611 281 635 l 414 218 l 565 720 l 566 720 q 613 718 589 718 q 667 720 640 718 l 847 190 l 935 469 q 954 573 954 528 q 845 690 954 681 l 845 719 q 987 713 902 713 m 723 1135 q 748 1082 748 1115 q 726 1025 748 1051 q 693 991 711 1006 q 640 951 674 976 q 492 832 551 886 l 477 844 q 555 1017 516 916 q 582 1080 572 1059 q 608 1120 593 1102 q 675 1153 635 1153 q 723 1135 703 1153 z "},"ŵ":{"ha":1093,"x_min":-9,"x_max":1094,"o":"m 0 0 m 987 713 q 1094 719 1061 713 l 1094 690 q 1041 656 1064 682 q 998 570 1017 629 l 814 -3 q 768 -1 791 -1 q 724 -3 746 -1 l 535 513 l 381 -3 q 336 -1 359 -1 q 291 -3 313 -1 l 71 612 q -9 690 42 690 l -9 719 q 188 710 76 710 q 369 719 266 710 l 369 690 q 320 687 338 690 q 292 676 302 685 q 281 648 281 667 q 289 611 281 635 l 414 218 l 565 720 l 566 720 q 613 718 589 718 q 667 720 640 718 l 847 190 l 935 469 q 954 573 954 528 q 845 690 954 681 l 845 719 q 987 713 902 713 m 583 1139 q 687 986 621 1060 q 832 867 753 913 l 821 847 q 665 895 741 867 q 543 953 589 924 q 445 895 505 924 q 321 847 385 866 l 310 867 q 453 985 387 912 q 558 1139 519 1059 l 583 1139 z "},"ẅ":{"ha":1093,"x_min":-9,"x_max":1094,"o":"m 0 0 m 987 713 q 1094 719 1061 713 l 1094 690 q 1041 656 1064 682 q 998 570 1017 629 l 814 -3 q 768 -1 791 -1 q 724 -3 746 -1 l 535 513 l 381 -3 q 336 -1 359 -1 q 291 -3 313 -1 l 71 612 q -9 690 42 690 l -9 719 q 188 710 76 710 q 369 719 266 710 l 369 690 q 320 687 338 690 q 292 676 302 685 q 281 648 281 667 q 289 611 281 635 l 414 218 l 565 720 l 566 720 q 613 718 589 718 q 667 720 640 718 l 847 190 l 935 469 q 954 573 954 528 q 845 690 954 681 l 845 719 q 987 713 902 713 m 414 1056 q 466 1041 441 1056 q 505 1003 490 1027 q 519 951 519 979 q 505 899 519 923 q 466 861 490 875 q 414 846 441 846 q 362 861 386 846 q 324 899 338 875 q 310 951 310 923 q 324 1003 310 979 q 362 1041 338 1027 q 414 1056 386 1056 m 730 1056 q 782 1041 758 1056 q 821 1003 806 1027 q 836 951 836 979 q 821 899 836 923 q 782 861 806 875 q 730 846 758 846 q 678 861 702 846 q 640 899 654 875 q 626 951 626 923 q 640 1003 626 979 q 678 1041 654 1027 q 730 1056 702 1056 z "},"ẁ":{"ha":1093,"x_min":-9,"x_max":1094,"o":"m 0 0 m 987 713 q 1094 719 1061 713 l 1094 690 q 1041 656 1064 682 q 998 570 1017 629 l 814 -3 q 768 -1 791 -1 q 724 -3 746 -1 l 535 513 l 381 -3 q 336 -1 359 -1 q 291 -3 313 -1 l 71 612 q -9 690 42 690 l -9 719 q 188 710 76 710 q 369 719 266 710 l 369 690 q 320 687 338 690 q 292 676 302 685 q 281 648 281 667 q 289 611 281 635 l 414 218 l 565 720 l 566 720 q 613 718 589 718 q 667 720 640 718 l 847 190 l 935 469 q 954 573 954 528 q 845 690 954 681 l 845 719 q 987 713 902 713 m 397 1135 q 445 1153 417 1153 q 512 1120 485 1153 q 538 1080 528 1102 q 565 1017 549 1059 q 644 844 604 916 l 628 832 q 480 951 570 886 q 427 992 445 977 q 394 1025 408 1006 q 372 1082 372 1051 q 397 1135 372 1115 z "},"x":{"ha":744,"x_min":12,"x_max":745,"o":"m 667 98 q 706 50 689 66 q 745 29 722 33 l 745 0 l 726 1 q 596 5 648 5 q 438 1 532 5 l 415 0 l 415 29 q 449 37 436 29 q 463 57 463 44 q 456 77 463 66 l 311 292 l 262 230 q 216 119 216 169 q 243 56 216 81 q 317 28 270 31 l 317 0 q 117 4 235 4 q 19 0 60 4 l 19 28 q 80 64 51 39 q 146 135 110 89 l 294 317 l 90 620 q 50 671 66 656 q 12 690 34 686 l 12 719 q 39 718 18 719 q 177 713 125 713 q 315 718 231 713 q 341 719 336 719 l 341 690 q 307 682 320 690 q 294 662 294 675 q 301 642 294 653 l 433 447 l 486 517 q 533 623 533 578 q 512 670 533 652 q 449 691 490 688 l 449 719 q 606 714 543 714 q 704 719 658 714 l 704 691 q 577 584 646 672 l 448 423 l 667 98 z "},"y":{"ha":721,"x_min":-19,"x_max":712,"o":"m 606 713 q 712 719 680 713 l 712 690 q 660 655 684 682 q 616 570 637 629 l 421 22 l 368 -127 q 307 -227 342 -197 q 186 -261 266 -261 q 115 -249 150 -261 q 58 -212 81 -237 q 35 -149 35 -186 q 65 -81 35 -106 q 146 -56 96 -56 q 221 -78 193 -56 q 250 -144 250 -101 q 232 -197 250 -172 q 180 -233 214 -221 q 212 -235 190 -235 q 338 -125 300 -235 l 361 -58 l 67 612 q -19 690 31 690 l -19 719 q 172 710 68 710 q 364 719 261 710 l 364 690 q 317 688 335 690 q 288 677 300 686 q 276 650 276 669 q 286 611 276 635 l 456 201 l 552 469 q 574 579 574 535 q 547 659 574 631 q 471 690 520 686 l 471 719 q 606 713 528 713 z "},"ý":{"ha":721,"x_min":-19,"x_max":712,"o":"m 0 0 m 606 713 q 712 719 680 713 l 712 690 q 660 655 684 682 q 616 570 637 629 l 421 22 l 368 -127 q 307 -227 342 -197 q 186 -261 266 -261 q 115 -249 150 -261 q 58 -212 81 -237 q 35 -149 35 -186 q 65 -81 35 -106 q 146 -56 96 -56 q 221 -78 193 -56 q 250 -144 250 -101 q 232 -197 250 -172 q 180 -233 214 -221 q 212 -235 190 -235 q 338 -125 300 -235 l 361 -58 l 67 612 q -19 690 31 690 l -19 719 q 172 710 68 710 q 364 719 261 710 l 364 690 q 317 688 335 690 q 288 677 300 686 q 276 650 276 669 q 286 611 276 635 l 456 201 l 552 469 q 574 579 574 535 q 547 659 574 631 q 471 690 520 686 l 471 719 q 606 713 528 713 m 510 1135 q 535 1082 535 1115 q 513 1025 535 1051 q 480 991 498 1006 q 427 951 461 976 q 279 832 338 886 l 264 844 q 342 1017 303 916 q 369 1080 359 1059 q 395 1120 380 1102 q 462 1153 422 1153 q 510 1135 490 1153 z "},"ŷ":{"ha":721,"x_min":-19,"x_max":712,"o":"m 0 0 m 606 713 q 712 719 680 713 l 712 690 q 660 655 684 682 q 616 570 637 629 l 421 22 l 368 -127 q 307 -227 342 -197 q 186 -261 266 -261 q 115 -249 150 -261 q 58 -212 81 -237 q 35 -149 35 -186 q 65 -81 35 -106 q 146 -56 96 -56 q 221 -78 193 -56 q 250 -144 250 -101 q 232 -197 250 -172 q 180 -233 214 -221 q 212 -235 190 -235 q 338 -125 300 -235 l 361 -58 l 67 612 q -19 690 31 690 l -19 719 q 172 710 68 710 q 364 719 261 710 l 364 690 q 317 688 335 690 q 288 677 300 686 q 276 650 276 669 q 286 611 276 635 l 456 201 l 552 469 q 574 579 574 535 q 547 659 574 631 q 471 690 520 686 l 471 719 q 606 713 528 713 m 370 1139 q 474 986 408 1060 q 619 867 541 913 l 608 847 q 452 895 528 867 q 330 953 376 924 q 232 895 292 924 q 108 847 172 866 l 97 867 q 240 985 174 912 q 345 1139 306 1059 l 370 1139 z "},"ÿ":{"ha":721,"x_min":-19,"x_max":712,"o":"m 0 0 m 606 713 q 712 719 680 713 l 712 690 q 660 655 684 682 q 616 570 637 629 l 421 22 l 368 -127 q 307 -227 342 -197 q 186 -261 266 -261 q 115 -249 150 -261 q 58 -212 81 -237 q 35 -149 35 -186 q 65 -81 35 -106 q 146 -56 96 -56 q 221 -78 193 -56 q 250 -144 250 -101 q 232 -197 250 -172 q 180 -233 214 -221 q 212 -235 190 -235 q 338 -125 300 -235 l 361 -58 l 67 612 q -19 690 31 690 l -19 719 q 172 710 68 710 q 364 719 261 710 l 364 690 q 317 688 335 690 q 288 677 300 686 q 276 650 276 669 q 286 611 276 635 l 456 201 l 552 469 q 574 579 574 535 q 547 659 574 631 q 471 690 520 686 l 471 719 q 606 713 528 713 m 201 1056 q 253 1041 229 1056 q 292 1003 277 1027 q 307 951 307 979 q 292 899 307 923 q 253 861 277 875 q 201 846 229 846 q 149 861 173 846 q 111 899 125 875 q 97 951 97 923 q 111 1003 97 979 q 149 1041 125 1027 q 201 1056 173 1056 m 517 1056 q 569 1041 545 1056 q 608 1003 593 1027 q 623 951 623 979 q 608 899 623 923 q 569 861 593 875 q 517 846 545 846 q 465 861 489 846 q 427 899 441 875 q 413 951 413 923 q 427 1003 413 979 q 465 1041 441 1027 q 517 1056 489 1056 z "},"ỳ":{"ha":721,"x_min":-19,"x_max":712,"o":"m 0 0 m 606 713 q 712 719 680 713 l 712 690 q 660 655 684 682 q 616 570 637 629 l 421 22 l 368 -127 q 307 -227 342 -197 q 186 -261 266 -261 q 115 -249 150 -261 q 58 -212 81 -237 q 35 -149 35 -186 q 65 -81 35 -106 q 146 -56 96 -56 q 221 -78 193 -56 q 250 -144 250 -101 q 232 -197 250 -172 q 180 -233 214 -221 q 212 -235 190 -235 q 338 -125 300 -235 l 361 -58 l 67 612 q -19 690 31 690 l -19 719 q 172 710 68 710 q 364 719 261 710 l 364 690 q 317 688 335 690 q 288 677 300 686 q 276 650 276 669 q 286 611 276 635 l 456 201 l 552 469 q 574 579 574 535 q 547 659 574 631 q 471 690 520 686 l 471 719 q 606 713 528 713 m 184 1135 q 232 1153 204 1153 q 299 1120 272 1153 q 325 1080 315 1102 q 352 1017 336 1059 q 431 844 391 916 l 415 832 q 267 951 357 886 q 214 992 232 977 q 181 1025 195 1006 q 159 1082 159 1051 q 184 1135 159 1115 z "},"z":{"ha":658,"x_min":43,"x_max":616,"o":"m 342 21 q 492 80 431 21 q 564 269 553 138 l 593 269 q 598 -5 593 71 q 332 0 486 0 q 43 -7 195 0 l 390 697 l 312 697 q 96 448 115 697 l 66 448 q 61 724 66 646 q 328 718 169 718 q 616 725 449 718 l 269 21 l 342 21 z "},"ź":{"ha":658,"x_min":43,"x_max":616,"o":"m 43 0 m 342 21 q 492 80 431 21 q 564 269 553 138 l 593 269 q 598 -5 593 71 q 332 0 486 0 q 43 -7 195 0 l 390 697 l 312 697 q 96 448 115 697 l 66 448 q 61 724 66 646 q 328 718 169 718 q 616 725 449 718 l 269 21 l 342 21 m 503 1135 q 528 1082 528 1115 q 507 1025 528 1051 q 473 991 492 1006 q 420 951 454 976 q 272 832 331 886 l 257 844 q 336 1017 296 916 q 362 1080 352 1059 q 389 1120 373 1102 q 455 1153 415 1153 q 503 1135 483 1153 z "}}}
